SplineFontDB: 3.2
FontName: ZameroSans-Black
FullName: Zamero Sans Black
FamilyName: Zamero Sans
Weight: Black
Copyright: Copyright (c) 2024-2025, Zamero Type Foundry
UComments: "2024-1-17: Created with FontForge (http://fontforge.org)+AAoACgAK-Instead of Charlie and the Alphabet and Charlie and the Numbers, how about Charlie and the Fonts? :)"
Version: 001.100
ItalicAngle: 0
UnderlinePosition: -100
UnderlineWidth: 50
Ascent: 800
Descent: 200
InvalidEm: 0
LayerCount: 2
Layer: 0 0 "Back" 1
Layer: 1 0 "Fore" 0
XUID: [1021 474 1118879153 20760]
StyleMap: 0x0000
FSType: 0
OS2Version: 0
OS2_WeightWidthSlopeOnly: 0
OS2_UseTypoMetrics: 1
CreationTime: 1705525712
ModificationTime: 1743311579
PfmFamily: 33
TTFWeight: 900
TTFWidth: 5
LineGap: 90
VLineGap: 90
OS2TypoAscent: 0
OS2TypoAOffset: 1
OS2TypoDescent: 0
OS2TypoDOffset: 1
OS2TypoLinegap: 90
OS2WinAscent: 0
OS2WinAOffset: 1
OS2WinDescent: 0
OS2WinDOffset: 1
HheadAscent: 0
HheadAOffset: 1
HheadDescent: 0
HheadDOffset: 1
OS2Vendor: 'ZAM '
Lookup: 1 0 0 "Single Substitution lookup 5" { "Single Substitution lookup 5 subtable"  } []
Lookup: 1 0 0 "Single Substitution lookup 6" { "Single Substitution lookup 6 subtable"  } []
Lookup: 1 0 0 "'ss15' Style Set 15 lookup 20" { "'ss15' Style Set 15 lookup 20-1" ("ss15") } ['ss15' ('DFLT' <'dflt' > 'grek' <'dflt' > 'latn' <'dflt' > ) ]
Lookup: 1 0 0 "'ss14' Style Set 14 lookup 19" { "'ss14' Style Set 14 lookup 19-1" ("ss14") } ['ss14' ('DFLT' <'dflt' > 'grek' <'dflt' > 'latn' <'dflt' > ) ]
Lookup: 1 0 0 "'onum' Oldstyle Figures lookup 18" { "'onum' Oldstyle Figures lookup 18-1" ("osf") } ['onum' ('DFLT' <'dflt' > 'grek' <'dflt' > 'latn' <'dflt' > ) ]
Lookup: 1 0 0 "'tnum' Tabular Numbers lookup 17" { "'tnum' Tabular Numbers lookup 17-1" ("tf") } ['tnum' ('DFLT' <'dflt' > 'grek' <'dflt' > 'latn' <'dflt' > ) ]
Lookup: 1 0 0 "'dnom' Denominators lookup 0" { "'dnom' Denominators lookup 0 subtable" ("dnom") } ['dnom' ('DFLT' <'dflt' > 'latn' <'dflt' > ) ]

StartChar: I
Encoding: 73 73 0
Width: 434
Flags: W
HStem: 0 181.75<19.5 111.5 322.5 414.5> 30 151.75<111.5 322.5> 548.25 182.75<19.5 111.5 322.5 414.5> 548.25 152.75<111.5 322.5>
VStem: 19.5 395<0 181.75 548.25 731> 111.5 211<30 701>
AnchorPoint: "Anchor-0" 216 731 basechar 0
AnchorPoint: "Anchor-2" 218 0 basechar 0
AnchorPoint: "Anchor-3" 271 0 basechar 0
LayerCount: 2
Fore
SplineSet
414.5 0 m 1x88
 19.5 0 l 1
 19.5 181.75 l 1
 414.5 181.75 l 1
 414.5 0 l 1x88
414.5 548.25 m 1x28
 19.5 548.25 l 1
 19.5 731 l 1
 414.5 731 l 1
 414.5 548.25 l 1x28
111.5 30 m 1x54
 111.5 701 l 1
 322.5 701 l 1
 322.5 30 l 1
 111.5 30 l 1x54
EndSplineSet
Validated: 5
EndChar

StartChar: O
Encoding: 79 79 1
Width: 797
Flags: W
HStem: -9.99805 189.212<315.001 482.777> 549.909 189.212<315.001 482.777>
VStem: 24.5 217.898<256.05 473.073> 555.379 217.898<256.05 473.073>
AnchorPoint: "Anchor-0" 399 731 basechar 0
AnchorPoint: "Anchor-2" 398 0 basechar 0
AnchorPoint: "Anchor-3" 471 20 basechar 0
LayerCount: 2
Fore
SplineSet
242.3984375 364.561523438 m 0
 242.3984375 253.417149552 289.266347865 179.213867188 398.888671875 179.213867188 c 4
 508.510995885 179.213867188 555.37890625 253.417149552 555.37890625 364.561523438 c 0
 555.37890625 475.705897323 508.510995885 549.909179688 398.888671875 549.909179688 c 0
 289.266347865 549.909179688 242.3984375 475.705897323 242.3984375 364.561523438 c 0
24.5 364.561523438 m 0
 24.5 591.206054688 166.161474668 739.12109375 398.888671875 739.12109375 c 0
 631.615869082 739.12109375 773.27734375 591.206054688 773.27734375 364.561523438 c 0
 773.27734375 137.916992188 631.615869082 -9.998046875 398.888671875 -9.998046875 c 0
 166.161474668 -9.998046875 24.5 137.916992188 24.5 364.561523438 c 0
EndSplineSet
Validated: 1
EndChar

StartChar: H
Encoding: 72 72 2
Width: 719
Flags: W
HStem: 0 21G<44.5 265.5 453.5 674.5> 264 188<150.5 553.5> 711.008 20G<44.5 265.5 453.5 674.5>
VStem: 44.5 221<0 264 452 731.008> 150.5 115<264 452> 453.5 221<0 264 452 731.008> 453.5 100<264 452>
AnchorPoint: "Anchor-0" 357 731 basechar 0
AnchorPoint: "Anchor-2" 357 0 basechar 0
LayerCount: 2
Fore
SplineSet
553.5 264 m 1xea
 150.5 264 l 1
 150.5 452 l 1
 553.5 452 l 1
 553.5 264 l 1xea
453.5 0 m 5xe4
 453.5 731.0078125 l 5
 674.5 731.0078125 l 1
 674.5 0 l 1
 453.5 0 l 5xe4
44.5 0 m 1xf0
 44.5 731.0078125 l 1
 265.5 731.0078125 l 1
 265.5 0 l 1
 44.5 0 l 1xf0
EndSplineSet
Validated: 5
EndChar

StartChar: V
Encoding: 86 86 4
Width: 699
Flags: W
HStem: 0 21G<207.508 501.218> 711.008 20G<-5.5 225.876 473.44 704.5>
AnchorPoint: "Anchor-0" 353 731 basechar 0
AnchorPoint: "Anchor-2" 354 0.0117188 basechar 0
LayerCount: 2
Fore
SplineSet
213.5 0 m 1
 -5.5 731.0078125 l 1
 220.75 731.0078125 l 1
 353.606445312 212.694335938 l 1
 478.25 731.0078125 l 1
 704.5 731.0078125 l 1
 495.5 0 l 1
 213.5 0 l 1
EndSplineSet
Validated: 1
EndChar

StartChar: D
Encoding: 68 68 5
Width: 727
Flags: W
HStem: 0 187.103<265.5 401.604> 543.9 187.107<265.5 401.935>
VStem: 44.5 221<187.103 543.9> 481.429 221.849<260.438 469.013>
AnchorPoint: "Anchor-0" 350 731 basechar 0
AnchorPoint: "Anchor-2" 356 0 basechar 0
LayerCount: 2
Fore
SplineSet
44.5 0 m 1
 44.5 731.0078125 l 1
 329.388671875 731.0078125 l 2
 526.109624971 731.0078125 703.27734375 631.206054688 703.27734375 364.561523438 c 0
 703.27734375 97.9169921877 524.958235806 -2.13357109759e-14 329.388671875 0 c 2
 44.5 0 l 1
265.5 543.900390625 m 5
 265.5 187.102539062 l 5
 294.388671875 187.211914062 l 6
 401.469020581 187.30754358 481.428710938 219.101806785 481.428710938 364.561523438 c 4
 481.428710938 510.284269835 401.469015789 543.703876157 294.388671875 543.795898438 c 6
 265.5 543.900390625 l 5
EndSplineSet
Validated: 1
EndChar

StartChar: U
Encoding: 85 85 6
Width: 719
Flags: W
HStem: -9.99805 189.212<294.015 421.762> 711.008 20G<44.5 265.5 450.277 671.277>
VStem: 44.5 221<205.919 731.008> 450.277 221<205.919 731.008>
AnchorPoint: "Anchor-0" 362 731 basechar 0
AnchorPoint: "Anchor-2" 358 0.0117188 basechar 0
AnchorPoint: "Anchor-3" 451 18 basechar 0
LayerCount: 2
Fore
SplineSet
357.888671875 -9.998046875 m 0
 123.846974811 -9.998046875 44.5 102.375640235 44.5 274.561523438 c 2
 44.5 731.0078125 l 1
 265.5 731.0078125 l 1
 265.5 304.561523438 l 2
 265.5 229.396360556 278.238129746 179.213867188 357.888671875 179.213867188 c 0
 437.539214004 179.213867188 450.27734375 229.396360556 450.27734375 304.561523438 c 6
 450.27734375 731.0078125 l 5
 671.27734375 731.0078125 l 1
 671.27734375 274.561523438 l 2
 671.27734375 102.375640235 591.930368939 -9.998046875 357.888671875 -9.998046875 c 0
EndSplineSet
Validated: 1
EndChar

StartChar: L
Encoding: 76 76 7
Width: 568
Flags: W
HStem: 0 182.75<265.5 544> 711.008 20G<44.5 265.5>
VStem: 44.5 221<182.75 731.008>
AnchorPoint: "Anchor-0" 139 731 basechar 0
AnchorPoint: "Anchor-2" 308 0 basechar 0
LayerCount: 2
Fore
SplineSet
265.5 182.75 m 5
 544 182.75 l 1
 544 0 l 1
 44.5 0 l 1
 44.5 731.0078125 l 1
 265.5 731.0078125 l 5
 265.5 182.75 l 5
EndSplineSet
Validated: 1
EndChar

StartChar: F
Encoding: 70 70 8
Width: 574
Flags: W
HStem: 0 21G<44.5 265.5> 248.2 178.55<160.5 494.5> 548.258 182.75<265.5 554.5>
VStem: 44.5 221<0 248.2 426.75 548.258> 160.5 105<248.2 426.75>
AnchorPoint: "Anchor-0" 306 731 basechar 0
AnchorPoint: "Anchor-2" 297 0 basechar 0
LayerCount: 2
Fore
SplineSet
494.5 248.200195312 m 5xe8
 160.5 248.200195312 l 1
 160.5 426.75 l 1
 494.5 426.75 l 5
 494.5 248.200195312 l 5xe8
265.5 548.2578125 m 1xf0
 265.5 0 l 1
 44.5 0 l 1
 44.5 731.0078125 l 1
 554.5 731.0078125 l 1
 554.5 548.2578125 l 1
 265.5 548.2578125 l 1xf0
EndSplineSet
Validated: 5
EndChar

StartChar: C
Encoding: 67 67 9
Width: 667
Flags: W
HStem: -9.99805 199.212<330.849 549.583> 539.909 199.212<336.014 537.814>
VStem: 26.55 228.598<267.697 461.414>
AnchorPoint: "Anchor-0" 406 731 basechar 0
AnchorPoint: "Anchor-2" 406 0 basechar 0
LayerCount: 2
Fore
SplineSet
26.55 360.561523438 m 0
 26.55 589.626439045 163.947760786 739.12109375 405.888671875 739.12109375 c 0
 571.571008916 739.12109375 639.681640625 678.891601562 639.681640625 678.891601562 c 1
 582.60546875 490.688476562 l 1
 582.60546875 490.688476562 532.163467063 539.909179688 429.888671875 539.909179688 c 0
 307.482116176 539.909179688 255.1484375 468.107976223 255.1484375 360.561523438 c 0
 255.1484375 257.812298786 307.482116176 189.213867188 429.888671875 189.213867188 c 4
 538.168938004 189.213867188 595.518554688 235.345703125 595.518554688 235.345703125 c 5
 642.827148438 44.595703125 l 1
 642.827148438 44.595703125 570.452460077 -9.998046875 405.888671875 -9.998046875 c 0
 163.947760786 -9.998046875 26.55 136.337376545 26.55 360.561523438 c 0
EndSplineSet
Validated: 1
Substitution2: "'ss12' Style Set 12 lookup 13-1" C.ss12
EndChar

StartChar: E
Encoding: 69 69 10
Width: 579
Flags: W
HStem: 0 182.75<265.5 559.5> 276.25 177.5<160.5 499.5> 548.258 182.75<265.5 559.5>
VStem: 160.5 105<276.25 453.75>
AnchorPoint: "Anchor-0" 306 731 basechar 0
AnchorPoint: "Anchor-2" 306 0 basechar 0
AnchorPoint: "Anchor-3" 471 0 basechar 0
LayerCount: 2
Fore
SplineSet
499.5 276.25 m 1
 160.5 276.25 l 5
 160.5 453.75 l 5
 499.5 453.75 l 1
 499.5 276.25 l 1
265.5 548.2578125 m 5
 265.5 182.75 l 5
 559.5 182.75 l 1
 559.5 0 l 1
 44.5 0 l 1
 44.5 731.0078125 l 1
 559.5 731.0078125 l 1
 559.5 548.2578125 l 1
 265.5 548.2578125 l 5
EndSplineSet
Validated: 5
EndChar

StartChar: N
Encoding: 78 78 11
Width: 719
Flags: W
HStem: 0 21G<44.5 237.1 455.286 674.5> 711.008 20G<44.5 264.15 481.9 674.5>
VStem: 44.5 192.6<0 371.505> 481.9 192.6<372.1 731.008>
AnchorPoint: "Anchor-0" 363 731 basechar 0
AnchorPoint: "Anchor-2" 365 0 basechar 0
LayerCount: 2
Fore
SplineSet
44.5 0 m 1
 44.5 731.0078125 l 1
 251.3 731.0078125 l 1
 481.9 372.099609375 l 1
 481.9 731.0078125 l 1
 674.5 731.0078125 l 1
 674.5 0 l 1
 467.7 0 l 1
 237.1 371.504882812 l 1
 237.1 0 l 1
 44.5 0 l 1
EndSplineSet
Validated: 1
EndChar

StartChar: M
Encoding: 77 77 12
Width: 830
Flags: W
HStem: 0 21G<44.5 265.5 564.5 785.5> 711.008 20G<44.5 285.895 544.105 785.5>
VStem: 44.5 221<0 354.005> 564.5 221<0 354.005>
AnchorPoint: "Anchor-0" 412 731 basechar 0
AnchorPoint: "Anchor-2" 411 0 basechar 0
LayerCount: 2
Fore
SplineSet
44.5 0 m 1
 44.5 731.0078125 l 1
 275.5 731.0078125 l 1
 415 462.599609375 l 1
 554.5 731.0078125 l 1
 785.5 731.0078125 l 1
 785.5 0 l 1
 564.5 0 l 1
 564.5 354.004882812 l 1
 465 169.5 l 5
 365 169.5 l 5
 265.5 354.004882812 l 1
 265.5 0 l 1
 44.5 0 l 1
EndSplineSet
Validated: 1
EndChar

StartChar: G
Encoding: 71 71 13
Width: 789
Flags: W
HStem: -9.99805 189.212<316.173 494.397> 270.25 159.5<406 508.919 708.327 774.5> 270.25 13.3457<508.919 708.327> 507.839 21G<602.605 608.545> 549.909 189.212<330.332 558.426>
VStem: 24.5 218.599<256.05 464.671> 517.231 202.651<200.438 269.741>
AnchorPoint: "Anchor-0" 408 731 basechar 0
AnchorPoint: "Anchor-2" 401 0 basechar 0
LayerCount: 2
Fore
SplineSet
774.5 270.25 m 1xde
 406 270.25 l 1
 406 429.75 l 1
 774.5 429.75 l 1
 774.5 270.25 l 1xde
24.5 364.561523438 m 0
 24.5 591.206054688 169.945282388 739.12109375 408.888671875 739.12109375 c 0
 582.89789518 739.12109375 654.431640625 682.341796875 654.431640625 682.341796875 c 1
 602.60546875 507.838867188 l 1
 602.60546875 507.838867188 544.23632306 549.909179688 425.888671875 549.909179688 c 0
 297.843180934 549.909179688 243.098632812 475.705897323 243.098632812 364.561523438 c 0
 243.098632812 253.417149552 287.875183963 179.213867188 410.188671875 179.213867188 c 0
 486.63676715 179.213867188 517.231445312 206.618137551 517.231445312 247.75 c 0
 517.231445312 272.820592318 508.918945312 283.595703125 508.918945312 283.595703125 c 1
 708.327148438 283.595703125 l 1xbe
 708.327148438 283.595703125 719.8828125 266.826197972 719.8828125 212 c 0
 719.8828125 88.6425930481 616.897443046 -9.998046875 399.888671875 -9.998046875 c 0
 160.784676183 -9.998046875 24.5 137.916992188 24.5 364.561523438 c 0
EndSplineSet
Validated: 5
Substitution2: "'ss12' Style Set 12 lookup 13-1" G.ss12
Substitution2: "'ss08' Style Set 8 lookup 9-1" G.ss08
EndChar

StartChar: A
Encoding: 65 65 14
Width: 719
Flags: W
HStem: 0 21G<-5.5 226.27 492.393 724.5> 119 162.75<162 556> 711.008 20G<237.174 472.1>
AnchorPoint: "Anchor-0" 352 731 basechar 0
AnchorPoint: "Anchor-2" 362 0 basechar 0
AnchorPoint: "Anchor-3" 601 0 basechar 0
LayerCount: 2
Fore
SplineSet
556 119 m 5
 162 119 l 5
 162 281.75 l 5
 556 281.75 l 5
 556 119 l 5
465 731.0078125 m 1
 724.5 0 l 1
 498.25 0 l 1
 355.393554688 487.813476562 l 1
 220.75 0 l 1
 -5.5 0 l 1
 244 731.0078125 l 1
 465 731.0078125 l 1
EndSplineSet
Validated: 5
EndChar

StartChar: P
Encoding: 80 80 15
Width: 655
Flags: W
HStem: 0 21G<44.5 265.5> 234 179.102<184.5 399.688> 547.899 183.108<265.5 393.213>
VStem: 44.5 221<0 234 413.102 547.899> 184.5 81<234 413.102> 414.429 221.849<429.963 530.259>
AnchorPoint: "Anchor-0" 339 731 basechar 0
AnchorPoint: "Anchor-2" 342 0 basechar 0
LayerCount: 2
Fore
SplineSet
184.5 234 m 1xec
 184.5 413.1015625 l 1xec
 327.388671875 413.211914062 l 6
 377.219004189 413.285027 414.428710938 425.142484039 414.428710938 479.561523438 c 4
 414.428710938 535.038049767 377.219009706 547.726247619 327.388671875 547.795898438 c 6
 265.5 547.899414062 l 1
 265.5 0 l 1
 44.5 0 l 1
 44.5 731.0078125 l 1xf4
 359.388671875 731.0078125 l 2
 505.073223267 731.0078125 636.27734375 662.526339517 636.27734375 479.561523438 c 0
 636.27734375 299.954973924 504.220545343 234 359.388671875 234 c 2
 184.5 234 l 1xec
EndSplineSet
Validated: 5
EndChar

StartChar: R
Encoding: 82 82 16
Width: 660
Flags: W
HStem: 0 21G<44.5 265.5 419.545 650> 239.2 170.802<184.5 355.885> 548.949 182.059<265.5 361.151>
VStem: 44.5 221<0 239.2 410.002 548.949> 184.5 81<239.2 410.002> 383.429 227.349<429.29 529.027>
AnchorPoint: "Anchor-0" 325 731 basechar 0
AnchorPoint: "Anchor-2" 342 0.0117188 basechar 0
LayerCount: 2
Back
SplineSet
124 383.3515625 m 1xec
 300.888671875 383.461914062 l 2
 383.403259307 383.509014034 462.928710938 404.697396723 462.928710938 501.561523438 c 0
 462.928710938 596.672668425 383.403268044 618.487535435 300.888671875 618.545898438 c 2
 184 618.649414062 l 1
 184 0 l 1
 55 0 l 1
 55 731.0078125 l 1xf4
 308.888671875 731.0078125 l 2
 457.204101562 731.0078125 590.77734375 670.696715458 590.77734375 509.561523438 c 4
 590.77734375 364.195131811 466.688476562 330.276367188 466.688476562 330.276367188 c 1
 466.688476562 330.276367188 540.174524344 311.767586577 573.702148438 195.399414062 c 2
 630 0 l 1
 492 0 l 1
 447 165 l 2
 420.732434887 256.417062766 391.813913829 266 270 266 c 2
 124 266 l 1
 124 383.3515625 l 1xec
EndSplineSet
Fore
SplineSet
184.5 410.001953125 m 1xec
 286.888671875 410.112304688 l 6
 342.157713933 410.127976437 383.428710938 422.51005898 383.428710938 479.061523438 c 4
 383.428710938 535.797760496 342.15771387 548.813897839 286.888671875 548.845703125 c 6
 265.5 548.94921875 l 1
 265.5 0 l 1
 44.5 0 l 1
 44.5 731.0078125 l 1xf4
 318.388671875 731.0078125 l 2
 472.228665573 731.0078125 610.77734375 669.334960938 610.77734375 504.561523438 c 0
 610.77734375 352.376249705 491.188476562 320.276367188 491.188476562 320.276367188 c 1
 491.188476562 320.276367188 563.64918645 299.709184759 600.100585938 173.192529297 c 2
 650 0 l 1
 425 0 l 5
 380 165 l 6
 357.76953125 235.19140625 345.236328125 239.200195312 268.5 239.200195312 c 6
 184.5 239.200195312 l 1
 184.5 410.001953125 l 1xec
EndSplineSet
Validated: 5
Substitution2: "'ss01' Style Set 1 lookup 2-1" R.ss01
EndChar

StartChar: T
Encoding: 84 84 17
Width: 614
Flags: W
HStem: 0 21G<196.5 417.5> 548.25 182.75<19.5 196.5 417.5 594.5> 548.25 152.75<196.5 417.5>
VStem: 196.5 221<0 701>
AnchorPoint: "Anchor-0" 310 731 basechar 0
AnchorPoint: "Anchor-2" 311 0.0117188 basechar 0
LayerCount: 2
Fore
SplineSet
594.5 548.25 m 1xd0
 19.5 548.25 l 1
 19.5 731 l 1
 594.5 731 l 1
 594.5 548.25 l 1xd0
196.5 0 m 5
 196.5 701 l 5
 417.5 701 l 5xb0
 417.5 0 l 5
 196.5 0 l 5
EndSplineSet
Validated: 5
EndChar

StartChar: Q
Encoding: 81 81 18
Width: 856
Flags: W
HStem: -9.99805 189.212<317.66 645.933 709.438 807.134> 549.909 189.212<318.793 485.431>
VStem: 24.5 217.898<262.564 466.559> 555.379 219.898<256.334 469.701>
AnchorPoint: "Anchor-0" 404 731 basechar 0
AnchorPoint: "Anchor-2" 508 0 basechar 0
LayerCount: 2
Fore
SplineSet
24.5 364.561523438 m 0
 24.5 591.206054687 168.053378528 739.12109375 403.888671875 739.12109375 c 0
 634.751011397 739.12109375 775.27734375 589.104132899 775.27734375 384.561523438 c 0
 775.27734375 239.563589508 709.438476562 178.348632812 709.438476562 178.348632812 c 5
 762.001373274 179.53125078 827.388671875 192.751953125 827.388671875 192.751953125 c 5
 842.388671875 19.001953125 l 1
 842.388671875 19.001953125 739.744971949 -9.998046875 475 -9.998046875 c 0
 163.116665996 -9.998046875 24.5 137.916992188 24.5 364.561523438 c 0
242.3984375 364.561523438 m 0
 242.3984375 253.417149552 293.929672459 179.213867188 403.888671875 179.213867188 c 0
 507.038652786 179.213867188 555.37890625 253.417149552 555.37890625 364.561523438 c 0
 555.37890625 475.705897323 507.038652786 549.909179688 403.888671875 549.909179688 c 0
 293.929672459 549.909179688 242.3984375 475.705897323 242.3984375 364.561523438 c 0
EndSplineSet
Validated: 1
Substitution2: "'ss10' Style Set 10 lookup 11-1" Q.ss10
Substitution2: "'ss09' Style Set 9 lookup 10-1" Q.ss09
EndChar

StartChar: B
Encoding: 66 66 19
Width: 640
Flags: W
HStem: 0 173.21<265.75 375.871> 290.456 150.096<179.5 359.601> 557.899 173.108<265.75 354.664>
VStem: 179.5 86.25<290.456 440.552> 371.179 226.099<453.691 543.398> 394.179 226.099<189.301 275.51>
AnchorPoint: "Anchor-0" 320 731 basechar 0
AnchorPoint: "Anchor-2" 343 0 basechar 0
LayerCount: 2
Fore
SplineSet
486.162109375 376.4375 m 1xf8
 486.162109375 376.4375 620.27734375 362.572757313 620.27734375 203.446289062 c 0xf4
 620.27734375 55.4086584443 495.697709119 -1.52239332252e-14 356.388671875 0 c 2
 44.5 0 l 1
 44.5 731.0078125 l 1
 335.388671875 731.0078125 l 2
 473.1809962 731.0078125 597.27734375 677.782226562 597.27734375 527.561523438 c 0
 597.27734375 401.693359375 486.162109375 376.4375 486.162109375 376.4375 c 1xf8
265.75 173.209960938 m 5
 293.138671875 173.211914062 l 6
 350.921977239 173.212977455 394.178710938 182.005103957 394.178710938 234.446289062 c 4xf4
 394.178710938 277.591614907 359.961290131 290.279208551 314.138671875 290.345703125 c 6
 179.5 290.456054688 l 5
 179.5 440.551757812 l 5
 292.138671875 440.662109375 l 6
 337.389057903 440.766815715 371.178710938 451.11778537 371.178710938 498.811523438 c 4xf8
 371.178710938 546.767271448 337.389057903 557.754285004 292.138671875 557.795898438 c 6
 265.75 557.899414062 l 5
 265.75 173.209960938 l 5
EndSplineSet
Validated: 5
EndChar

StartChar: J
Encoding: 74 74 20
Width: 432
Flags: W
HStem: -10 172<23.0453 253.819> 548.258 182.75<50 177>
VStem: 177 221<175.761 548.258>
AnchorPoint: "Anchor-0" 229 731 basechar 0
AnchorPoint: "Anchor-2" 175 0 basechar 0
LayerCount: 2
Fore
SplineSet
108 162 m 4
 156.579638671 162 177 180.384442065 177 223.5 c 6
 177 548.2578125 l 5
 50 548.2578125 l 1
 50 731.0078125 l 1
 398 731.0078125 l 1
 398 212 l 2
 398 78.8681527862 332.637931034 -10 175 -10 c 0
 77.4625750285 -10 10 10 10 10 c 1
 24 177 l 1
 24 177 59.0044696514 162 108 162 c 4
EndSplineSet
Validated: 1
EndChar

StartChar: K
Encoding: 75 75 21
Width: 669
Flags: W
HStem: 0 21G<44.5 265.5 403.638 679.5> 338 33<146 298> 711.008 20G<44.5 265.5 401.561 669.5>
VStem: 44.5 221<0 311 401 731.008> 216.5 49<311 401>
AnchorPoint: "Anchor-0" 329 731 basechar 0
AnchorPoint: "Anchor-2" 335 0 basechar 0
LayerCount: 2
Fore
SplineSet
146 371 m 1xe0
 298 371 l 1
 298 338 l 1
 146 338 l 1
 146 371 l 1xe0
416.5 0 m 5
 216.5 311 l 1
 216.5 401 l 1xe8
 413.5 731.0078125 l 5
 669.5 731.0078125 l 1
 418.5 372 l 1
 679.5 0 l 1
 416.5 0 l 5
44.5 0 m 1xf0
 44.5 731.0078125 l 1
 265.5 731.0078125 l 1
 265.5 0 l 1
 44.5 0 l 1xf0
EndSplineSet
Validated: 5
EndChar

StartChar: S
Encoding: 83 83 22
Width: 591
Flags: W
HStem: -10 184.212<120.203 320.719> 511.389 21G<507.371 512.146> 553.909 185.212<269.733 460.841>
VStem: 39.627 221.562<477.286 543.784>
AnchorPoint: "Anchor-0" 303 731 basechar 0
AnchorPoint: "Anchor-2" 292 0.0117188 basechar 0
LayerCount: 2
Fore
SplineSet
262.3828125 263.890625 m 0
 90.7385336349 310.184823336 39.626953125 390.06773357 39.626953125 510.7 c 0
 39.626953125 649.647495248 145.613846127 739.12109375 319.733398438 739.12109375 c 0
 474.485446287 739.12109375 549.745117188 688.891601562 549.745117188 688.891601562 c 1
 507.37109375 511.388671875 l 1
 507.37109375 511.388671875 440.98930788 553.909179688 336.86328125 553.909179688 c 0
 284.66269935 553.909179688 261.188476562 539.570198554 261.188476562 512.5 c 0
 261.188476562 489.670981323 272.082236764 475.520617434 315.847070312 465.081054688 c 0
 524.237364029 414.18027524 567.01953125 342.834734045 567.01953125 220.4 c 0
 567.01953125 78.4077702702 468.416629301 -10 283.8046875 -10 c 0
 123.762000366 -10 22.31640625 42.2294921875 22.31640625 42.2294921875 c 1
 59.47265625 222.732421875 l 1
 59.47265625 222.732421875 141.043312817 174.211914062 245.696289062 174.211914062 c 0
 303.207570198 174.211914062 330.587890625 188.086899312 330.587890625 215 c 0
 330.587890625 239.795420817 320.177848651 248.302719105 262.3828125 263.890625 c 0
EndSplineSet
Validated: 1
EndChar

StartChar: W
Encoding: 87 87 23
Width: 949
Flags: W
HStem: 0 21G<128.724 422.887 520.928 814.44> 711.008 20G<-5.5 231.503 727.514 954.5>
AnchorPoint: "Anchor-0" 474 731 basechar 0
AnchorPoint: "Anchor-2" 475 0 basechar 0
LayerCount: 2
Fore
SplineSet
132.5 0 m 1
 -5.5 731.0078125 l 1
 229.15 731.0078125 l 1
 289.006445312 222.194335938 l 1
 387.65 671.0078125 l 1
 567.65 671.0078125 l 1
 658.206445312 222.194335938 l 1
 730.35 731.0078125 l 1
 954.5 731.0078125 l 1
 810.5 0 l 1
 524 0 l 1
 477.65 301.771484375 l 1
 419 0 l 1
 132.5 0 l 1
EndSplineSet
Validated: 1
EndChar

StartChar: X
Encoding: 88 88 24
Width: 689
Flags: W
HStem: 0 21G<-0.5 257.472 431.528 689.5> 711.008 20G<9.5 259.669 429.331 679.5>
VStem: 274.8 139.4<311 401>
AnchorPoint: "Anchor-0" 344 731 basechar 0
AnchorPoint: "Anchor-2" 352 0 basechar 0
LayerCount: 2
Fore
SplineSet
246.7 0 m 1
 -0.5 0 l 1
 215 372 l 1
 9.5 731.0078125 l 1
 249.7 731.0078125 l 1
 414.2 401 l 1
 414.2 311 l 1
 246.7 0 l 1
442.3 0 m 1
 274.8 311 l 1
 274.8 401 l 1
 439.3 731.0078125 l 1
 679.5 731.0078125 l 1
 474 372 l 1
 689.5 0 l 1
 442.3 0 l 1
EndSplineSet
Validated: 5
EndChar

StartChar: Y
Encoding: 89 89 25
Width: 689
Flags: W
HStem: 0 21G<229 460> 281 141<245 444> 711.008 20G<9.5 259.098 429.902 679.5>
VStem: 229 231<0 422>
AnchorPoint: "Anchor-0" 346 731 basechar 0
AnchorPoint: "Anchor-2" 345 0 basechar 0
LayerCount: 2
Fore
SplineSet
245 281 m 5
 9.5 731.0078125 l 1
 250.75 731.0078125 l 1
 344.5 506.416015625 l 5
 438.25 731.0078125 l 1
 679.5 731.0078125 l 1
 444 281 l 5
 245 281 l 5
229 0 m 1
 229 422 l 5
 460 422 l 5
 460 0 l 1
 229 0 l 1
EndSplineSet
Validated: 5
EndChar

StartChar: Z
Encoding: 90 90 26
Width: 594
Flags: W
HStem: 0 182.75<312.5 574.5> 548.25 182.75<29.5 281.5>
AnchorPoint: "Anchor-0" 294 731 basechar 0
AnchorPoint: "Anchor-2" 306 0 basechar 0
LayerCount: 2
Fore
SplineSet
574.5 0 m 1
 19.5 0 l 1
 19.5 96 l 1
 281.5 548.25 l 1
 29.5 548.25 l 1
 29.5 731 l 1
 564.5 731 l 1
 564.5 625 l 1
 312.5 182.75 l 5
 574.5 182.75 l 1
 574.5 0 l 1
EndSplineSet
Validated: 1
EndChar

StartChar: ampersand
Encoding: 38 38 27
Width: 754
Flags: W
HStem: -10 182.104<567.663 732.172> -10 162.393<238.063 344.534> 562.962 176.03<358.531 505.369>
VStem: 24.5 195.437<171.012 273.535> 130.551 205.376<461.385 540.848>
LayerCount: 2
Fore
SplineSet
301.767578125 459.321289062 m 1x70
 371.741796875 340.213867188 l 0
 371.741796875 340.213867188 219.936523441 300.475449188 219.936523438 214.5 c 0
 219.936523438 181.68123246 249.328683966 152.392578125 296.30078125 152.392578125 c 0
 360.963338239 152.392578125 468.745403213 243.020783692 511.299804688 470.3046875 c 1
 697.337890625 419.3046875 l 1
 606.948242188 120.864257812 435.617998102 -10 265.928710938 -10 c 0
 113.093634084 -10 24.5 70.9521484375 24.5 188.185546875 c 0
 24.5 386.68750611 301.767578125 459.321289062 301.767578125 459.321289062 c 1x70
742.451171875 4.5546875 m 1
 742.451171875 4.5546875 708.075792607 -10 615.5 -10 c 0
 463.555889582 -10 400.977611948 71.5491232442 323.9 156 c 0
 217.911946354 272.126898976 130.55078125 439.377705285 130.55078125 532 c 0
 130.55078125 670.366210938 225.259317224 738.9921875 382.322460938 738.9921875 c 0
 479.118021728 738.9921875 538.250390625 703.649414062 538.250390625 703.649414062 c 1
 502.470703125 542.1484375 l 1
 502.470703125 542.1484375 471.118300555 562.96171875 420.446044923 562.96171875 c 0
 362.383172808 562.96171875 335.926757812 534.657219342 335.926757812 480 c 0
 335.926757812 424.676292686 359 344 447.9375 248 c 0
 495.709632515 196.434296878 552.452216833 172.104492188 641.01171875 172.104492188 c 0xa8
 698.647674645 172.104492188 731.62890625 181.3546875 731.62890625 181.3546875 c 1
 742.451171875 4.5546875 l 1
EndSplineSet
Validated: 5
EndChar

StartChar: i
Encoding: 105 105 28
Width: 269
Flags: W
HStem: 0 21G<34 235> 481.011 20G<34 235> 542.551 228.449<63.9094 205.09>
VStem: 20.8867 227.227<585.805 727.745> 34 201<0 501.011>
AnchorPoint: "Anchor-2" 137 0 basechar 0
AnchorPoint: "Anchor-3" 141 0 basechar 0
LayerCount: 2
Fore
SplineSet
34 0 m 1xe8
 34 501.010742188 l 1
 235 501.010742188 l 1
 235 0 l 1
 34 0 l 1xe8
20.88671875 656.775390625 m 0xf0
 20.88671875 725.97450576 65.6697922 771 134.499023438 771 c 0
 203.329172925 771 248.11328125 725.97450576 248.11328125 656.775390625 c 0
 248.11328125 587.5750253 203.329172925 542.55078125 134.499023438 542.55078125 c 0
 65.6697922 542.55078125 20.88671875 587.5750253 20.88671875 656.775390625 c 0xf0
EndSplineSet
Validated: 1
EndChar

StartChar: o
Encoding: 111 111 29
Width: 589
Flags: W
HStem: -9.99805 169.762<247.152 341.509> 340.984 169.949<246.602 342.105>
VStem: 28.7 196.849<180.724 323.018> 364.229 196.849<181.398 322.389>
AnchorPoint: "Anchor-0" 294 501.011 basechar 0
AnchorPoint: "Anchor-2" 294 0 basechar 0
AnchorPoint: "Anchor-3" 357 28 basechar 0
LayerCount: 2
Fore
SplineSet
225.548632812 253.561523438 m 0
 225.548632812 197.315429007 246.016075001 159.763867188 293.888671875 159.763867188 c 0
 343.162280441 159.763867188 364.228710938 197.315429007 364.228710938 253.561523438 c 0
 364.228710938 305.984826699 343.195622564 340.984179688 294 340.984179688 c 0
 246.049417124 340.984179688 225.548632812 305.984826699 225.548632812 253.561523438 c 0
28.7 253.561523438 m 0
 28.7 409.296356709 129.042294373 510.93359375 293.888671875 510.93359375 c 0
 459.978287833 510.93359375 561.07734375 409.296356709 561.07734375 253.561523438 c 0
 561.07734375 94.0826581124 459.978287833 -9.998046875 293.888671875 -9.998046875 c 0
 129.042294373 -9.998046875 28.7 94.0826581124 28.7 253.561523438 c 0
EndSplineSet
Validated: 1
EndChar

StartChar: n
Encoding: 110 110 30
Width: 595
Flags: W
HStem: 0 21G<44.5 245.5 350.277 551.277> 353.534 157.399<289.305 438.229> 481.011 20G<44.5 245.5>
VStem: 44.5 201<0 501.011> 350.277 201<0 341.891>
AnchorPoint: "Anchor-0" 295 501.011 basechar 0
AnchorPoint: "Anchor-2" 305 0 basechar 0
LayerCount: 2
Fore
SplineSet
245.5 294 m 1xd8
 201 303.561523438 l 1
 220.557319383 447.079217751 266.931999449 510.93359375 382.5 510.93359375 c 4
 493.958392135 510.93359375 551.27734375 444.084682028 551.27734375 304.561523438 c 2
 551.27734375 0 l 1
 350.27734375 0 l 1
 350.27734375 297.561523438 l 2
 350.27734375 333.01834016 334.989985297 353.534179688 299 353.534179688 c 0
 261.522937243 353.534179688 245.5 329.699880216 245.5 294 c 1xd8
44.5 0 m 1
 44.5 501.010742188 l 1
 245.5 501.010742188 l 1xb8
 245.5 0 l 1
 44.5 0 l 1
EndSplineSet
Validated: 5
EndChar

StartChar: m
Encoding: 109 109 31
Width: 882
Flags: W
HStem: 0 21G<44.5 245.5 340.777 541.777 637.055 838.055> 353.534 157.399<286.733 431.911 561.404 728.188> 481.011 20G<44.5 245.5>
VStem: 44.5 201<0 501.011> 340.777 201<0 336.684> 637.055 201<0 344.414>
CounterMasks: 1 1c
AnchorPoint: "Anchor-0" 454 501.011 basechar 0
AnchorPoint: "Anchor-2" 445 0 basechar 0
LayerCount: 2
Fore
SplineSet
541.77734375 294 m 1xdc
 455.27734375 303.561523438 l 1
 478.848493143 447.079217751 534.740841708 510.93359375 674.02734375 510.93359375 c 4
 782.348896835 510.93359375 838.0546875 447.323924219 838.0546875 314.561523438 c 2
 838.0546875 0 l 1
 637.0546875 0 l 1
 637.0546875 307.561523438 l 2
 637.0546875 336.683672646 621.618263617 353.534179688 585.27734375 353.534179688 c 0
 554.805339452 353.534179688 541.77734375 329.699880215 541.77734375 294 c 1xdc
245.5 294 m 1
 201 303.561523438 l 1
 220.04548871 447.079217751 265.20650635 510.93359375 377.75 510.93359375 c 4
 486.071553085 510.93359375 541.77734375 450.56316641 541.77734375 324.561523438 c 2
 541.77734375 0 l 1
 340.77734375 0 l 1
 340.77734375 307.561523438 l 2
 340.77734375 336.683672646 325.340919867 353.534179688 289 353.534179688 c 0
 258.527995702 353.534179688 245.5 329.699880216 245.5 294 c 1
44.5 0 m 1
 44.5 501.010742188 l 1
 245.5 501.010742188 l 1xbc
 245.5 0 l 1
 44.5 0 l 1
EndSplineSet
Validated: 5
EndChar

StartChar: p
Encoding: 112 112 32
Width: 602
Flags: W
HStem: -9.99805 160.612<258.604 423.748> 351.134 159.8<272.841 426.62> 481.011 20G<44.5 245.5>
VStem: 44.5 201<-180 501.011> 157.651 87.8486<66.4394 183.562> 182.651 62.8486<283.562 425.747> 372.08 207.349<173.777 330.288>
AnchorPoint: "Anchor-0" 294 501.011 basechar 0
AnchorPoint: "Anchor-2" 136 -179.988 basechar 0
LayerCount: 2
Fore
SplineSet
44.5 -180 m 1xb2
 44.5 501.010742188 l 1
 245.5 501.010742188 l 1
 245.5 -180 l 1
 44.5 -180 l 1xb2
245.5 213.561523438 m 1
 245.5 182.893986861 263.451808286 150.614257812 305.440429688 150.614257812 c 4
 352.121892988 150.614257812 372.080078125 191.828833569 372.080078125 253.561523438 c 0
 372.080078125 312.071075654 352.155235111 351.133789062 305.551757812 351.133789062 c 4
 263.485150408 351.133789062 245.5 324.081470152 245.5 283.561523438 c 1xd2
 182.651367188 283.561523438 l 1xc6
 182.651367188 425.746590474 250.698387054 510.93359375 355.5 510.93359375 c 0
 497.740588621 510.93359375 579.428710938 409.296356709 579.428710938 253.561523438 c 0
 579.428710938 94.0826581132 493.956780902 -9.998046875 353.540039062 -9.998046875 c 0
 231.771874064 -9.998046875 157.651367188 66.4393843716 157.651367188 183.561523438 c 1xca
 245.5 213.561523438 l 1
EndSplineSet
Validated: 5
EndChar

StartChar: j
Encoding: 106 106 33
Width: 269
Flags: W
HStem: -190 158.95<-89.5194 16.6347> 481.011 20G<34 235> 542.551 228.449<63.9094 205.09>
VStem: 20.8867 227.227<585.805 727.745> 34 201<-12.1193 501.011>
AnchorPoint: "Anchor-2" 17 -179.988 basechar 0
LayerCount: 2
Fore
SplineSet
34 50.9 m 2xe8
 34 501.010742188 l 1
 235 501.010742188 l 1
 235 52.5 l 2
 235 -93.4597156399 168.02586207 -190 6.5 -190 c 0
 -53.5002947551 -190 -95 -176.099609375 -95 -176.099609375 c 5
 -89 -21.1 l 1
 -89 -21.1 -65.5178349421 -31.05 -32.65 -31.05 c 0
 14.2751147461 -31.05 34 -6.36626506037 34 50.9 c 2xe8
20.88671875 656.775390625 m 0xf0
 20.88671875 725.97450576 65.6697922 771 134.499023438 771 c 0
 203.329172925 771 248.11328125 725.97450576 248.11328125 656.775390625 c 0
 248.11328125 587.5750253 203.329172925 542.55078125 134.499023438 542.55078125 c 0
 65.6697922 542.55078125 20.88671875 587.5750253 20.88671875 656.775390625 c 0xf0
EndSplineSet
Validated: 1
EndChar

StartChar: k
Encoding: 107 107 34
Width: 555
Flags: W
HStem: 0 21G<44.5 245.5 330.46 586.5> 200.5 111<160 243> 481.011 20G<326.32 576.5> 731.002 20G<44.5 245.5>
VStem: 44.5 201<0 200.5 311.5 751.002> 160 85.5<200.5 311.5>
AnchorPoint: "Anchor-0" 134 749.002 basechar 0
AnchorPoint: "Anchor-2" 275 0 basechar 0
LayerCount: 2
Fore
SplineSet
243 311.5 m 1xf4
 243 200.5 l 1
 160 200.5 l 1
 160 311.5 l 1
 243 311.5 l 1xf4
340.150390625 0 m 1
 243 200.5 l 1
 243 311.5 l 1
 336.150390625 501.010742188 l 1
 576.5 501.010742188 l 1
 408 259.349609375 l 5
 586.5 0 l 1
 340.150390625 0 l 1
44.5 0 m 1xf8
 44.5 751.001953125 l 1
 245.5 751.001953125 l 1
 245.5 0 l 1
 44.5 0 l 1xf8
EndSplineSet
Validated: 5
EndChar

StartChar: l
Encoding: 108 108 35
Width: 371
Flags: W
HStem: -10.0088 154.75<166.543 336.706> 731.002 20G<34 235>
VStem: 34 201<155.64 751.002>
AnchorPoint: "Anchor-0" 134 749.002 basechar 0
AnchorPoint: "Anchor-2" 240 0 basechar 0
LayerCount: 2
Fore
SplineSet
235 212.991210938 m 2
 235 165.298439853 251.573046875 144.741210938 291 144.741210938 c 0
 316.868473464 144.741210938 335.35 153.691210938 335.35 153.691210938 c 1
 349.35 3.9412109375 l 1
 349.35 3.9412109375 304.231847549 -10.0087890625 239 -10.0087890625 c 0
 94.0862068963 -10.0087890625 34 66.4272298946 34 181.991210938 c 2
 34 751.001953125 l 1
 235 751.001953125 l 1
 235 212.991210938 l 2
EndSplineSet
Validated: 1
EndChar

StartChar: h
Encoding: 104 104 36
Width: 595
Flags: W
HStem: 0 21G<44.5 245.5 350.277 551.277> 353.534 157.399<289.305 438.229> 731.002 20G<44.5 245.5>
VStem: 44.5 201<0 751.002> 350.277 201<0 341.891>
AnchorPoint: "Anchor-0" 134 751.004 basechar 0
AnchorPoint: "Anchor-2" 299 0 basechar 0
LayerCount: 2
Fore
SplineSet
44.5 0 m 1
 44.5 751.001953125 l 1
 245.5 751.001953125 l 1
 245.5 0 l 1
 44.5 0 l 1
245.5 294 m 9
 201 303.561523438 l 17
 220.557319383 447.079217751 266.931999449 510.93359375 382.5 510.93359375 c 4
 493.958392135 510.93359375 551.27734375 444.084682028 551.27734375 304.561523438 c 2
 551.27734375 0 l 1
 350.27734375 0 l 1
 350.27734375 297.561523438 l 2
 350.27734375 333.01834016 334.989985297 353.534179688 299 353.534179688 c 0
 261.522937243 353.534179688 245.5 329.699880216 245.5 294 c 9
EndSplineSet
Validated: 5
EndChar

StartChar: q
Encoding: 113 113 37
Width: 602
Flags: W
HStem: -9.99805 160.612<183.252 332.284> 351.134 159.799<180.38 324.803> 481.011 20G<361.5 562.5>
VStem: 27.5713 207.349<173.776 330.288> 361.5 201<-180 501.011> 361.5 46.8486<66.4394 183.562 293.562 429.493>
AnchorPoint: "Anchor-0" 308 501.011 basechar 0
AnchorPoint: "Anchor-2" 477 -179.988 basechar 0
LayerCount: 2
Fore
SplineSet
562.5 -180 m 1xb8
 361.5 -180 l 1
 361.5 501.010742188 l 1
 562.5 501.010742188 l 1
 562.5 -180 l 1xb8
361.5 205.561523438 m 1
 408.348632812 183.561523438 l 1xd4
 408.348632812 66.4393843718 349.741737585 -9.998046875 253.459960938 -9.998046875 c 0
 113.043219098 -9.998046875 27.5712890625 94.082658113 27.5712890625 253.561523438 c 0
 27.5712890625 409.296356709 109.259411379 510.93359375 251.5 510.93359375 c 0
 343.568889313 510.93359375 403.348632812 429.493180948 403.348632812 293.561523438 c 5
 361.5 285.561523438 l 5
 361.5 324.882397358 343.365219506 351.134179688 300.948632812 351.134179688 c 0xd8
 254.695134802 351.134179688 234.919921875 312.071309893 234.919921875 253.561523438 c 0
 234.919921875 191.828599329 254.728476925 150.613867188 301.059960938 150.613867188 c 0
 343.398561629 150.613867188 361.5 178.791349369 361.5 205.561523438 c 1
EndSplineSet
Validated: 5
EndChar

StartChar: g
Encoding: 103 103 38
Width: 602
Flags: W
HStem: -190 156.4<142.217 339.158> 20.002 155.912<181.511 324.884> 345.584 165.349<171.299 322.007> 481.011 20G<361.5 562.5>
VStem: 27.5713 196.849<195.825 324.497> 361.5 201<-10.9743 39 223.562 501.011> 361.5 46.8486<100.388 223.562 335.562 445.229>
AnchorPoint: "Anchor-0" 308 501.011 basechar 0
AnchorPoint: "Anchor-2" 295 -179.988 basechar 0
LayerCount: 2
Fore
SplineSet
361.5 39 m 2xdc
 361.5 501.010742188 l 1
 562.5 501.010742188 l 1
 562.5 31 l 2
 562.5 -102.018957346 475.695110452 -190 286.6 -190 c 0
 146.205171612 -190 55.4 -144 55.4 -144 c 1
 97.8 8.3 l 1
 97.8 8.3 165.693031664 -33.6 266.6 -33.6 c 0
 327.500869141 -33.6 361.5 -11.7325301206 361.5 39 c 2xdc
361.5 235.561523438 m 1
 408.348632812 223.561523438 l 1xea
 408.348632812 100.388423477 347.084987688 20.001953125 243.459960938 20.001953125 c 0
 119.75941138 20.001953125 27.5712890625 115.39477208 27.5712890625 261.561523438 c 0
 27.5712890625 412.455587994 112.098711858 510.93359375 230.5 510.93359375 c 0
 336.489542485 510.93359375 403.348632812 445.228860941 403.348632812 335.561523438 c 1
 361.5 285.561523438 l 1
 361.5 321.554320341 340.180170907 345.584179688 294.848632812 345.584179688 c 0xec
 245.51290908 345.584179688 224.419921875 310.684913319 224.419921875 258.411523438 c 0
 224.419921875 208.941513747 246.744227819 175.913867188 298.959960938 175.913867188 c 0
 342.769623905 175.913867188 361.5 206.501537089 361.5 235.561523438 c 1
EndSplineSet
Validated: 5
Substitution2: "'ss14' Style Set 14 lookup 19-1" g.ss14
EndChar

StartChar: f
Encoding: 102 102 39
Width: 398
Flags: W
HStem: 0 21G<74 275> 336.25 164.761<3.5 392.5> 613.211 147.8<211.924 409.009>
VStem: 74 201<0 600.165>
AnchorPoint: "Anchor-0" 296 752.002 basechar 0
AnchorPoint: "Anchor-2" 173 0 basechar 0
LayerCount: 2
Fore
SplineSet
3.5 501.010742188 m 1
 392.5 501.010742188 l 1
 392.5 336.25 l 1
 3.5 336.25 l 1
 3.5 501.010742188 l 1
275 536.010742188 m 2
 275 0 l 1
 74 0 l 1
 74 549.010742188 l 2
 74 676.612447848 137.896365404 761.010742188 292 761.010742188 c 0
 368.84765625 761.010742188 422 745.010742188 422 745.010742188 c 1
 408 602.210742188 l 1
 408 602.210742188 374.662109375 613.210742188 328 613.210742188 c 0
 290.685414906 613.210742188 275 589.957381744 275 536.010742188 c 2
EndSplineSet
Validated: 5
EndChar

StartChar: c
Encoding: 99 99 40
Width: 492
Flags: W
HStem: -9.99805 171.262<258.002 408.04> 345.484 165.449<259.32 397.905>
VStem: 24.5 206.999<187.433 318.057>
AnchorPoint: "Anchor-0" 291 501.011 basechar 0
AnchorPoint: "Anchor-2" 297 0 basechar 0
LayerCount: 2
Fore
SplineSet
24.5 253.561523438 m 0
 24.5 409.296356709 114.766693654 510.93359375 284.638671875 510.93359375 c 0
 405.072631443 510.93359375 454.58203125 471.904296875 454.58203125 471.904296875 c 5
 414.405273438 310.500976562 l 1
 414.405273438 310.500976562 383.933700896 345.484375 322.150390625 345.484375 c 0
 258.648304334 345.484375 231.498632812 308.683384643 231.498632812 253.561523438 c 0
 231.498632812 198.214792162 257.297070944 161.263671875 317.638671875 161.263671875 c 0
 386.367161539 161.263671875 422.768554688 191.595703125 422.768554688 191.595703125 c 1
 455.577148438 28.595703125 l 1
 455.577148438 28.595703125 395.680581031 -9.998046875 291.638671875 -9.998046875 c 0
 117.419763389 -9.998046875 24.5 94.0826581133 24.5 253.561523438 c 0
EndSplineSet
Validated: 1
Substitution2: "'ss12' Style Set 12 lookup 13-1" c.ss12
EndChar

StartChar: t
Encoding: 116 116 41
Width: 412
Flags: W
HStem: -10 158.75<197.36 372.664> 335.2 165.811<3.5 392.5>
VStem: 74 201<159.447 648.911>
AnchorPoint: "Anchor-0" 173 660 basechar 0
AnchorPoint: "Anchor-2" 208 0.0117188 basechar 0
LayerCount: 2
Fore
SplineSet
3.5 501.010742188 m 1
 392.5 501.010742188 l 1
 392.5 335.2 l 1
 3.5 335.2 l 1
 3.5 501.010742188 l 1
275 217.5 m 2
 275 169.458141589 293.467472024 148.75 337.400390625 148.75 c 0
 349.970434038 148.75 371.150390625 159.75 371.150390625 159.75 c 1
 387.25 6 l 1
 387.25 6 344.217044771 -10 282 -10 c 0
 112.719350162 -10 74 70.6162953002 74 192.5 c 2
 74 648.910742188 l 1
 275 673.110742188 l 1
 275 217.5 l 2
EndSplineSet
Validated: 5
Substitution2: "'ss11' Style Set 11 lookup 12-1" t.ss11
EndChar

StartChar: r
Encoding: 114 114 42
Width: 420
Flags: W
HStem: 0 21G<44.5 245.5> 329.284 181.649<280.189 406.247> 481.011 20G<44.5 245.5>
VStem: 44.5 201<0 501.011>
AnchorPoint: "Anchor-0" 235 501.011 basechar 0
AnchorPoint: "Anchor-2" 172 0.0117188 basechar 0
LayerCount: 2
Fore
SplineSet
44.5 0 m 1xb0
 44.5 501.010742188 l 1
 245.5 501.010742188 l 1
 245.5 0 l 1
 44.5 0 l 1xb0
353 510.93359375 m 0xd0
 412.619945205 510.93359375 429.6 484.93359375 429.6 484.93359375 c 1
 403.6 307.93359375 l 1
 403.6 307.93359375 373.877923806 329.284179688 328.5 329.284179688 c 4
 276.34475773 329.284179688 245.5 303.799330892 245.5 254 c 1
 201 263.561523438 l 1
 217.298294357 434.762346747 255.945113569 510.93359375 353 510.93359375 c 0xd0
EndSplineSet
Validated: 5
EndChar

StartChar: e
Encoding: 101 101 43
Width: 551
Flags: W
HStem: -9.99805 164.912<249.444 439.12> 198.5 107.05<140.15 333.45> 360.834 150.1<236.039 322.748>
VStem: 140.15 78.0482<198.5 305.55>
AnchorPoint: "Anchor-0" 289 501.011 basechar 0
AnchorPoint: "Anchor-2" 302 0 basechar 0
AnchorPoint: "Anchor-3" 409 14 basechar 0
LayerCount: 2
Back
SplineSet
24.5 273.561523438 m 4
 24.5 441.398278497 131.728824423 550.93359375 307.888671875 550.93359375 c 4
 512.753073582 550.93359375 576.965820312 407.32523614 576.965820312 265.111328125 c 4
 576.965820312 236.334960938 572.5 218.5 572.5 218.5 c 5
 140.150390625 218.5 l 5
 140.150390625 320.549804688 l 5
 373.450195312 322.650390625 l 5
 373.450195312 322.650390625 373.01953125 334.297851562 369.318359375 343.135742188 c 4
 357.820099302 375.150046292 339.850524508 395.833984375 297 395.833984375 c 4
 240.474411618 395.833984375 218.198242188 350.906181121 218.198242188 283.611328125 c 4
 218.198242188 199.512909247 251.59161836 154.9140625 336.650390625 154.9140625 c 4
 436.6712232 154.9140625 493.668945312 183.045898438 493.668945312 183.045898438 c 5
 526.827148438 16.5458984375 l 5
 526.827148438 16.5458984375 459.98874038 -9.998046875 343.888671875 -9.998046875 c 4
 123.238992165 -9.998046875 24.5 101.980736325 24.5 273.561523438 c 4
EndSplineSet
Fore
SplineSet
24.5 253.561523438 m 0
 24.5 409.296356709 124.161208984 510.93359375 287.888671875 510.93359375 c 0
 477.525886666 510.93359375 536.965820312 377.374023438 536.965820312 245.111328125 c 0
 536.965820312 216.334960938 532.5 198.5 532.5 198.5 c 1
 140.150390625 198.5 l 1
 140.150390625 305.549804688 l 5
 333.450195312 307.650390625 l 5
 333.450195312 307.650390625 333.01953125 319.297851562 329.318359375 328.135742188 c 4
 321 348 308 360.833984375 277 360.833984375 c 4
 234.820967828 360.833984375 218.198632812 321.911437513 218.198632812 263.611523438 c 0
 218.198632812 192.582034334 245.953499081 154.913867188 316.65 154.913867188 c 0
 403.930830889 154.913867188 453.668554688 183.045703125 453.668554688 183.045703125 c 1
 486.827148438 16.545703125 l 1
 486.827148438 16.545703125 427.295941065 -9.998046875 323.888671875 -9.998046875 c 0
 117.055993151 -9.998046875 24.5 94.0826581133 24.5 253.561523438 c 0
EndSplineSet
Validated: 5
Substitution2: "'ss03' Style Set 3 lookup 4-1" e.ss03
EndChar

StartChar: d
Encoding: 100 100 44
Width: 602
Flags: W
HStem: -9.99805 159.8<173.897 328.897> 0 21G<361.5 562.5> 350.321 160.612<256.054 350.02> 731.002 20G<361.5 562.5>
VStem: 27.5713 207.349<170.904 327.54> 361.5 201<217.374 751.002> 361.5 78.3486<317.374 434.496> 361.5 62.8486<75.1885 217.374>
AnchorPoint: "Anchor-0" 473 750.002 basechar 0
AnchorPoint: "Anchor-2" 316 0 basechar 0
LayerCount: 2
Fore
SplineSet
562.5 0 m 1x7c
 361.5 0 l 1x79
 361.5 751.001953125 l 1
 562.5 751.001953125 l 1
 562.5 0 l 1x7c
361.5 295.374023438 m 1xbc
 361.5 322.144160837 343.473561044 350.321289062 301.309570312 350.321289062 c 0
 254.803494716 350.321289062 234.919921875 309.106945946 234.919921875 247.374023438 c 0
 234.919921875 188.86463791 254.769628375 149.801757812 301.198242188 149.801757812 c 0
 343.439682642 149.801757812 361.5 180.057010302 361.5 225.374023438 c 1xbc
 424.348632812 217.374023438 l 1xb9
 424.348632812 75.1884765623 352.561507007 -9.998046875 242 -9.998046875 c 0
 105.794196051 -9.998046875 27.5712890625 95.5887053493 27.5712890625 257.374023438 c 0
 27.5712890625 410.801591436 117.015955218 510.93359375 263.959960938 510.93359375 c 0
 373.295620069 510.93359375 439.848632812 434.49609375 439.848632812 317.374023438 c 1xba
 361.5 295.374023438 l 1xbc
EndSplineSet
Validated: 5
Substitution2: "'ss05' Style Set 5 lookup 6-1" d.ss05
EndChar

StartChar: b
Encoding: 98 98 45
Width: 602
Flags: W
HStem: -9.99805 159.799<269.984 433.785> 0 21G<44.5 245.5> 350.322 160.612<262.442 350.19> 731.002 20G<44.5 245.5>
VStem: 44.5 201<197.374 751.002> 182.651 62.8486<55.1885 197.374 297.374 424.496> 372.08 207.349<171.349 326.419>
AnchorPoint: "Anchor-0" 134 749.002 basechar 0
AnchorPoint: "Anchor-2" 296 0 basechar 0
LayerCount: 2
Fore
SplineSet
44.5 0 m 1x7a
 44.5 751.001953125 l 1
 245.5 751.001953125 l 1x7a
 245.5 0 l 1x76
 44.5 0 l 1x7a
245.5 295.374023438 m 1
 177.651367188 297.374023438 l 1
 177.651367188 424.49609375 240.231374585 510.93359375 343.040039062 510.93359375 c 0
 489.984044782 510.93359375 579.428710938 406.852539062 579.428710938 247.374023438 c 0
 579.428710938 91.6396484379 501.570600748 -9.998046875 366 -9.998046875 c 0
 254.83217363 -9.998046875 182.651367188 55.1884765623 182.651367188 197.374023438 c 1xb6
 245.5 225.374023438 l 1
 245.5 180.056776063 262.062705267 149.801367188 300.801367188 149.801367188 c 0xba
 350.732803705 149.801367188 372.080078125 188.864403672 372.080078125 247.374023438 c 0
 372.080078125 309.107180187 350.698897847 350.321679688 300.690039062 350.321679688 c 0
 262.028871372 350.321679688 245.5 322.144351149 245.5 295.374023438 c 1
EndSplineSet
Validated: 5
EndChar

StartChar: a
Encoding: 97 97 46
Width: 566
Flags: W
HStem: -9.99805 157.598<398.858 557.839> -9.99805 138.512<129.603 271.975> 212.184 97.7494<231.995 318.577> 348.411 162.6<140.06 292.559>
VStem: 24.75 198.699<132.524 200.471> 302.729 34.0986<49.2611 140.062> 302.729 15.8486<212.184 309.934>
AnchorPoint: "Anchor-0" 274 501.011 basechar 0
AnchorPoint: "Anchor-2" 284 0 basechar 0
AnchorPoint: "Anchor-3" 458 0 basechar 0
LayerCount: 2
Back
SplineSet
347.928710938 177.561523438 m 1x7c
 397.77734375 180.561523438 l 1x7a
 397.77734375 65.2546726396 333.443566636 -9.998046875 197.888671875 -9.998046875 c 0
 93.5258452633 -9.998046875 30 50 30 141 c 0
 30 286.71747631 169.159368499 309.798279039 363.928710938 309.93359375 c 1
 363.77734375 224.284179688 l 1x79
 204.9215174 224.170106541 154.848632812 210.544945242 154.848632812 148.561523438 c 0
 154.848632812 111.324445486 179.419144912 86.4638671875 236.888671875 86.4638671875 c 0
 303.711369303 86.4638671875 347.928710938 123.027306191 347.928710938 177.561523438 c 1x7c
347.928710938 299.010742188 m 2xbc
 347.928710938 377.97408765 315.670027449 412.010742188 238.928710938 412.010742188 c 0
 160.769677734 412.010742188 104.928710938 368.010742188 104.928710938 368.010742188 c 5
 69.9287109375 467.010742188 l 5
 69.9287109375 467.010742188 149.657226562 511.010742188 264.928710938 511.010742188 c 0
 407.721987032 511.010742188 466.928710938 427.01055301 466.928710938 300.010742188 c 2
 466.928710938 118 l 2
 466.928710938 93.251950046 475.36431245 84 497.928710938 84 c 0
 515.694039812 84 526.928710938 91 526.928710938 91 c 1
 535.928710938 13 l 1
 535.928710938 13 510.8653569 -9.998046875 457.928710938 -9.998046875 c 0
 384.082557091 -9.998046875 347.928710938 33 347.928710938 125 c 2
 347.928710938 299.010742188 l 2xbc
EndSplineSet
Fore
SplineSet
302.728515625 167.561523438 m 1x7a
 336.82734375 140.061523438 l 1x7c
 336.82734375 49.2610642613 285.351395804 -9.998046875 176.888671875 -9.998046875 c 0
 82.3163481054 -9.998046875 24.75 50 24.75 141 c 0
 24.75 286.71747631 157.29993659 309.798279039 318.728710938 309.93359375 c 1
 318.57734375 212.184179688 l 1
 266.957237811 212.117635351 223.448632812 204.169425446 223.448632812 168.011523438 c 0
 223.448632812 144.326497846 237.312111912 128.513671875 268 128.513671875 c 0
 289.591448344 128.513671875 302.728515625 144.186124907 302.728515625 167.561523438 c 1x7a
302.728710938 289.010742188 m 2xba
 302.728710938 330.518907856 281.730971548 348.410742188 231.778710938 348.410742188 c 0
 166.743395996 348.410742188 120.278710938 315.560742188 120.278710938 315.560742188 c 1
 64.6787109375 467.010742188 l 1
 64.6787109375 467.010742188 144.918306791 511.010742188 260.928710938 511.010742188 c 0
 435.532370319 511.010742188 507.928710938 427.01055301 507.928710938 300.010742188 c 2
 507.928710938 171.1 l 2
 507.928710938 153.994730179 515.792868476 147.6 536.828710938 147.6 c 0
 549.448220415 147.6 557.428710938 151.45 557.428710938 151.45 c 1
 566.428710938 14.05 l 1
 566.428710938 14.05 528.191029779 -9.998046875 447.428710938 -9.998046875 c 0
 350.287452197 -9.998046875 302.728710938 33 302.728710938 125 c 2xbc
 302.728710938 289.010742188 l 2xba
EndSplineSet
Validated: 5
Substitution2: "'ss15' Style Set 15 lookup 20-1" a.ss15
Substitution2: "'ss02' Style Set 2 lookup 3-1" a.ss02
EndChar

StartChar: plus
Encoding: 43 43 47
Width: 450
Flags: W
HStem: 279.25 157.5<20 430>
VStem: 146.25 157.5<153 563>
LayerCount: 2
Fore
SplineSet
303.75 563 m 1
 303.75 153 l 1
 146.25 153 l 1
 146.25 563 l 1
 303.75 563 l 1
430 279.25 m 5
 20 279.25 l 1
 20 436.75 l 1
 430 436.75 l 5
 430 279.25 l 5
EndSplineSet
Validated: 5
EndChar

StartChar: s
Encoding: 115 115 48
Width: 476
Flags: W
HStem: -9.99805 145.979<86.807 236.761> 366.805 144.129<248.551 391.873>
AnchorPoint: "Anchor-0" 257 501.011 basechar 0
AnchorPoint: "Anchor-2" 235 0.0117188 basechar 0
LayerCount: 2
Fore
SplineSet
194.696289062 175.41796875 m 4
 70.0541603951 209.567001215 34.8541015625 263.601252166 34.8541015625 350.9 c 0
 34.8541015625 450.589992426 120.865356833 510.93359375 262.167578125 510.93359375 c 0
 385.166877193 510.93359375 444.984960938 469.025585938 444.984960938 469.025585938 c 1
 416.344726562 334.043945312 l 1
 416.344726562 334.043945312 361.553551935 366.8046875 280.79296875 366.8046875 c 0
 258.180893795 366.8046875 248.01171875 361.259901093 248.01171875 352.318359375 c 0
 248.01171875 342.498038156 253.389684708 336.191199378 272.13671875 330.88671875 c 4
 424.189713175 287.8632644 452.189453125 240.874438665 452.189453125 147.50234375 c 0
 452.189453125 50.4366533799 374.085961824 -9.998046875 227.856445312 -9.998046875 c 0
 101.557266741 -9.998046875 21.5 30.7625 21.5 30.7625 c 1
 44.314453125 176.161328125 l 1
 44.314453125 176.161328125 115.935015781 135.981445312 203.743164062 135.981445312 c 0
 227.54047491 135.981445312 238.870117188 140.49073319 238.870117188 149.237304688 c 0
 238.870117188 161.237690807 231.240673265 165.405660906 194.696289062 175.41796875 c 4
EndSplineSet
Validated: 524289
EndChar

StartChar: y
Encoding: 121 121 49
Width: 539
Flags: W
HStem: 481.011 20G<-5.5 216.37 323.688 544.5>
AnchorPoint: "Anchor-0" 277 501.011 basechar 0
AnchorPoint: "Anchor-2" 192 -179.994 basechar 0
LayerCount: 2
Fore
SplineSet
167.95 48.3 m 1
 -5.5 501.010742188 l 1
 210.75 501.010742188 l 1
 275.606445312 270.194335938 l 1
 328.25 501.010742188 l 1
 544.5 501.010742188 l 1
 297 -179.994140625 l 1
 66.55 -179.994140625 l 1
 167.95 48.3 l 1
EndSplineSet
Validated: 1
Substitution2: "'ss04' Style Set 4 lookup 5-1" y.ss04
EndChar

StartChar: u
Encoding: 117 117 50
Width: 595
Flags: W
HStem: -9.92285 157.399<157.548 306.472> 0 21G<350.277 551.277> 481.011 20G<44.5 245.5 350.277 551.277>
VStem: 44.5 201<159.12 501.011> 350.277 201<197.449 501.011>
AnchorPoint: "Anchor-0" 302 501.011 basechar 0
AnchorPoint: "Anchor-2" 312 0.0117188 basechar 0
AnchorPoint: "Anchor-3" 464 0 basechar 0
LayerCount: 2
Fore
SplineSet
350.27734375 207.010742188 m 1xb8
 394.77734375 197.44921875 l 1
 375.220024367 53.9315244366 328.845344301 -9.9228515625 213.27734375 -9.9228515625 c 4
 101.818951615 -9.9228515625 44.5 56.9260601597 44.5 196.44921875 c 2
 44.5 501.010742188 l 1
 245.5 501.010742188 l 1
 245.5 203.44921875 l 2
 245.5 167.992402027 260.787358453 147.4765625 296.77734375 147.4765625 c 0
 334.254406507 147.4765625 350.27734375 171.310861974 350.27734375 207.010742188 c 1xb8
551.27734375 501.010742188 m 1
 551.27734375 0 l 1
 350.27734375 0 l 1x78
 350.27734375 501.010742188 l 1
 551.27734375 501.010742188 l 1
EndSplineSet
Validated: 5
Substitution2: "'ss05' Style Set 5 lookup 6-1" u.ss05
EndChar

StartChar: backslash
Encoding: 92 92 51
Width: 434
Flags: W
LayerCount: 2
Fore
SplineSet
269.25 -171.469726562 m 1
 -5.75 761.403320312 l 1
 164.75 761.403320312 l 1
 439.75 -171.469726562 l 1
 269.25 -171.469726562 l 1
EndSplineSet
Validated: 1
EndChar

StartChar: equal
Encoding: 61 61 52
Width: 450
Flags: W
HStem: 199.25 147.5<20 430> 369.25 147.5<20 430>
VStem: 20 410<199.25 346.75 369.25 516.75>
LayerCount: 2
Back
SplineSet
420 285 m 5xea
 30 285 l 5
 30 431 l 5
 420 431 l 5
 420 285 l 5xea
EndSplineSet
Fore
SplineSet
430 199.25 m 5
 20 199.25 l 5
 20 346.75 l 5
 430 346.75 l 5
 430 199.25 l 5
430 369.25 m 5
 20 369.25 l 5
 20 516.75 l 5
 430 516.75 l 5
 430 369.25 l 5
EndSplineSet
Validated: 1
EndChar

StartChar: v
Encoding: 118 118 53
Width: 539
Flags: W
HStem: 0 21G<137.552 411.049> 481.011 20G<-5.5 214.693 324.822 544.5>
AnchorPoint: "Anchor-0" 272 501.011 basechar 0
AnchorPoint: "Anchor-2" 273 0.0117188 basechar 0
LayerCount: 2
Fore
SplineSet
143.5 0 m 1
 -5.5 501.010742188 l 1
 210.75 501.010742188 l 1
 273.606445312 182.194335938 l 1
 328.25 501.010742188 l 1
 544.5 501.010742188 l 1
 405.5 0 l 1
 143.5 0 l 1
EndSplineSet
Validated: 1
EndChar

StartChar: w
Encoding: 119 119 54
Width: 735
Flags: W
HStem: 0 21G<82.8274 326.585 407.506 651.212> 481.011 20G<-5.5 204.41 530.59 740.5>
AnchorPoint: "Anchor-0" 368 501.011 basechar 0
AnchorPoint: "Anchor-2" 370 0 basechar 0
LayerCount: 2
Fore
SplineSet
86.5 0 m 1
 -5.5 501.010742188 l 1
 201.75 501.010742188 l 1
 237.106445312 235.194335938 l 1
 278.5 451.010742188 l 1
 456.5 451.010742188 l 1
 497.893554688 235.194335938 l 1
 533.25 501.010742188 l 1
 740.5 501.010742188 l 1
 647.5 0 l 1
 411.5 0 l 5
 367.5 220.341796875 l 1
 322.5 0 l 1
 86.5 0 l 1
EndSplineSet
Validated: 1
EndChar

StartChar: x
Encoding: 120 120 55
Width: 528
Flags: W
HStem: 0 21G<-15.5 222.24 305.76 543.5> 481.011 20G<-3.9 233.672 294.328 531.9>
VStem: 241.5 45<191.6 326.24>
AnchorPoint: "Anchor-0" 266 501.011 basechar 0
AnchorPoint: "Anchor-2" 267 0 basechar 0
LayerCount: 2
Fore
SplineSet
214.75 0 m 1
 -15.5 0 l 1
 132.5 263.099609375 l 1
 -3.9 501.010742188 l 1
 227.75 501.010742188 l 1
 286.5 302.599609375 l 1
 286.5 191.599609375 l 1
 214.75 0 l 1
313.25 0 m 5
 241.5 191.599609375 l 1
 241.5 302.599609375 l 1
 300.25 501.010742188 l 1
 531.9 501.010742188 l 1
 395.5 263.099609375 l 1
 543.5 0 l 5
 313.25 0 l 5
EndSplineSet
Validated: 5
EndChar

StartChar: z
Encoding: 122 122 56
Width: 478
Flags: W
HStem: 0 21G<19.5 458.5> 481.011 20G<29.5 448.5>
AnchorPoint: "Anchor-0" 240 501.011 basechar 0
AnchorPoint: "Anchor-2" 246 0 basechar 0
LayerCount: 2
Fore
SplineSet
458.5 0 m 1
 19.5 0 l 1
 19.5 96 l 1
 183.150390625 327.2109375 l 1
 183.150390625 327.2109375 29.5 327.2109375 29.5 327.210742188 c 1
 29.5 501.010742188 l 1
 448.5 501.010742188 l 1
 448.5 405.010742188 l 1
 295.349609375 173.799804688 l 5
 295.349609375 173.799804688 458.5 173.799804688 458.5 173.8 c 1
 458.5 0 l 1
EndSplineSet
Validated: 1
EndChar

StartChar: period
Encoding: 46 46 57
Width: 245
Flags: W
HStem: -10 228.449<52.0229 193.203>
VStem: 9 227.227<33.2547 175.194>
LayerCount: 2
Fore
SplineSet
9 104.224609375 m 0
 9 173.423218344 53.7836260226 218.44921875 122.612304688 218.44921875 c 0
 191.44191305 218.44921875 236.2265625 173.423218344 236.2265625 104.224609375 c 0
 236.2265625 35.0248038609 191.44191305 -10 122.612304688 -10 c 0
 53.7836260224 -10 9 35.0248038609 9 104.224609375 c 0
EndSplineSet
Validated: 1
EndChar

StartChar: two
Encoding: 50 50 58
Width: 608
Flags: W
HStem: 0 21G<48 589.049> 551.799 187.193<169.563 338.762>
VStem: 357.176 224.086<441.781 533.139>
LayerCount: 2
Fore
SplineSet
357.17578125 485.272460938 m 0
 357.17578125 525.109933849 334.33642894 551.798828125 267.328125 551.798828125 c 0
 177.711179884 551.798828125 113.538085938 497.954882812 113.538085938 497.954882812 c 1
 53.922265625 675.796875 l 1
 53.922265625 675.796875 148.719537792 738.9921875 286.69140625 738.9921875 c 0
 470.375222619 738.9921875 581.26171875 662.295898438 581.26171875 510.93359375 c 0
 581.26171875 369.369774872 500.030980181 302.126228945 359.374023438 236.0234375 c 0
 304 210 300.189479786 188.498929294 297.813476562 182.799804688 c 1
 297.813476562 182.799804688 589.048828125 182.799804688 589.048828125 182.8 c 1
 589.048828125 0 l 1
 48 0 l 1
 48 54 l 2
 48 220.506064898 135.969931896 316.764321199 298.821289062 410.676757812 c 0
 335.626692813 431.90154345 357.17578125 460.372692582 357.17578125 485.272460938 c 0
EndSplineSet
Validated: 1
Substitution2: "'frac' Diagonal Fractions in Latin lookup 26 subtable" two.numr
Substitution2: "'onum' Oldstyle Figures lookup 18-1" two.osf
Substitution2: "'tnum' Tabular Numbers lookup 17-1" two.tf
Substitution2: "'numr' Numerators lookup 0 subtable" two.numr
Substitution2: "'dnom' Denominators lookup 0 subtable" two.dnom
Substitution2: "'sups' Superscript lookup 0 subtable" two.superior
Substitution2: "'sinf' Scientific Inferiors lookup 0 subtable" two.inferior
Substitution2: "'sups' Superscript lookup 0 subtable" two.superior
EndChar

StartChar: three
Encoding: 51 51 59
Width: 589
Flags: W
HStem: -9.99805 181.987<124.987 318.533> 290.5 164.481<154.139 310.275> 510.955 21G<80.5767 86.3965> 552.549 186.443<127.485 311.514>
VStem: 320.084 229.486<468.437 541.274> 334.228 231.184<189.751 271.539>
LayerCount: 2
Fore
SplineSet
219.7890625 454.981445312 m 2xf4
 295.430522477 454.981445313 320.083984375 471.832347686 320.083984375 505.358398438 c 0
 320.083984375 532.1842174 303.719912515 552.548828125 250.537109375 552.548828125 c 0
 148.503140521 552.548828125 86.396484375 510.955078125 86.396484375 510.955078125 c 5
 35.78125 684.896484375 l 5
 35.78125 684.896484375 118.541867761 738.9921875 262 738.9921875 c 0
 440.042887942 738.9921875 549.5703125 667.857421875 549.5703125 532.868164062 c 0xf8
 549.5703125 412 438.613085938 375.697265625 438.613085938 375.697265625 c 1
 438.613085938 375.697265625 565.411132812 341 565.411132812 205.670898438 c 0
 565.411132812 51.6816406251 443.321368685 -9.998046875 260 -9.998046875 c 0
 106.664429 -9.998046875 15.451171875 40.9091796875 15.451171875 40.9091796875 c 1
 67.474609375 222.262695312 l 1
 67.474609375 222.262695312 136.939603837 171.989257812 245.900390625 171.989257812 c 0
 307.00157097 171.989257812 334.227539062 194.059143868 334.227539062 233.849609375 c 0
 334.227539062 271.776509625 294.877470048 290.01345925 219.7890625 290.237304688 c 2
 154 290.5 l 1
 154.138671875 454.981445312 l 1
 219.7890625 454.981445312 l 2xf4
EndSplineSet
Validated: 1
Substitution2: "'frac' Diagonal Fractions in Latin lookup 26 subtable" three.numr
Substitution2: "'onum' Oldstyle Figures lookup 18-1" three.osf
Substitution2: "'tnum' Tabular Numbers lookup 17-1" three.tf
Substitution2: "'numr' Numerators lookup 0 subtable" three.numr
Substitution2: "'dnom' Denominators lookup 0 subtable" three.dnom
Substitution2: "'sups' Superscript lookup 0 subtable" three.superior
Substitution2: "'sinf' Scientific Inferiors lookup 0 subtable" three.inferior
Substitution2: "'sups' Superscript lookup 0 subtable" three.superior
EndChar

StartChar: comma
Encoding: 44 44 61
Width: 252
Flags: W
VStem: 9 234.227<33.7668 169.872>
LayerCount: 2
Fore
SplineSet
9 104.224609375 m 0
 9 173.423218344 53.7836260226 218.44921875 122.612304688 218.44921875 c 0
 195.68264188 218.44921875 243.2265625 173.092363786 243.2265625 91 c 0
 243.2265625 -24.9189454081 149 -116 149 -116 c 1
 41.5 -73 l 1
 41.5 -73 82.2420174574 -41.2620032816 100.448947605 -9.44849899784 c 1
 44.5854620872 -3.59293402934 9 39.8746410217 9 104.224609375 c 0
EndSplineSet
Validated: 1
EndChar

StartChar: zero
Encoding: 48 48 63
Width: 683
Flags: W
HStem: -9.99805 191.462<283.468 400.31> 547.659 191.462<283.468 400.31>
VStem: 24.5 204.849<243.523 485.6> 454.429 204.849<243.523 485.6>
LayerCount: 2
Fore
SplineSet
229.348632812 364.561523438 m 0
 229.348632812 254.766369965 263.053716611 181.463867188 341.888671875 181.463867188 c 0
 420.723627139 181.463867188 454.428710938 254.766369965 454.428710938 364.561523438 c 0
 454.428710938 474.356676911 420.723627139 547.659179688 341.888671875 547.659179688 c 0
 263.053716611 547.659179688 229.348632812 474.356676911 229.348632812 364.561523438 c 0
24.5 364.561523438 m 0
 24.5 591.206054688 134.251627051 739.12109375 341.888671875 739.12109375 c 0
 549.525716699 739.12109375 659.27734375 591.206054688 659.27734375 364.561523438 c 0
 659.27734375 137.916992188 549.525716699 -9.998046875 341.888671875 -9.998046875 c 0
 134.251627051 -9.998046875 24.5 137.916992188 24.5 364.561523438 c 0
EndSplineSet
Validated: 1
Substitution2: "'frac' Diagonal Fractions in Latin lookup 26 subtable" zero.numr
Substitution2: "'onum' Oldstyle Figures lookup 18-1" zero.osf
Substitution2: "'tnum' Tabular Numbers lookup 17-1" zero.tf
Substitution2: "'numr' Numerators lookup 0 subtable" zero.numr
Substitution2: "'dnom' Denominators lookup 0 subtable" zero.dnom
Substitution2: "'sups' Superscript lookup 0 subtable" zero.superior
Substitution2: "'sinf' Scientific Inferiors lookup 0 subtable" zero.inferior
Substitution2: "'sups' Superscript lookup 0 subtable" zero.superior
EndChar

StartChar: one
Encoding: 49 49 64
Width: 415
Flags: W
HStem: 0 21G<159.5 370.5> 711 20G<151.478 370.5>
VStem: 159.5 211<0 524.3>
LayerCount: 2
Fore
SplineSet
370.5 731 m 1
 370.5 0 l 1
 159.5 0 l 1
 159.5 524.299804688 l 1
 41.599609375 457.900390625 l 5
 -10.5 618.5 l 5
 186.5 731 l 1
 370.5 731 l 1
EndSplineSet
Validated: 1
Substitution2: "'frac' Diagonal Fractions in Latin lookup 26 subtable" one.numr
Substitution2: "'onum' Oldstyle Figures lookup 18-1" one.osf
Substitution2: "'tnum' Tabular Numbers lookup 17-1" one.tf
Substitution2: "'numr' Numerators lookup 0 subtable" one.numr
Substitution2: "'dnom' Denominators lookup 0 subtable" one.dnom
Substitution2: "'sups' Superscript lookup 0 subtable" one.superior
Substitution2: "'sinf' Scientific Inferiors lookup 0 subtable" one.inferior
Substitution2: "'sups' Superscript lookup 0 subtable" one.superior
EndChar

StartChar: four
Encoding: 52 52 65
Width: 660
Flags: W
HStem: 0 21G<337.35 544.4> 146.25 167.5<238.3 640.5> 711 20G<339.35 544.4>
VStem: 337.35 207.051<0 448.5>
LayerCount: 2
Fore
SplineSet
544.400390625 731 m 5
 544.400390625 0 l 5
 337.349609375 0 l 5
 337.349609375 448.5 l 5
 238.3 313.75 l 1
 640.5 313.75 l 1
 640.5 146.25 l 1
 53.7 146.25 l 1
 16.35 284.25 l 1
 339.349609375 731 l 5
 544.400390625 731 l 5
EndSplineSet
Validated: 5
Substitution2: "'frac' Diagonal Fractions in Latin lookup 26 subtable" four.numr
Substitution2: "'onum' Oldstyle Figures lookup 18-1" four.osf
Substitution2: "'tnum' Tabular Numbers lookup 17-1" four.tf
Substitution2: "'numr' Numerators lookup 0 subtable" four.numr
Substitution2: "'dnom' Denominators lookup 0 subtable" four.dnom
Substitution2: "'sups' Superscript lookup 0 subtable" four.superior
Substitution2: "'sinf' Scientific Inferiors lookup 0 subtable" four.inferior
Substitution2: "'sups' Superscript lookup 0 subtable" four.superior
EndChar

StartChar: exclam
Encoding: 33 33 66
Width: 274
Flags: W
HStem: -10 228.449<66.4097 207.589> 711.008 20G<27.8 250.2>
VStem: 23.3867 227.227<33.2547 175.194 613.578 731.008> 52 174<251 389.845>
LayerCount: 2
Fore
SplineSet
52 251 m 1xd0
 27.8 731.0078125 l 1
 250.2 731.0078125 l 1
 226 251 l 1
 52 251 l 1xd0
23.38671875 104.224609375 m 0xe0
 23.38671875 173.423218344 68.1703447726 218.44921875 136.999023438 218.44921875 c 0
 205.8286318 218.44921875 250.61328125 173.423218344 250.61328125 104.224609375 c 0
 250.61328125 35.0248038609 205.8286318 -10 136.999023438 -10 c 0
 68.1703447724 -10 23.38671875 35.0248038609 23.38671875 104.224609375 c 0xe0
EndSplineSet
Validated: 1
EndChar

StartChar: five
Encoding: 53 53 67
Width: 594
Flags: W
HStem: -9.99805 185.643<129.56 330.559> 324.686 156.685<258.912 432.275> 553.191 177.817<253.405 525.172>
VStem: 355.345 214.982<200.802 305.123>
LayerCount: 2
Fore
SplineSet
267 -9.998046875 m 0
 102.691681704 -9.998046875 4.951171875 50.9091796875 4.951171875 50.9091796875 c 1
 57.7744140625 229.862304688 l 1
 57.7744140625 229.862304688 142.770332227 175.64453125 252 175.64453125 c 0
 326.654408814 175.64453125 355.344726562 205.55622883 355.344726562 253.9765625 c 4
 355.344726562 298.262540063 327.225915354 324.685546875 270.5 324.685546875 c 0
 207.276179322 324.685546875 185.5 274.6 185.5 274.6 c 1
 41.447265625 304.328515625 l 1
 90.3 731.0078125 l 1
 525.171875 731.0078125 l 1
 525.171875 553.190820312 l 1
 253.4046875 553.190820312 l 1
 239.970703125 446.322265625 l 1
 239.970703125 446.322265625 269.905207449 481.370117188 366.315429688 481.370117188 c 0
 498.234007214 481.370117188 570.327148438 396.014495919 570.327148438 253.647070312 c 0
 570.327148438 90.2364113238 468.16415792 -9.998046875 267 -9.998046875 c 0
EndSplineSet
Validated: 1
Substitution2: "'frac' Diagonal Fractions in Latin lookup 26 subtable" five.numr
Substitution2: "'onum' Oldstyle Figures lookup 18-1" five.osf
Substitution2: "'tnum' Tabular Numbers lookup 17-1" five.tf
Substitution2: "'numr' Numerators lookup 0 subtable" five.numr
Substitution2: "'dnom' Denominators lookup 0 subtable" five.dnom
Substitution2: "'sups' Superscript lookup 0 subtable" five.superior
Substitution2: "'sinf' Scientific Inferiors lookup 0 subtable" five.inferior
Substitution2: "'sups' Superscript lookup 0 subtable" five.superior
EndChar

StartChar: six
Encoding: 54 54 68
Width: 640
Flags: W
HStem: -9.99805 169.389<259.681 387.434> 314.391 160.409<261.495 387.968> 562.92 176.073<284.166 483.442>
VStem: 24.5 211.998<192.886 440.809> 408.498 207.167<181.229 291.486>
LayerCount: 2
Back
SplineSet
178.3984375 236.890625 m 0
 178.3984375 160.019065367 219.88147703 103.890625 320.3984375 103.890625 c 0
 421.623435844 103.890625 463.3984375 160.019065367 463.3984375 236.890625 c 0
 463.3984375 314.340166284 421.623435844 370.890625 320.3984375 370.890625 c 0
 219.88147703 370.890625 178.3984375 314.340166284 178.3984375 236.890625 c 0
163.303710938 405.747070312 m 1
 163.303710938 405.747070312 204.094697864 475.599609375 331.263671875 475.599609375 c 0
 505.711185917 475.599609375 585.165039062 379.238029036 585.165039062 239 c 0
 585.165039062 79.095703125 484.937095781 -9.998046875 321.297851562 -9.998046875 c 0
 141.540405276 -9.998046875 35 99.6728515625 35 365.331054688 c 0
 35 605.528320312 149.046377502 738.9921875 354.297851562 738.9921875 c 0
 495.428880973 738.9921875 566.923828125 678.860351562 566.923828125 678.860351562 c 1
 522.619140625 573.388671875 l 5
 522.619140625 573.388671875 463.487673927 622.51953125 354.778320312 622.51953125 c 4
 232.266224145 622.51953125 170.301516454 546.295339891 163.303710938 405.747070312 c 1
EndSplineSet
Fore
SplineSet
236.4984375 236.890625 m 0
 236.4984375 192.097047019 261.475901442 159.390625 321.9984375 159.390625 c 0
 383.228943492 159.390625 408.4984375 192.097047019 408.4984375 236.890625 c 0
 408.4984375 281.684202981 383.228943492 314.390625 321.9984375 314.390625 c 0
 261.475901442 314.390625 236.4984375 281.684202981 236.4984375 236.890625 c 0
218.503710938 419.747070312 m 1
 218.503710938 419.747070312 254.486042655 474.799609375 366.663671875 474.799609375 c 0
 519.085872002 474.799609375 615.665039062 378.763850641 615.665039062 239 c 0
 615.665039062 79.095703125 507.650326774 -9.998046875 331.297851562 -9.998046875 c 0
 138.669097898 -9.998046875 24.5 99.6728515627 24.5 365.331054688 c 0
 24.5 605.528320312 149.618915838 738.9921875 374.797851562 738.9921875 c 0
 522.56640625 738.9921875 597.423828125 678.860351562 597.423828125 678.860351562 c 1
 533.819140625 513.788671875 l 1
 533.819140625 513.788671875 477.470897853 562.91953125 373.878320312 562.91953125 c 0
 274.464256234 562.91953125 224.182172966 512.575474572 218.503710938 419.747070312 c 1
EndSplineSet
Validated: 1
Substitution2: "'frac' Diagonal Fractions in Latin lookup 26 subtable" six.numr
Substitution2: "'onum' Oldstyle Figures lookup 18-1" six.osf
Substitution2: "'tnum' Tabular Numbers lookup 17-1" six.tf
Substitution2: "'numr' Numerators lookup 0 subtable" six.numr
Substitution2: "'dnom' Denominators lookup 0 subtable" six.dnom
Substitution2: "'ss07' Style Set 7 lookup 8-1" six.ss07
Substitution2: "'sups' Superscript lookup 0 subtable" six.superior
Substitution2: "'sinf' Scientific Inferiors lookup 0 subtable" six.inferior
Substitution2: "'sups' Superscript lookup 0 subtable" six.superior
EndChar

StartChar: parenright
Encoding: 41 41 69
Width: 402
Flags: W
VStem: 183.948 198.679<118.762 469.238>
LayerCount: 2
Fore
SplineSet
19.5 4.8556640625 m 1
 129.71154163 4.8556640625 183.948242188 84.9666894869 183.948242188 294 c 0
 183.948242188 503.033310513 129.71154163 583.144335938 19.5 583.144335938 c 1
 19.5 759.469726562 l 1
 255.630291432 759.469726562 382.626953125 611.823242188 382.626953125 294 c 0
 382.626953125 -23.8232421871 255.630291432 -171.469726562 19.5 -171.469726562 c 1
 19.5 4.8556640625 l 1
EndSplineSet
Validated: 1
EndChar

StartChar: seven
Encoding: 55 55 70
Width: 604
Flags: W
HStem: 0 21G<148 361.528> 547.2 183.8<29.5 321.65>
VStem: 148 212<0 162.343>
LayerCount: 2
Fore
SplineSet
360 0 m 5
 148 0 l 5
 156.83487095 301.193846153 321.65 547.2 321.65 547.2 c 1
 29.5 547.2 l 1
 29.5 731 l 1
 574.5 731 l 1
 574.5 625 l 1
 574.5 625 363.055423829 356 360 0 c 5
EndSplineSet
Validated: 1
Substitution2: "'frac' Diagonal Fractions in Latin lookup 26 subtable" seven.numr
Substitution2: "'onum' Oldstyle Figures lookup 18-1" seven.osf
Substitution2: "'tnum' Tabular Numbers lookup 17-1" seven.tf
Substitution2: "'numr' Numerators lookup 0 subtable" seven.numr
Substitution2: "'dnom' Denominators lookup 0 subtable" seven.dnom
Substitution2: "'sups' Superscript lookup 0 subtable" seven.superior
Substitution2: "'sinf' Scientific Inferiors lookup 0 subtable" seven.inferior
Substitution2: "'sups' Superscript lookup 0 subtable" seven.superior
EndChar

StartChar: eight
Encoding: 56 56 71
Width: 647
Flags: W
HStem: -9.99805 166.164<264.46 382.54> 310.798 138.964<282.747 367.338> 357.573 60.7568<151.852 498.402> 579.898 158.986<275.886 377.058>
VStem: 24.5 214.067<179.74 285.624> 59.7598 197.688<465.622 563.772> 394.552 197.688<468.323 562.756> 408.433 214.067<179.74 285.624>
LayerCount: 2
Fore
SplineSet
323.5 449.76171875 m 0xd6
 367.337982698 449.76171875 394.551757812 479.029190424 394.551757812 514.668945312 c 4
 394.551757812 551.391788016 368.403764016 579.8984375 323.5 579.8984375 c 0
 281.75639566 579.8984375 257.448242188 551.391788016 257.448242188 514.668945312 c 0
 257.448242188 479.029190424 282.746978669 449.76171875 323.5 449.76171875 c 0xd6
323.5 738.884765625 m 0
 491.005288208 738.884765625 592.240234375 663.578877736 592.240234375 539.655273438 c 0
 592.240234375 421.369569794 498.40178098 357.573242188 323.5 357.573242188 c 0xb6
 151.85212104 357.573242188 59.759765625 421.369569794 59.759765625 539.655273438 c 0
 59.759765625 663.578877736 159.110916772 738.884765625 323.5 738.884765625 c 0
323.5 156.166015625 m 0
 372.719079792 156.166015625 408.432617188 186.698215562 408.432617188 234.920898438 c 0
 408.432617188 278.970356535 372.731483889 310.797851562 323.5 310.797851562 c 0
 274.268516111 310.797851562 238.567382812 278.970356535 238.567382812 234.920898438 c 0xd9
 238.567382812 186.698215562 274.280920208 156.166015625 323.5 156.166015625 c 0
323.5 418.330078125 m 0xb9
 516.380985811 418.330078125 622.5 344.302540001 622.5 210.381835938 c 0
 622.5 73.9880303985 504.876394138 -9.998046875 323.5 -9.998046875 c 0
 142.123605862 -9.998046875 24.5 73.9880303987 24.5 210.381835938 c 0
 24.5 344.302540001 130.619014188 418.330078125 323.5 418.330078125 c 0xb9
EndSplineSet
Validated: 5
Substitution2: "'frac' Diagonal Fractions in Latin lookup 26 subtable" eight.numr
Substitution2: "'onum' Oldstyle Figures lookup 18-1" eight.osf
Substitution2: "'tnum' Tabular Numbers lookup 17-1" eight.tf
Substitution2: "'numr' Numerators lookup 0 subtable" eight.numr
Substitution2: "'dnom' Denominators lookup 0 subtable" eight.dnom
Substitution2: "'sups' Superscript lookup 0 subtable" eight.superior
Substitution2: "'sinf' Scientific Inferiors lookup 0 subtable" eight.inferior
Substitution2: "'sups' Superscript lookup 0 subtable" eight.superior
EndChar

StartChar: nine
Encoding: 57 57 72
Width: 640
Flags: W
HStem: -9.99805 171.072<147.828 352.13> 245.995 162.459<180.27 364.132> 563.454 175.539<250.556 378.309>
VStem: 24.5 202.817<430.473 541.337> 399.317 216.348<288.185 535.932>
LayerCount: 2
Fore
SplineSet
399.316601562 485.953515625 m 0
 399.316601562 530.747093606 374.33913762 563.453515625 313.816601562 563.453515625 c 0
 252.58609557 563.453515625 227.316601562 530.747093606 227.316601562 485.953515625 c 0
 227.316601562 441.159937644 252.58609557 408.453515625 313.816601562 408.453515625 c 0
 374.33913762 408.453515625 399.316601562 441.159937644 399.316601562 485.953515625 c 0
411.161132812 302.247070312 m 1
 411.161132812 302.247070312 372.628804099 245.99453125 252.501367188 245.99453125 c 0
 112.933980826 245.99453125 24.5 345.370763843 24.5 489.994140625 c 0
 24.5 649.8984375 132.514712289 738.9921875 308.8671875 738.9921875 c 0
 501.495941164 738.9921875 615.665039062 629.321289062 615.665039062 363.663085938 c 0
 615.665039062 123.465820312 494.117909782 -9.998046875 275.3671875 -9.998046875 c 0
 120.961107534 -9.998046875 42.7412109375 50.1337890625 42.7412109375 50.1337890625 c 1
 85.845898437 215.20546875 l 1
 85.845898437 215.20546875 149.416568766 161.07421875 266.287109375 161.07421875 c 4
 358.982534369 161.07421875 405.866434765 210.715148258 411.161132812 302.247070312 c 1
EndSplineSet
Validated: 1
Substitution2: "'frac' Diagonal Fractions in Latin lookup 26 subtable" nine.numr
Substitution2: "'onum' Oldstyle Figures lookup 18-1" nine.osf
Substitution2: "'tnum' Tabular Numbers lookup 17-1" nine.tf
Substitution2: "'numr' Numerators lookup 0 subtable" nine.numr
Substitution2: "'dnom' Denominators lookup 0 subtable" nine.dnom
Substitution2: "'ss07' Style Set 7 lookup 8-1" nine.ss07
Substitution2: "'sups' Superscript lookup 0 subtable" nine.superior
Substitution2: "'sinf' Scientific Inferiors lookup 0 subtable" nine.inferior
Substitution2: "'sups' Superscript lookup 0 subtable" nine.superior
EndChar

StartChar: question
Encoding: 63 63 73
Width: 562
Flags: W
HStem: -10 228.449<154.41 295.589> 251 192.049<153.681 297.493> 556.479 182.514<118.887 296.013>
VStem: 111.387 227.227<33.2547 175.194> 309.596 226.774<457.632 542.394>
LayerCount: 2
Back
SplineSet
152.38671875 63.224609375 m 0xf4
 152.38671875 107.584937143 181.008990842 136.44921875 224.999023438 136.44921875 c 0
 268.990077228 136.44921875 297.61328125 107.584937143 297.61328125 63.224609375 c 0
 297.61328125 18.8635145521 268.990077228 -10 224.999023438 -10 c 0
 181.008990842 -10 152.38671875 18.8635145521 152.38671875 63.224609375 c 0xf4
280.88671875 300.653320312 m 1
 282.37890625 210 l 1
 169.422851562 210 l 1xec
 171.15625 399.46875 l 1
 171.15625 399.46875 208.949224154 395.048828125 256.3984375 395.048828125 c 0
 348.180522211 395.048828125 392.095703125 431.389934102 392.095703125 499.145507812 c 0
 392.095703125 585.201602829 327.571533338 623.228515625 232.89453125 623.228515625 c 0
 138.66274719 623.228515625 76.923828125 573.958007812 76.923828125 573.958007812 c 1
 30.2412109375 685.311523438 l 1
 30.2412109375 685.311523438 107.390463661 738.9921875 239.89453125 738.9921875 c 0
 405.150107971 738.9921875 521.870117188 670 521.870117188 501.010742188 c 0
 521.870117188 365.685958308 421.37343496 300.59375 309 300.59375 c 0
 290.63582236 300.59375 280.88671875 300.653320312 280.88671875 300.653320312 c 1
EndSplineSet
Fore
SplineSet
111.38671875 104.224609375 m 0xf0
 111.38671875 173.423218344 156.170344773 218.44921875 224.999023438 218.44921875 c 0
 293.8286318 218.44921875 338.61328125 173.423218344 338.61328125 104.224609375 c 0
 338.61328125 35.0248038609 293.8286318 -10 224.999023438 -10 c 0
 156.170344773 -10 111.38671875 35.0248038609 111.38671875 104.224609375 c 0xf0
298.38671875 310.653320312 m 1
 299.87890625 251 l 1
 151.922851562 251 l 1
 153.65625 447.46875 l 1
 153.65625 447.46875 186.993542994 443.048828125 228.848632812 443.048828125 c 0
 283.463841257 443.048828125 309.595703125 461.864585327 309.595703125 496.9453125 c 0
 309.595703125 538.233761861 280.129947925 556.478515625 236.89453125 556.478515625 c 0
 137.044145943 556.478515625 71.6240234375 512.458007812 71.6240234375 512.458007812 c 5
 20.2412109375 685.311523438 l 1
 20.2412109375 685.311523438 101.0703125 738.9921875 239.89453125 738.9921875 c 0
 413.648027585 738.9921875 536.370117188 658.773827089 536.370117188 498.810546875 c 0xe8
 536.370117188 371.048315419 443.050578951 309.59375 338.650390625 309.59375 c 0
 312.349326152 309.59375 298.38671875 310.653320312 298.38671875 310.653320312 c 1
EndSplineSet
Validated: 1
EndChar

StartChar: hyphen
Encoding: 45 45 74
Width: 354
Flags: W
HStem: 189.05 180.9<19.5 334.5>
VStem: 19.5 315<189.05 369.95>
LayerCount: 2
Fore
SplineSet
334.5 189.05 m 1
 19.5 189.05 l 1
 19.5 369.95 l 1
 334.5 369.95 l 1
 334.5 189.05 l 1
EndSplineSet
Validated: 1
EndChar

StartChar: quotesingle
Encoding: 39 39 75
Width: 266
Flags: W
HStem: 456 275.008<63.2 206.8>
VStem: 63.2 143.6<456 535.548>
LayerCount: 2
Fore
SplineSet
63.2 456 m 1
 39 731.0078125 l 1
 231 731.0078125 l 1
 206.8 456 l 1
 63.2 456 l 1
EndSplineSet
Validated: 1
EndChar

StartChar: parenleft
Encoding: 40 40 77
Width: 402
Flags: W
VStem: 19.5 198.679<118.762 469.238>
LayerCount: 2
Fore
SplineSet
382.626953125 4.8556640625 m 1
 382.626953125 -171.469726562 l 1
 146.496661693 -171.469726562 19.5 -23.8232421871 19.5 294 c 0
 19.5 611.823242188 146.496661693 759.469726562 382.626953125 759.469726562 c 1
 382.626953125 583.144335938 l 1
 272.415411495 583.144335938 218.178710938 503.033310513 218.178710938 294 c 0
 218.178710938 84.9666894869 272.415411495 4.8556640625 382.626953125 4.8556640625 c 1
EndSplineSet
Validated: 1
EndChar

StartChar: asterisk
Encoding: 42 42 78
Width: 400
Flags: W
HStem: 718.992 20G<127.034 273.405>
LayerCount: 2
Fore
SplineSet
273.405273438 738.9921875 m 1
 262.396484375 629.151367188 l 5
 358.440429688 673.049804688 l 1
 395.440429688 539.869140625 l 1
 303.896484375 516.767578125 l 5
 372.405273438 435.006835938 l 1
 247.25390625 366.916992188 l 1
 200.219726562 466.075195312 l 5
 153.185546875 366.916992188 l 1
 28.0341796875 435.006835938 l 1
 96.54296875 516.767578125 l 5
 5 539.869140625 l 1
 42 673.049804688 l 1
 138.04296875 629.151367188 l 5
 127.034179688 738.9921875 l 1
 273.405273438 738.9921875 l 1
EndSplineSet
Validated: 1
Substitution2: "'ss13' Style Set 13 lookup 14-1" asterisk.ss13
EndChar

StartChar: less
Encoding: 60 60 79
Width: 450
Flags: W
LayerCount: 2
Fore
SplineSet
420 155 m 1
 30 264 l 1
 30 452 l 1
 420 561 l 1
 420 388.25 l 1
 234.454101562 358 l 1
 420 327.75 l 1
 420 155 l 1
EndSplineSet
Validated: 1
EndChar

StartChar: greater
Encoding: 62 62 80
Width: 450
Flags: W
LayerCount: 2
Fore
SplineSet
30 561 m 1
 420 452 l 1
 420 264 l 1
 30 155 l 1
 30 327.75 l 1
 226.045898438 358 l 1
 30 388.25 l 1
 30 561 l 1
EndSplineSet
Validated: 1
EndChar

StartChar: slash
Encoding: 47 47 81
Width: 434
Flags: W
LayerCount: 2
Fore
SplineSet
-5.75 -171.469726562 m 1
 269.25 761.403320312 l 1
 439.75 761.403320312 l 1
 164.75 -171.469726562 l 1
 -5.75 -171.469726562 l 1
EndSplineSet
Validated: 1
Substitution2: "'frac' Diagonal Fractions in Latin lookup 25 subtable" fraction
EndChar

StartChar: bar
Encoding: 124 124 82
Width: 249
Flags: W
VStem: 39.25 170.5<-171.47 759.47>
LayerCount: 2
Fore
SplineSet
39.25 -171.469726562 m 1
 39.25 759.469726562 l 1
 209.75 759.469726562 l 1
 209.75 -171.469726562 l 1
 39.25 -171.469726562 l 1
EndSplineSet
Validated: 1
EndChar

StartChar: bracketleft
Encoding: 91 91 83
Width: 375
Flags: W
HStem: -171.47 163.8<225 366> 594.62 164.85<225 366>
VStem: 34 332<-171.47 -7.66973 594.62 759.47> 34 191<-7.66973 594.62>
LayerCount: 2
Fore
SplineSet
34 759.469726562 m 1xe0
 366 759.469726562 l 1
 366 594.619726562 l 1xe0
 225 594.619726562 l 1
 225 -7.6697265625 l 1xd0
 366 -7.6697265625 l 1
 366 -171.469726562 l 1
 34 -171.469726562 l 1
 34 759.469726562 l 1xe0
EndSplineSet
Validated: 1
EndChar

StartChar: bracketright
Encoding: 93 93 84
Width: 375
Flags: W
HStem: -171.47 163.8<9 150> 595.67 163.8<9 150>
VStem: 9 332<-171.47 -7.66973 595.67 759.47> 150 191<-7.66973 595.67>
LayerCount: 2
Fore
SplineSet
341 -171.469726562 m 1xe0
 9 -171.469726562 l 1
 9 -7.6697265625 l 1xe0
 150 -7.6697265625 l 1
 150 595.669726562 l 1xd0
 9 595.669726562 l 1
 9 759.469726562 l 1
 341 759.469726562 l 1
 341 -171.469726562 l 1xe0
EndSplineSet
Validated: 1
EndChar

StartChar: asciicircum
Encoding: 94 94 85
Width: 449
Flags: W
HStem: 440 291.008<144.5 180.4 269.6 304.5>
LayerCount: 2
Fore
SplineSet
304.5 731.0078125 m 1
 454.5 440 l 1
 269.6 440 l 1
 225.393554688 589.863476562 l 1
 180.4 440 l 1
 -5.5 440 l 1
 144.5 731.0078125 l 1
 304.5 731.0078125 l 1
EndSplineSet
Validated: 1
EndChar

StartChar: braceleft
Encoding: 123 123 86
Width: 433
Flags: W
HStem: -171.47 161.796<303.934 417.538> 241.032 147<9 91.2222> 597.674 161.796<303.841 417.204>
VStem: 99 191<6.68063 233.848 397.996 581.319>
LayerCount: 2
Fore
SplineSet
229 314.532226562 m 1
 229 314.532226562 290 289.532226562 290 209.532226562 c 2
 290 62.3263671875 l 2
 290 7.044140625 316.6015625 -9.6736328125 364 -9.6736328125 c 0
 407.443359375 -9.6736328125 417 -4.6736328125 417 -4.6736328125 c 1
 424 -161.469726562 l 1
 424 -161.469726562 387 -171.469726562 327 -171.469726562 c 0
 159.141129031 -171.469726562 99 -94.4173242177 99 36.3302734375 c 2
 99 179.032226562 l 2
 99 226.360351562 80.501953125 241.032226562 44 241.032226562 c 2
 9 241.032226562 l 1
 9 388.032226562 l 1
 44 388.032226562 l 2
 80.501953125 388.032226562 99 402.705078125 99 450.032226562 c 2
 99 551.669726562 l 2
 99 682.413743105 159.141129031 759.469726562 327 759.469726562 c 0
 381.75 759.469726562 424 749.469726562 424 749.469726562 c 1
 417 592.673632812 l 1
 417 592.673632812 400.180664062 597.673632812 363 597.673632812 c 0
 316.2421875 597.673632812 290 580.954882812 290 525.673632812 c 2
 290 419.532226562 l 2
 290 337.53515625 229 314.532226562 229 314.532226562 c 1
EndSplineSet
Validated: 1
EndChar

StartChar: grave
Encoding: 96 96 87
Width: 242
Flags: W
HStem: 495 246.008
VStem: -9.5 261
LayerCount: 2
Fore
SplineSet
130.5 495 m 1
 -9.5 711.0078125 l 1
 178.5 741.0078125 l 1
 251.5 515 l 1
 130.5 495 l 1
EndSplineSet
Validated: 1
EndChar

StartChar: underscore
Encoding: 95 95 88
Width: 564
Flags: W
HStem: -132 132<19.5 544.5>
LayerCount: 2
Fore
SplineSet
544.5 -132 m 1
 19.5 -132 l 1
 19.5 0 l 1
 544.5 0 l 1
 544.5 -132 l 1
EndSplineSet
Validated: 1
EndChar

StartChar: dollar
Encoding: 36 36 89
Width: 591
Flags: W
HStem: -105 174.47<204 385> -10 184.212<120.203 320.719> 511.389 21G<507.371 512.146> 553.909 185.212<269.733 460.841> 655 174.47<204 385>
VStem: 39.627 221.562<477.286 543.784> 204 181<-105 69.4697 655 829.47>
LayerCount: 2
Fore
SplineSet
204 -105 m 1xa2
 204 69.4697265625 l 1
 385 69.4697265625 l 1
 385 -105 l 1
 204 -105 l 1xa2
204 655 m 1x2a
 204 829.469726562 l 1
 385 829.469726562 l 1
 385 655 l 1
 204 655 l 1x2a
EndSplineSet
Refer: 22 83 N 1 0 0 1 0 0 2
Validated: 5
EndChar

StartChar: percent
Encoding: 37 37 90
Width: 953
Flags: W
HStem: -9.99805 143.03<679.883 765.411> 0 21G<190.5 352.128> 259.822 143.029<679.492 765.816> 326.143 143.029<189.283 274.411> 595.962 143.03<188.899 274.816> 711.008 20G<603.872 765.5>
VStem: 24.5 152.91<480.256 585.654> 287.66 150.8<480.646 585.278> 515.5 151.91<144.505 249.138> 778.66 150.8<144.505 249.138>
LayerCount: 2
Fore
SplineSet
667.41015625 196.981445312 m 0xa3c0
 667.41015625 151.10444746 692.191484295 133.032226562 722.48046875 133.032226562 c 0
 752.625820003 133.032226562 778.66015625 151.10444746 778.66015625 196.981445312 c 0
 778.66015625 243.06503404 752.625820003 259.822265625 722.48046875 259.822265625 c 0
 692.191484295 259.822265625 667.41015625 243.06503404 667.41015625 196.981445312 c 0xa3c0
515.5 196.981445312 m 0
 515.5 310.419926377 591.019754285 402.8515625 722.48046875 402.8515625 c 0
 853.940167484 402.8515625 929.459960938 310.419926377 929.459960938 196.981445312 c 0
 929.459960938 83.7022970889 853.940167484 -9.998046875 722.48046875 -9.998046875 c 0
 591.019754285 -9.998046875 515.5 83.7022970889 515.5 196.981445312 c 0
177.41015625 533.122070312 m 4
 177.41015625 487.244948485 201.741489971 469.171875 231.48046875 469.171875 c 0
 261.625820003 469.171875 287.66015625 487.244948485 287.66015625 533.122070312 c 0
 287.66015625 579.204729227 261.625820003 595.961914062 231.48046875 595.961914062 c 0x1bc0
 201.741489971 595.961914062 177.41015625 579.204729227 177.41015625 533.122070312 c 4
24.5 533.122070312 m 0
 24.5 646.560551377 100.019754285 738.9921875 231.48046875 738.9921875 c 0
 362.940167484 738.9921875 438.459960938 646.560551377 438.459960938 533.122070312 c 0
 438.459960938 419.842922089 362.940167484 326.142578125 231.48046875 326.142578125 c 0
 100.019754285 326.142578125 24.5 419.842922089 24.5 533.122070312 c 0
EndSplineSet
Refer: 138 8260 N 1 0 0 1 301 0 2
Validated: 1
EndChar

StartChar: at
Encoding: 64 64 91
Width: 924
Flags: W
HStem: -159.727 143.008<362.866 654.503> 82.9697 131.304<416.329 510.879> 83.709 121.126<671.808 738.692> 338.753 129.323<419.282 511.28> 566.488 141.238<353.699 606.422>
VStem: 35 151.524<143.342 391.314> 243.342 162.467<225.343 325.683> 522.133 142.702<242.975 309.726> 531.283 76.5215<153.249 349.835> 758.767 130.52<221.148 419.357>
LayerCount: 2
Fore
SplineSet
405.80859375 273.354492188 m 0xdf40
 405.80859375 241.23828125 421.775390625 214.2734375 465.793945312 214.2734375 c 0
 506.321289062 214.2734375 522.1328125 242.974609375 522.1328125 275.029296875 c 0
 522.1328125 309.725585938 506.966796875 338.752929688 465.834960938 338.752929688 c 0
 424.208007812 338.752929688 405.80859375 308.377929688 405.80859375 273.354492188 c 0xdf40
427.79296875 82.9697265625 m 0
 307.370117188 82.9697265625 243.341796875 161.28515625 243.341796875 263.1875 c 0
 243.341796875 378.686523438 327.124023438 468.076171875 441.140625 468.076171875 c 0
 555.712890625 468.076171875 607.8046875 380.921875 607.8046875 273.227539062 c 0xdec0
 607.8046875 153.249023438 528.232421875 82.9697265625 427.79296875 82.9697265625 c 0
487.713867188 -159.7265625 m 0
 207.397460938 -159.7265625 35 14.611328125 35 268.08984375 c 0
 35 524.041992188 215.43359375 707.7265625 463.920898438 707.7265625 c 0
 716.927734375 707.7265625 889.287109375 561.379882812 889.287109375 321.901367188 c 0
 889.287109375 183.88491795 819.627929688 83.708984375 699.02734375 83.708984375 c 0
 581.3203125 83.708984375 531.283203125 145.458007812 531.283203125 266 c 0xbec0
 531.283203125 349.834960938 561.913085938 465.46484375 561.913085938 465.46484375 c 1
 697.728515625 465.46484375 l 1
 697.728515625 465.46484375 664.834960938 346.081054688 664.834960938 267.27734375 c 0
 664.834960938 232.950195312 672.670898438 204.834960938 702.133789062 204.834960938 c 0xbf40
 736.95703125 204.834960938 758.766992188 235.629631071 758.766992188 313.872265625 c 0
 758.766992188 475.321866663 650.156497688 566.48828125 473.484375 566.48828125 c 0
 297.828802701 566.48828125 186.524414062 451.33984375 186.524414062 262.189453125 c 4
 186.524414062 95.09375 287.0703125 -16.71875 500.1796875 -16.71875 c 0
 657.912109375 -16.71875 764.51328125 49.5576171875 764.51328125 49.5576171875 c 1
 805.250976562 -93.2255859375 l 1
 805.250976562 -93.2255859375 701.004882812 -159.7265625 487.713867188 -159.7265625 c 0
EndSplineSet
Validated: 5
EndChar

StartChar: numbersign
Encoding: 35 35 92
Width: 767
Flags: W
HStem: 0 21G<75.5 261.014 345.5 531.014> 163.5 152.5<14 718> 398 152.5<49 753> 711.008 20G<235.986 421.5 505.986 691.5>
LayerCount: 2
Fore
SplineSet
49 550.5 m 1
 753 550.5 l 1
 753 398 l 1
 49 398 l 1
 49 550.5 l 1
14 316 m 1
 718 316 l 1
 718 163.5 l 1
 14 163.5 l 1
 14 316 l 1
345.5 0 m 1
 510.5 731.0078125 l 1
 691.5 731.0078125 l 1
 526.5 0 l 1
 345.5 0 l 1
75.5 0 m 1
 240.5 731.0078125 l 1
 421.5 731.0078125 l 1
 256.5 0 l 1
 75.5 0 l 1
EndSplineSet
Validated: 5
EndChar

StartChar: braceright
Encoding: 125 125 93
Width: 433
Flags: W
HStem: -171.47 161.796<36.4621 141.01> 241.032 147<341.778 424> 597.674 161.796<36.7959 141.029>
VStem: 143 191<-5.77631 233.848 397.996 594.115>
LayerCount: 2
Fore
SplineSet
204 314.532226562 m 1
 204 314.532226562 143 337.53515625 143 419.532226562 c 2
 143 563.473632812 l 2
 143 589.732226562 124.30693493 597.673632812 91 597.673632812 c 0
 53.8193359375 597.673632812 37 592.673632812 37 592.673632812 c 1
 30 749.469726562 l 1
 30 749.469726562 72.25 759.469726562 127 759.469726562 c 0
 279.398185484 759.469726562 334 696.430664062 334 589.469726562 c 2
 334 450.032226562 l 2
 334 402.705078125 352.498046875 388.032226562 389 388.032226562 c 2
 424 388.032226562 l 1
 424 241.032226562 l 1
 389 241.032226562 l 2
 352.498046875 241.032226562 334 226.360351562 334 179.032226562 c 2
 334 -1.4697265625 l 2
 334 -108.43359375 279.398185484 -171.469726562 127 -171.469726562 c 0
 67 -171.469726562 30 -161.469726562 30 -161.469726562 c 1
 37 -4.6736328125 l 1
 37 -4.6736328125 46.556640625 -9.6736328125 90 -9.6736328125 c 0
 123.94752956 -9.6736328125 143 -1.73269042974 143 24.5263671875 c 2
 143 209.532226562 l 2
 143 289.532226562 204 314.532226562 204 314.532226562 c 1
EndSplineSet
Validated: 1
EndChar

StartChar: asciitilde
Encoding: 126 126 94
Width: 436
VWidth: 999
Flags: W
HStem: 256 172<231.151 359.383> 305 171<83.1579 204.877>
LayerCount: 2
Fore
SplineSet
441.5 355 m 1x80
 441.5 355 385.434426229 256 299 256 c 0x80
 221.461538462 256 195.615384615 305 139 305 c 0
 106.782608695 305 80.5 281.5 80.5 281.5 c 1
 -5.5 405.5 l 1
 -5.5 405.5 56.4057377048 476 137 476 c 0x40
 213.307692308 476 245.307692308 428 297 428 c 0
 333.053846153 428 351.5 447.5 351.5 447.5 c 1
 441.5 355 l 1x80
EndSplineSet
Validated: 1
EndChar

StartChar: cent
Encoding: 162 162 95
Width: 492
Flags: W
HStem: -5 189.47<207 380> 105.002 171.262<258.002 408.04> 460.484 165.449<259.32 397.905> 570 159.47<207 380>
VStem: 24.5 206.999<302.433 433.057> 207 173<-5 184.47 570 729.47>
LayerCount: 2
Fore
SplineSet
207 -5 m 1x84
 207 184.469726562 l 1
 380 184.469726562 l 1
 380 -5 l 1
 207 -5 l 1x84
207 570 m 1x14
 207 729.469726562 l 1
 380 729.469726562 l 1
 380 570 l 1
 207 570 l 1x14
EndSplineSet
Refer: 40 99 N 1 0 0 1 0 115 2
Validated: 5
EndChar

StartChar: sterling
Encoding: 163 163 96
Width: 553
Flags: W
HStem: 0 182.8<241.319 523> 275.1 171.7<95.3242 434> 565.871 173.591<277.605 463.083>
VStem: 27.8516 234.929<449.129 611.927> 95.3242 199.407<244.452 418.334>
LayerCount: 2
Fore
SplineSet
434 275.099609375 m 5xe0
 8.5 275.099609375 l 5
 8.5 446.799804688 l 5
 434 446.799804688 l 5
 434 275.099609375 l 5xe0
523 0 m 1
 9 0 l 1
 9 146 l 1
 9 146 95.32421875 217.418123558 95.32421875 320.379882812 c 0xe8
 95.32421875 410.298172267 27.8515625 433.681658987 27.8515625 547.185546875 c 0
 27.8515625 671.3984375 137.872281584 739.461914062 302.80859375 739.461914062 c 0
 460.683516232 739.461914062 511.20703125 699.405273438 511.20703125 699.405273438 c 1
 485.9375 534.274414062 l 1
 485.9375 534.274414062 426.546926462 565.87109375 348.80859375 565.87109375 c 0
 282.179168762 565.87109375 262.780078125 542.715018438 262.780078125 505.524414062 c 0xf0
 262.780078125 456.985861497 294.731445312 426.369240756 294.731445312 351.658203125 c 0xe8
 294.731445312 247.025842015 241.319335938 182.8 241.319335938 182.8 c 1
 523 182.8 l 1
 523 0 l 1
EndSplineSet
Validated: 5
EndChar

StartChar: yen
Encoding: 165 165 97
Width: 649
Flags: W
HStem: 0 21G<219 430> 175 86<58.5 590.5> 305 147.5<219 430> 305 86<58.5 225 424 590.5> 322 69<225 424> 711.008 20G<9.5 250.865 398.135 639.5>
VStem: 219 211<0 452.5>
LayerCount: 2
Fore
SplineSet
225 322 m 1xce
 9.5 731.0078125 l 1
 243.9 731.0078125 l 1
 324.5 499.566015625 l 1
 405.1 731.0078125 l 1
 639.5 731.0078125 l 1
 424 322 l 1
 225 322 l 1xce
219 0 m 1
 219 452.5 l 1
 430 452.5 l 1xe6
 430 0 l 1
 219 0 l 1
590.5 175 m 1
 58.5 175 l 1
 58.5 261 l 1
 590.5 261 l 1
 590.5 175 l 1
590.5 305 m 1xd6
 58.5 305 l 1
 58.5 391 l 1
 590.5 391 l 1
 590.5 305 l 1xd6
EndSplineSet
Validated: 5
EndChar

StartChar: currency
Encoding: 164 164 98
Width: 513
Flags: W
HStem: 156.724 143.462<219.346 292.975> 414.006 143.649<219.362 292.99>
VStem: 42.6113 161.849<309.148 404.478> 308.54 161.849<309.503 404.478>
LayerCount: 2
Fore
SplineSet
294.739257812 213.436523438 m 1
 424.389648438 246.325195312 l 1
 518.759765625 124.765625 l 1
 348.580078125 66.1455078125 l 1
 294.739257812 213.436523438 l 1
218.520507812 213.436523438 m 1
 164.6796875 66.1455078125 l 1
 -5.5 124.765625 l 1
 88.8701171875 246.325195312 l 1
 218.520507812 213.436523438 l 1
294.739257812 497.74609375 m 1
 348.580078125 645.036132812 l 1
 518.759765625 586.416015625 l 1
 424.389648438 464.856445312 l 1
 294.739257812 497.74609375 l 1
218.520507812 497.74609375 m 1
 88.8701171875 464.856445312 l 1
 -5.5 586.416015625 l 1
 164.6796875 645.036132812 l 1
 218.520507812 497.74609375 l 1
204.459960938 359.283203125 m 0
 204.459960938 323.84550467 219.746406118 300.185546875 255.5 300.185546875 c 0
 292.654872388 300.185546875 308.540039062 323.84550467 308.540039062 359.283203125 c 0
 308.540039062 392.097742043 292.688109295 414.005859375 255.611328125 414.005859375 c 0
 219.779644053 414.005859375 204.459960938 392.097742043 204.459960938 359.283203125 c 0
42.611328125 359.283203125 m 0
 42.611328125 479.317382812 123.163660091 557.655273438 255.5 557.655273438 c 0
 389.079500043 557.655273438 470.388671875 479.317382812 470.388671875 359.283203125 c 0
 470.388671875 236.715820312 389.079500043 156.723632812 255.5 156.723632812 c 0
 123.163660091 156.723632812 42.611328125 236.715820312 42.611328125 359.283203125 c 0
EndSplineSet
Validated: 5
EndChar

StartChar: brokenbar
Encoding: 166 166 99
Width: 249
Flags: W
VStem: 44.5 160<-171.47 239 339 759.47>
LayerCount: 2
Fore
SplineSet
44.5 -171.469726562 m 1
 44.5 239 l 1
 204.5 239 l 1
 204.5 -171.469726562 l 1
 44.5 -171.469726562 l 1
44.5 339 m 1
 44.5 759.469726562 l 1
 204.5 759.469726562 l 1
 204.5 339 l 1
 44.5 339 l 1
EndSplineSet
Validated: 1
EndChar

StartChar: section
Encoding: 167 167 100
Width: 593
Flags: W
HStem: -19.6709 155.891<160.636 311.326> 598.712 155.891<283.178 427.723>
VStem: 19.8857 175.358<368.203 434.109> 399.261 175.358<301.712 423.545>
LayerCount: 2
Fore
SplineSet
160.215820312 536.153320312 m 1
 235.024169923 459.951171875 l 1
 235.024169923 459.951171875 195.244140625 443.1484375 195.244140625 414.393554688 c 0
 195.244140625 377.268554688 212.2265625 351.03515625 341.426757812 323.399414062 c 0
 486.043945312 292.125 508.967529297 243.884769135 508.967529297 145.370117188 c 0
 508.967529297 42.560546875 414.878515625 -19.6708984375 260.303515625 -19.6708984375 c 0
 147.588671875 -19.6708984375 92.7702636729 19.734375 92.7702636729 19.734375 c 1
 131.399414062 171.125 l 1
 131.399414062 171.125 191.887451173 136.219726562 266.305419923 136.219726562 c 0
 299.12734375 136.219726562 313.887109375 145.050821535 313.887109375 159.293359375 c 0
 313.887109375 167.085207388 308.994714228 175.470199155 290.244140625 179.319335938 c 0
 80.6417648554 220.237467277 19.8857421875 265.587232729 19.8857421875 373.309570312 c 0
 19.8857421875 495.012052803 160.215820312 536.153320312 160.215820312 536.153320312 c 1
445.288085938 189.778320312 m 5
 359.479296875 274.98046875 l 1
 359.479296875 274.98046875 399.260742188 292.15625 399.260742188 328.454101562 c 0
 399.260742188 357.350585938 384.9140625 389.983398438 261.40625 411.8515625 c 0
 109.752929688 438.62890625 85.5359375 491.206025005 85.5359375 589.561523438 c 0
 85.5359375 692.37109375 179.624951172 754.602539062 334.199951173 754.602539062 c 0
 446.914794923 754.602539062 491.733398438 715.197265625 491.733398438 715.197265625 c 1
 453.104492188 563.806640625 l 1
 453.104492188 563.806640625 402.614990235 598.711914062 328.198046875 598.711914062 c 0
 295.376830359 598.711914062 280.617382813 589.880819093 280.617382813 575.63828125 c 0
 280.617382813 569.060539008 285.384051991 561.473689926 301.482421875 558.608398438 c 0
 517.011025906 522.189274648 574.619140625 475.664585089 574.619140625 371.072265625 c 0
 574.619140625 234.038939077 445.288085938 189.778320312 445.288085938 189.778320312 c 5
EndSplineSet
Validated: 5
EndChar

StartChar: dieresis
Encoding: 168 168 101
Width: 459
Flags: W
HStem: 551.543 187.449<61.5372 187.462 271.537 397.462>
VStem: 31.3867 186.227<581.892 708.643> 241.387 186.227<581.892 708.643>
LayerCount: 2
Fore
SplineSet
241.38671875 645.267578125 m 0
 241.38671875 702.047461819 278.089214938 738.9921875 334.499023438 738.9921875 c 0
 390.909798001 738.9921875 427.61328125 702.047461819 427.61328125 645.267578125 c 0
 427.61328125 588.486668616 390.909798001 551.54296875 334.499023438 551.54296875 c 0
 278.08921494 551.54296875 241.38671875 588.486668616 241.38671875 645.267578125 c 0
31.38671875 645.267578125 m 0
 31.38671875 702.047461819 68.0892149394 738.9921875 124.499023438 738.9921875 c 0
 180.909798 738.9921875 217.61328125 702.047461819 217.61328125 645.267578125 c 0
 217.61328125 588.486668616 180.909798 551.54296875 124.499023438 551.54296875 c 0
 68.0892149396 551.54296875 31.38671875 588.486668616 31.38671875 645.267578125 c 0
EndSplineSet
Validated: 1
EndChar

StartChar: copyright
Encoding: 169 169 102
Width: 797
Flags: W
HStem: -9.99805 130.857<289.968 507.809> 177.281 132.481<380.215 518.17> 419.36 132.481<380.215 501.575> 608.264 130.857<289.968 507.809>
VStem: 35 133.896<244.558 484.565> 221.707 150.674<318.811 410.312> 628.881 133.896<244.558 484.565>
LayerCount: 2
Fore
SplineSet
221.70703125 364.561523438 m 0
 221.70703125 477.88408452 287.575364381 551.841796875 414.301367188 551.841796875 c 0
 497.1421875 551.841796875 537.197851562 518.7265625 537.197851562 518.7265625 c 1
 506.534765625 393.599609375 l 1
 506.534765625 393.599609375 485.20859375 419.360351562 429.801367188 419.360351562 c 0
 388.006747509 419.360351562 372.380859375 397.422068516 372.380859375 364.561523438 c 0
 372.380859375 331.70097836 388.006747509 309.762695312 429.801367188 309.762695312 c 0
 489.66171875 309.762695312 515.365820312 332.828125 515.365820312 332.828125 c 1
 538.770117188 204.578125 l 1
 538.770117188 204.578125 496.582617188 177.28125 414.301367188 177.28125 c 0
 287.575364381 177.28125 221.70703125 251.238962356 221.70703125 364.561523438 c 0
168.896484375 364.561523438 m 0
 168.896484375 218.424748595 237.777988377 120.859375 398.888671875 120.859375 c 0
 559.999355373 120.859375 628.880859375 218.424748595 628.880859375 364.561523438 c 0
 628.880859375 510.69829828 559.999355373 608.263671875 398.888671875 608.263671875 c 0
 237.777988377 608.263671875 168.896484375 510.69829828 168.896484375 364.561523438 c 0
35 364.561523438 m 0
 35 591.206054688 172.688476562 739.12109375 398.888671875 739.12109375 c 0
 625.088867188 739.12109375 762.77734375 591.206054688 762.77734375 364.561523438 c 0
 762.77734375 137.916992188 625.088867188 -9.998046875 398.888671875 -9.998046875 c 0
 172.688476562 -9.998046875 35 137.916992188 35 364.561523438 c 0
EndSplineSet
Validated: 1
EndChar

StartChar: registered
Encoding: 174 174 103
Width: 797
Flags: W
HStem: -9.99805 130.857<289.968 507.809> 305.752 95.9258<321.75 404.189> 449.326 98.9297<377 422.618> 608.264 130.857<289.968 507.809>
VStem: 35 133.896<244.558 484.565> 236.25 140.75<182.752 305.752 401.678 449.326> 321.75 55.25<305.752 401.678> 628.881 133.896<244.558 484.565>
LayerCount: 2
Fore
SplineSet
321.75 401.677734375 m 1xfb
 393.043945312 401.732421875 l 2
 410.059006278 401.740746993 422.764648438 405.832228788 422.764648438 424.533203125 c 0
 422.764648438 444.649203938 410.058968783 449.250340118 393.043945312 449.275390625 c 2
 377 449.326171875 l 1
 377 182.751953125 l 1
 236.25 182.751953125 l 1
 236.25 548.255859375 l 1xfd
 419.994335938 548.255859375 l 2
 493.625799064 548.255859375 559.938476562 516.915823792 559.938476562 433.18359375 c 4
 559.938476562 366.585516373 500.893554688 346.890625 500.893554688 346.890625 c 1
 500.893554688 346.890625 526.824747455 337.86683094 547.9015625 271.451171875 c 2
 576.05 182.751953125 l 1
 433.8 182.751953125 l 1
 406.311523438 278.538085938 l 2
 399.733866757 302.654694924 390.38556694 305.751953125 372.849609375 305.751953125 c 2
 321.75 305.751953125 l 1
 321.75 401.677734375 l 1xfb
168.896484375 364.561523438 m 0
 168.896484375 218.424748595 237.777988377 120.859375 398.888671875 120.859375 c 0
 559.999355373 120.859375 628.880859375 218.424748595 628.880859375 364.561523438 c 0
 628.880859375 510.69829828 559.999355373 608.263671875 398.888671875 608.263671875 c 0
 237.777988377 608.263671875 168.896484375 510.69829828 168.896484375 364.561523438 c 0
35 364.561523438 m 0
 35 591.206054688 172.688476562 739.12109375 398.888671875 739.12109375 c 0
 625.088867188 739.12109375 762.77734375 591.206054688 762.77734375 364.561523438 c 0
 762.77734375 137.916992188 625.088867188 -9.998046875 398.888671875 -9.998046875 c 0
 172.688476562 -9.998046875 35 137.916992188 35 364.561523438 c 0
EndSplineSet
Validated: 5
EndChar

StartChar: uni2117
Encoding: 8471 8471 104
Width: 797
Flags: W
HStem: -9.99805 130.857<289.968 507.809> 286.752 106.176<314.494 432.153> 441.126 107.13<381.294 432.274> 608.264 130.857<289.968 507.809>
VStem: 35 133.896<244.558 484.565> 240.544 140.75<182.752 286.752 392.928 441.126> 314.494 66.7998<286.752 392.928> 628.881 133.896<244.558 484.565>
LayerCount: 2
Fore
SplineSet
314.494140625 286.751953125 m 5xfb
 314.494140625 392.927734375 l 5xfb
 401.338867188 392.982421875 l 6
 421.073323229 392.987186073 435.809570312 397.127268565 435.809570312 416.033203125 c 4
 435.809570312 436.393069233 421.073316519 441.053620457 401.338867188 441.075195312 c 6
 381.293945312 441.125976562 l 5
 381.293945312 182.751953125 l 5
 240.543945312 182.751953125 l 5
 240.543945312 548.255859375 l 5xfd
 424.838867188 548.255859375 l 6
 504.415740553 548.255859375 576.083007812 512.244978898 576.083007812 416.033203125 c 4
 576.083007812 321.475395761 497.940374244 286.751953125 412.23828125 286.751953125 c 6
 314.494140625 286.751953125 l 5xfb
168.896484375 364.561523438 m 0
 168.896484375 218.424748595 237.777988377 120.859375 398.888671875 120.859375 c 0
 559.999355373 120.859375 628.880859375 218.424748595 628.880859375 364.561523438 c 0
 628.880859375 510.69829828 559.999355373 608.263671875 398.888671875 608.263671875 c 0
 237.777988377 608.263671875 168.896484375 510.69829828 168.896484375 364.561523438 c 0
35 364.561523438 m 0
 35 591.206054688 172.688476562 739.12109375 398.888671875 739.12109375 c 0
 625.088867188 739.12109375 762.77734375 591.206054688 762.77734375 364.561523438 c 0
 762.77734375 137.916992188 625.088867188 -9.998046875 398.888671875 -9.998046875 c 0
 172.688476562 -9.998046875 35 137.916992188 35 364.561523438 c 0
EndSplineSet
Validated: 5
EndChar

StartChar: guillemotleft
Encoding: 171 171 105
Width: 590
Flags: W
LayerCount: 2
Fore
SplineSet
24.5 281 m 1
 164.5 441 l 1
 366.5 441 l 1
 213.25 254 l 1
 366.5 67 l 1
 164.5 67 l 1
 24.5 227 l 1
 24.5 281 l 1
274.5 281 m 1
 414.5 441 l 1
 616.5 441 l 1
 463.25 254 l 1
 616.5 67 l 1
 414.5 67 l 1
 274.5 227 l 1
 274.5 281 l 1
EndSplineSet
Validated: 1
EndChar

StartChar: guillemotright
Encoding: 187 187 106
Width: 590
Flags: W
LayerCount: 2
Fore
SplineSet
565.5 227 m 1
 425.5 67 l 1
 223.5 67 l 1
 376.75 254 l 1
 223.5 441 l 1
 425.5 441 l 1
 565.5 281 l 1
 565.5 227 l 1
315.5 227 m 1
 175.5 67 l 1
 -26.5 67 l 1
 126.75 254 l 1
 -26.5 441 l 1
 175.5 441 l 1
 315.5 281 l 1
 315.5 227 l 1
EndSplineSet
Validated: 1
EndChar

StartChar: mu
Encoding: 181 181 107
Width: 595
Flags: W
HStem: -9.92285 167.399<189.505 320.969> 0 21G<350.277 551.277> 481.011 20G<44.5 245.5 350.277 551.277>
VStem: 44.5 201<-180 -9.92285 196.449 501.011> 144.5 101<56.9258 321.011> 350.277 201<207.449 501.011>
LayerCount: 2
Fore
SplineSet
44.5 -180 m 1x34
 44.5 501.010742188 l 1
 245.5 501.010742188 l 1
 245.5 -180 l 1
 44.5 -180 l 1x34
350.27734375 217.010742188 m 9
 405.77734375 207.44921875 l 17
 382.771484375 57.0107421875 349.294921875 -9.9228515625 232.27734375 -9.9228515625 c 0
 146.733398438 -9.9228515625 144.5 56.92578125 144.5 196.44921875 c 2
 144.5 321.010742188 l 1xac
 245.5 321.010742188 l 1
 245.5 213.44921875 l 2
 245.5 177.992402027 260.787358453 157.4765625 296.77734375 157.4765625 c 0xb4
 334.254406507 157.4765625 350.27734375 181.310861974 350.27734375 217.010742188 c 9
551.27734375 501.010742188 m 1
 551.27734375 0 l 1
 350.27734375 0 l 1x64
 350.27734375 501.010742188 l 1
 551.27734375 501.010742188 l 1
EndSplineSet
Validated: 5
EndChar

StartChar: acute
Encoding: 180 180 108
Width: 242
Flags: W
HStem: 495 246.008
VStem: -9.5 261
LayerCount: 2
Fore
SplineSet
111.5 495 m 1
 -9.5 515 l 1
 63.5 741.0078125 l 1
 251.5 711.0078125 l 1
 111.5 495 l 1
EndSplineSet
Validated: 1
EndChar

StartChar: macron
Encoding: 175 175 109
Width: 374
Flags: W
HStem: 589.008 142<9 365>
LayerCount: 2
Fore
SplineSet
365 589.0078125 m 1
 9 589.0078125 l 1
 9 731.0078125 l 1
 365 731.0078125 l 1
 365 589.0078125 l 1
EndSplineSet
Validated: 1
EndChar

StartChar: uni00AD
Encoding: 173 173 110
Width: 354
Flags: W
HStem: 189.05 180.9<9 345>
LayerCount: 2
Fore
SplineSet
345 189.05 m 1
 9 189.05 l 1
 9 369.95 l 1
 345 369.95 l 1
 345 189.05 l 1
EndSplineSet
Validated: 1
EndChar

StartChar: logicalnot
Encoding: 172 172 111
Width: 450
Flags: W
HStem: 279.25 157.5<30 274.25>
VStem: 274.25 161.5<165 279.25>
LayerCount: 2
Fore
SplineSet
435.75 165 m 1
 274.25 165 l 1
 274.25 279.25 l 1
 30 279.25 l 1
 30 436.75 l 1
 435.75 436.75 l 1
 435.75 165 l 1
EndSplineSet
Validated: 1
EndChar

StartChar: minus
Encoding: 8722 8722 112
Width: 450
Flags: W
HStem: 279.25 157.5<20 430>
LayerCount: 2
Fore
SplineSet
430 279.25 m 1
 20 279.25 l 5
 20 436.75 l 5
 430 436.75 l 1
 430 279.25 l 1
EndSplineSet
Validated: 1
EndChar

StartChar: notequal
Encoding: 8800 8800 113
Width: 450
Flags: W
HStem: 199.25 147.5<20 430> 369.25 147.5<20 430>
VStem: 20 410<199.25 346.75 369.25 516.75>
LayerCount: 2
Fore
SplineSet
29 108.530273438 m 1
 234 601.403320312 l 1
 415 601.403320312 l 1
 210 108.530273438 l 1
 29 108.530273438 l 1
EndSplineSet
Refer: 52 61 N 1 0 0 1 0 0 2
Validated: 5
EndChar

StartChar: partialdiff
Encoding: 8706 8706 114
Width: 620
Flags: W
HStem: -9.99805 180.438<250.527 341.394> 313.341 157.259<183.514 347.16> 551.369 187.623<179.846 333.997>
VStem: 24.5 215.566<180.056 294.897>
LayerCount: 2
Fore
SplineSet
358.466796875 251.890625 m 0
 358.466796875 290.297851562 341.239257812 313.340820312 306.766601562 313.340820312 c 0
 257.428710938 313.340820312 240.06640625 276.857421875 240.06640625 231.890625 c 0
 240.06640625 193.483398438 257.5859375 170.440429688 292.766601562 170.440429688 c 0
 341.397460938 170.440429688 358.466796875 206.923828125 358.466796875 251.890625 c 0
375.961328125 426.597070312 m 1
 372.760746665 501.011830887 344.419921875 551.369140625 268.38671875 551.369140625 c 4
 194.224609375 551.369140625 158.446289062 515.388671875 158.446289062 515.388671875 c 5
 92.7412109384 688.860351562 l 1
 92.7412109384 688.860351562 161.041807103 738.9921875 295.8671875 738.9921875 c 0
 488.583645354 738.9921875 595.665039062 612.671898034 595.665039062 385.331054688 c 0
 595.665039062 105.516837439 481.495941164 -9.998046875 288.8671875 -9.998046875 c 0
 124.917864478 -9.998046875 24.5 75.5176128099 24.5 229 c 0
 24.5 372.20164401 110.0703125 470.599609375 260.901367188 470.599609375 c 0
 340.446289062 470.599609375 375.961328125 426.597070312 375.961328125 426.597070312 c 1
EndSplineSet
Validated: 1
EndChar

StartChar: emptyset
Encoding: 8709 8709 115
Width: 797
Flags: W
HStem: -9.99805 143.462<346.592 507.467> 595.659 143.462<290.31 451.185>
VStem: 35 145.849<245.25 483.873> 616.929 145.849<245.25 483.873>
LayerCount: 2
Fore
SplineSet
180.848632812 364.561523438 m 0
 180.848632812 225.983001161 246.150349865 133.463867188 398.888671875 133.463867188 c 0
 551.626993885 133.463867188 616.928710938 225.983001161 616.928710938 364.561523438 c 0
 616.928710938 503.140045712 551.626993885 595.659179688 398.888671875 595.659179688 c 0
 246.150349865 595.659179688 180.848632812 503.140045712 180.848632812 364.561523438 c 0
35 364.561523438 m 0
 35 591.206054688 172.688476562 739.12109375 398.888671875 739.12109375 c 0
 625.088867188 739.12109375 762.77734375 591.206054688 762.77734375 364.561523438 c 0
 762.77734375 137.916992188 625.088867188 -9.998046875 398.888671875 -9.998046875 c 0
 172.688476562 -9.998046875 35 137.916992188 35 364.561523438 c 0
91 -90.873046875 m 1
 556 812 l 1
 706 812 l 1
 241 -90.873046875 l 1
 91 -90.873046875 l 1
EndSplineSet
Validated: 5
EndChar

StartChar: Delta
Encoding: 8710 8710 116
Width: 719
Flags: W
HStem: 0 193.8<240.25 478.75> 711.008 20G<235.977 473.388>
LayerCount: 2
Fore
SplineSet
694.5 0 m 1
 24.5 0 l 1
 24.5 183.8 l 1
 244 731.0078125 l 1
 465 731.0078125 l 1
 694.5 183.8 l 1
 694.5 0 l 1
478.75 193.8 m 1
 355.393554688 487.813476562 l 1
 240.25 193.8 l 1
 478.75 193.8 l 1
EndSplineSet
Validated: 1
EndChar

StartChar: plusminus
Encoding: 177 177 117
Width: 450
Flags: W
HStem: 123.85 147.5<30 146.25 303.75 420> 159.6 111.75<146.25 303.75> 327.65 157.5<30 420>
VStem: 30 390<123.85 271.35 327.65 485.15> 146.25 157.5<159.6 576.4>
LayerCount: 2
Fore
SplineSet
420 123.85 m 1xb0
 30 123.85 l 1
 30 271.35 l 1
 420 271.35 l 1
 420 123.85 l 1xb0
146.25 159.6 m 1x68
 146.25 576.4 l 1
 303.75 576.4 l 1
 303.75 159.6 l 1
 146.25 159.6 l 1x68
420 327.65 m 1x30
 30 327.65 l 1
 30 485.15 l 1
 420 485.15 l 1
 420 327.65 l 1x30
EndSplineSet
Validated: 5
EndChar

StartChar: degree
Encoding: 176 176 118
Width: 431
Flags: W
HStem: 400.07 141.876<185.605 247.839> 618.938 142.064<182.893 247.989>
VStem: 24.75 155.912<544.998 616.077> 251.115 155.912<545.143 615.934>
LayerCount: 2
Fore
SplineSet
180.662109375 580.854492188 m 0
 180.662109375 557.52345293 190.882260742 541.946679688 214.786132812 541.946679688 c 0
 240.234815573 541.946679688 251.115234375 557.52345293 251.115234375 580.854492188 c 0
 251.115234375 603.691451033 240.271816794 618.938085938 214.909179688 618.938085938 c 0
 190.919258685 618.938085938 180.662109375 603.691451033 180.662109375 580.854492188 c 0
24.75 580.629882812 m 0
 24.75 689.772696384 96.6944172107 761.001953125 214.888671875 761.001953125 c 0
 334.326087521 761.001953125 407.02734375 689.772696384 407.02734375 580.629882812 c 0
 407.02734375 471.374251811 334.326087521 400.0703125 214.888671875 400.0703125 c 0
 96.6944172107 400.0703125 24.75 471.374251811 24.75 580.629882812 c 0
EndSplineSet
Validated: 1
EndChar

StartChar: cedilla
Encoding: 184 184 120
Width: 317
VWidth: 999
Flags: W
HStem: -255 108<48.0811 155.735>
VStem: 23.7 263.3
LayerCount: 2
Fore
SplineSet
287 -131 m 0
 287 -209.970703125 237.749023438 -255 146 -255 c 0
 81.6005825701 -255 23.7 -232 23.7 -232 c 1
 54 -125 l 1
 54 -125 87.9546926398 -147 127 -147 c 0
 147.315673827 -147 157 -139.496656247 157 -125.8 c 0
 157 -109.85492228 147.265834331 -103.5 131.450195312 -103.5 c 0
 111.83468914 -103.5 105 -111 105 -111 c 1
 47 -92 l 1
 69 39 l 1
 162.650390625 39 l 1
 151.235351562 -27.25390625 l 1
 151.235351562 -27.25390625 157.302929702 -21 188.150390625 -21 c 4
 256.539930787 -21 287 -62.5234375 287 -131 c 0
EndSplineSet
Validated: 1
EndChar

StartChar: paragraph
Encoding: 182 182 121
Width: 682
Flags: W
HStem: 710.992 20G<202.444 648.889>
VStem: 19.5 386.389<388.968 557.502> 232.389 173.5<-179.994 285.295> 475.389 173.5<-179.994 561.192>
LayerCount: 2
Fore
SplineSet
405.888671875 -179.994140625 m 1xb0
 232.388671875 -179.994140625 l 1
 232.388671875 282.9921875 l 1xb0
 113.515119068 292.9921875 19.5 337.833007812 19.5 499.432617188 c 0xd0
 19.5 667.032226562 131.5 730.9921875 273.388671875 730.9921875 c 2
 648.888671875 730.9921875 l 1
 648.888671875 -179.994140625 l 1
 475.388671875 -179.994140625 l 1
 475.388671875 561.1921875 l 1
 405.888671875 561.1921875 l 1
 405.888671875 -179.994140625 l 1xb0
EndSplineSet
Validated: 1
EndChar

StartChar: ordfeminine
Encoding: 170 170 122
Width: 402
Flags: W
HStem: 369.992 103.8<92.5 204.915> 523.092 67.75<166.718 222> 616.792 122.2<62.546 203.762>
VStem: 9.5 153.8<442.916 520.187> 210 37<418.092 490.242> 210 12<523.092 590.842>
LayerCount: 2
Fore
SplineSet
210 505.2421875 m 1xf4
 210 486.225908429 200.833333333 473.7921875 187.5 473.7921875 c 0
 170.382926829 473.7921875 163.3 480.914768145 163.3 492.1921875 c 0
 163.3 517.474005682 177.563551401 523.0921875 222 523.0921875 c 1
 222 590.8421875 l 1xf4
 98.1210762326 590.8421875 9.5 575.269306145 9.5 475.9921875 c 0
 9.5 411.9921875 55.5 369.9921875 129.5 369.9921875 c 0
 209.36328125 369.9921875 247 418.0921875 247 490.2421875 c 1xf8
 210 505.2421875 l 1xf4
210 564.3421875 m 2
 210 459.9921875 l 2xf8
 210 398.9921875 245.84787234 369.9921875 318.7 369.9921875 c 0
 377.347887323 369.9921875 405.45 386.9921875 405.45 386.9921875 c 1
 399.45 488.9921875 l 1
 399.45 488.9921875 394.384210527 484.9921875 385.7 484.9921875 c 0
 370.700139509 484.9921875 364.700195312 493.340013593 364.700195312 516.9921875 c 6
 364.700195312 516.9921875 364.700195312 595.9921875 364.7 595.9921875 c 2
 364.7 682.197861259 312.206875 738.9921875 186 738.9921875 c 0
 96.7750000006 738.9921875 35.5 705.9921875 35.5 705.9921875 c 1
 63.5 598.0421875 l 1
 63.5 598.0421875 102.893103449 616.7921875 158.7 616.7921875 c 0
 194.279032257 616.7921875 210 600.718800403 210 564.3421875 c 2
EndSplineSet
Validated: 5
EndChar

StartChar: ordmasculine
Encoding: 186 186 123
Width: 418
Flags: W
HStem: 367.992 131.1<176.271 241.93> 607.892 131.1<176.028 242.087>
VStem: 23 145.4<504.574 601.984> 249.6 145.4<504.574 601.984>
LayerCount: 2
Fore
SplineSet
168.4 554.9921875 m 0
 168.4 520.998944258 180.58 499.0921875 209 499.0921875 c 0
 238 499.0921875 249.6 520.998944258 249.6 554.9921875 c 0
 249.6 586.285145246 237.42 607.8921875 209 607.8921875 c 0
 180.58 607.8921875 168.4 586.285145246 168.4 554.9921875 c 0
23 555.9921875 m 0
 23 667.025895365 94 738.9921875 209 738.9921875 c 0
 325 738.9921875 395 667.025895365 395 555.9921875 c 0
 395 441.959400615 325 367.9921875 209 367.9921875 c 0
 94 367.9921875 23 441.959400615 23 555.9921875 c 0
EndSplineSet
Validated: 1
EndChar

StartChar: arrowleft
Encoding: 8592 8592 124
Width: 550
Flags: W
HStem: 279.14 159<266.499 537.749> 289.14 139<150.249 421.499>
LayerCount: 2
Fore
SplineSet
537.749023438 279.139648438 m 1x80
 150.249023438 289.139648438 l 1
 150.249023438 428.139648438 l 1x40
 537.749023438 438.139648438 l 1
 537.749023438 279.139648438 l 1x80
199.561523438 358.638671875 m 1
 391.348632812 206.6171875 l 1
 266.510742188 81.779296875 l 1
 12.2509765625 358.638671875 l 1
 266.510742188 635.5 l 1
 391.348632812 510.66015625 l 1
 199.561523438 358.638671875 l 1
EndSplineSet
Validated: 5
EndChar

StartChar: product
Encoding: 8719 8719 128
Width: 719
Flags: W
HStem: 548.258 182.75<255.5 463.5>
VStem: 44.5 211<-179.994 548.258> 463.5 211<-179.994 548.258>
LayerCount: 2
Fore
SplineSet
674.5 731.0078125 m 1
 674.5 -179.994140625 l 1
 463.5 -179.994140625 l 1
 463.5 548.2578125 l 1
 255.5 548.2578125 l 1
 255.5 -179.994140625 l 1
 44.5 -179.994140625 l 1
 44.5 731.0078125 l 1
 674.5 731.0078125 l 1
EndSplineSet
Validated: 1
EndChar

StartChar: summation
Encoding: 8721 8721 129
Width: 634
Flags: W
HStem: -179.994 183.8<287.05 614.5> 547.208 183.8<307.05 614.5>
LayerCount: 2
Back
SplineSet
264 585.0078125 m 5
 394 410 l 5
 394 319 l 5
 244 146 l 5
 544 146 l 5
 544 0 l 5
 55 0 l 5
 55 161 l 5
 235 358 l 5
 55 589 l 5
 55 731.0078125 l 5
 544 731.0078125 l 5
 544 585.0078125 l 5
 264 585.0078125 l 5
EndSplineSet
Fore
SplineSet
307.05 547.2078125 m 1
 435.05 330 l 1
 435.05 239 l 1
 287.05 3.805859375 l 1
 614.5 3.805859375 l 1
 614.5 -179.994140625 l 1
 44.5 -179.994140625 l 1
 44.5 18.805859375 l 1
 233 278 l 1
 44.5 551.2 l 1
 44.5 731.0078125 l 1
 614.5 731.0078125 l 1
 614.5 547.2078125 l 1
 307.05 547.2078125 l 1
EndSplineSet
Validated: 1
EndChar

StartChar: approxequal
Encoding: 8776 8776 130
Width: 450
VWidth: 999
Flags: W
HStem: 146 172<236.04 358.428> 195 171<99.9489 212.411> 356 172<236.04 358.428> 405 171<99.9489 212.411>
LayerCount: 2
Fore
SplineSet
438 245 m 5x80
 438 245 386.065429688 146 306 146 c 4x80
 228.461914062 146 202.615234375 195 146 195 c 4
 116.095703125 195 91.7001953125 166.25 91.7001953125 166.25 c 5
 12 295.5 l 5
 12 295.5 69.3447265625 366 144 366 c 4x40
 218.805664062 366 250.17578125 318 300.849609375 318 c 4
 332.736328125 318 349.049804688 341.700195312 349.049804688 341.700195312 c 5
 438 245 l 5x80
438 455 m 5
 438 455 386.065429688 356 306 356 c 4x20
 228.461914062 356 202.615234375 405 146 405 c 4
 116.095703125 405 91.7001953125 376.25 91.7001953125 376.25 c 5
 12 505.5 l 5
 12 505.5 69.3447265625 576 144 576 c 4x10
 218.805664062 576 250.17578125 528 300.849609375 528 c 4x20
 332.736328125 528 349.049804688 551.700195312 349.049804688 551.700195312 c 5
 438 455 l 5
EndSplineSet
Validated: 1
EndChar

StartChar: perthousand
Encoding: 8240 8240 131
Width: 1263
Flags: W
HStem: -9.99805 143.03<677.844 755.837 999.467 1077.46> 0 21G<190.5 352.128> 259.822 143.029<677.49 756.204 999.113 1077.83> 326.143 143.029<189.283 274.411> 595.962 143.03<188.899 274.816> 711.008 20G<603.872 765.5>
VStem: 24.5 152.91<480.256 585.654> 287.66 150.8<480.646 585.278> 515.5 151.91<143.742 249.873> 840.75 73.46<83.7026 310.419> 1088.66 150.8<143.742 249.873>
LayerCount: 2
Fore
SplineSet
987.91015625 196.981445312 m 0xa3e0
 987.91015625 151.10462745 1010.32929689 133.032226562 1037.73046875 133.032226562 c 0
 1065.05877927 133.032226562 1088.66015625 151.10462745 1088.66015625 196.981445312 c 0
 1088.66015625 243.065129997 1065.05877927 259.822265625 1037.73046875 259.822265625 c 0
 1010.32929689 259.822265625 987.91015625 243.065129997 987.91015625 196.981445312 c 0xa3e0
840.75 196.981445312 m 0
 840.75 310.419472285 916.269539307 402.8515625 1047.73046875 402.8515625 c 0
 1176.03475452 402.8515625 1239.45996094 310.419472285 1239.45996094 196.981445312 c 0
 1239.45996094 83.7026221643 1176.03475452 -9.998046875 1047.73046875 -9.998046875 c 0
 916.269539307 -9.998046875 840.75 83.7026221643 840.75 196.981445312 c 0
667.41015625 196.981445312 m 0
 667.41015625 151.10444746 689.829014094 133.032226562 717.23046875 133.032226562 c 0
 744.558732526 133.032226562 768.16015625 151.10444746 768.16015625 196.981445312 c 0
 768.16015625 243.06503404 744.558732526 259.822265625 717.23046875 259.822265625 c 0
 689.829014094 259.822265625 667.41015625 243.06503404 667.41015625 196.981445312 c 0
515.5 196.981445312 m 0
 515.5 310.419926377 578.925197325 402.8515625 707.23046875 402.8515625 c 0
 838.690402589 402.8515625 914.209960938 310.419472285 914.209960938 196.981445312 c 0
 914.209960938 83.7026221643 838.690402589 -9.998046875 707.23046875 -9.998046875 c 0
 578.925197325 -9.998046875 515.5 83.7022970889 515.5 196.981445312 c 0
177.41015625 533.122070312 m 0
 177.41015625 487.244948485 201.741489971 469.171875 231.48046875 469.171875 c 0
 261.625820003 469.171875 287.66015625 487.244948485 287.66015625 533.122070312 c 0
 287.66015625 579.204729227 261.625820003 595.961914062 231.48046875 595.961914062 c 0x1be0
 201.741489971 595.961914062 177.41015625 579.204729227 177.41015625 533.122070312 c 0
24.5 533.122070312 m 0
 24.5 646.560551377 100.019754285 738.9921875 231.48046875 738.9921875 c 0
 362.940167484 738.9921875 438.459960938 646.560551377 438.459960938 533.122070312 c 0
 438.459960938 419.842922089 362.940167484 326.142578125 231.48046875 326.142578125 c 0
 100.019754285 326.142578125 24.5 419.842922089 24.5 533.122070312 c 0
EndSplineSet
Refer: 138 8260 N 1 0 0 1 301 0 2
Validated: 5
EndChar

StartChar: uni2031
Encoding: 8241 8241 132
Width: 1573
Flags: W
HStem: -9.99805 143.03<677.844 755.837 993.194 1072.11 1309.47 1387.46> 0 21G<190.5 352.128> 259.822 143.029<677.49 756.204 992.84 1072.48 1309.11 1387.83> 326.143 143.029<189.283 274.411> 595.962 143.03<188.899 274.816> 711.008 20G<603.872 765.5>
VStem: 24.5 152.91<480.256 585.654> 287.66 150.8<480.646 585.278> 515.5 151.91<143.742 249.873> 846 68.21<83.7026 310.419> 1150.75 68.21<83.7026 310.419> 1398.66 150.8<143.742 249.873>
LayerCount: 2
Fore
SplineSet
1297.91015625 196.981445312 m 0xa3f0
 1297.91015625 151.10462745 1320.32929688 133.032226562 1347.73046875 133.032226562 c 0
 1375.05877927 133.032226562 1398.66015625 151.10462745 1398.66015625 196.981445312 c 0
 1398.66015625 243.065129997 1375.05877927 259.822265625 1347.73046875 259.822265625 c 0
 1320.32929688 259.822265625 1297.91015625 243.065129997 1297.91015625 196.981445312 c 0xa3f0
1150.75 196.981445312 m 0
 1150.75 310.419472285 1226.2695393 402.8515625 1357.73046875 402.8515625 c 0
 1486.03475452 402.8515625 1549.45996094 310.419472285 1549.45996094 196.981445312 c 0
 1549.45996094 83.7026221643 1486.03475452 -9.998046875 1357.73046875 -9.998046875 c 0
 1226.2695393 -9.998046875 1150.75 83.7026221643 1150.75 196.981445312 c 0
982.66015625 196.981445312 m 0
 982.66015625 151.10462745 1005.07929687 133.032226562 1032.48046875 133.032226562 c 0
 1059.80877927 133.032226562 1083.41015625 151.10462745 1083.41015625 196.981445312 c 0
 1083.41015625 243.065129997 1059.80877927 259.822265625 1032.48046875 259.822265625 c 0
 1005.07929687 259.822265625 982.66015625 243.065129997 982.66015625 196.981445312 c 0
846 196.981445312 m 0
 846 310.419472285 907.688476562 402.8515625 1032.48046875 402.8515625 c 0
 1157.27148438 402.8515625 1218.95996094 310.419472285 1218.95996094 196.981445312 c 0
 1218.95996094 83.7026221643 1157.27148438 -9.998046875 1032.48046875 -9.998046875 c 0
 907.688476562 -9.998046875 846 83.7026221643 846 196.981445312 c 0
667.41015625 196.981445312 m 0
 667.41015625 151.10444746 689.829014094 133.032226562 717.23046875 133.032226562 c 0
 744.558732526 133.032226562 768.16015625 151.10444746 768.16015625 196.981445312 c 0
 768.16015625 243.06503404 744.558732526 259.822265625 717.23046875 259.822265625 c 0
 689.829014094 259.822265625 667.41015625 243.06503404 667.41015625 196.981445312 c 0
515.5 196.981445312 m 0
 515.5 310.419926377 578.925197325 402.8515625 707.23046875 402.8515625 c 0
 838.690402589 402.8515625 914.209960938 310.419472285 914.209960938 196.981445312 c 0
 914.209960938 83.7026221643 838.690402589 -9.998046875 707.23046875 -9.998046875 c 0
 578.925197325 -9.998046875 515.5 83.7022970889 515.5 196.981445312 c 0
177.41015625 533.122070312 m 0
 177.41015625 487.244948485 201.741489971 469.171875 231.48046875 469.171875 c 0
 261.625820003 469.171875 287.66015625 487.244948485 287.66015625 533.122070312 c 0
 287.66015625 579.204729227 261.625820003 595.961914062 231.48046875 595.961914062 c 0x1bf0
 201.741489971 595.961914062 177.41015625 579.204729227 177.41015625 533.122070312 c 0
24.5 533.122070312 m 0
 24.5 646.560551377 100.019754285 738.9921875 231.48046875 738.9921875 c 0
 362.940167484 738.9921875 438.459960938 646.560551377 438.459960938 533.122070312 c 0
 438.459960938 419.842922089 362.940167484 326.142578125 231.48046875 326.142578125 c 0
 100.019754285 326.142578125 24.5 419.842922089 24.5 533.122070312 c 0
EndSplineSet
Refer: 138 8260 N 1 0 0 1 301 0 2
Validated: 5
EndChar

StartChar: uni203D
Encoding: 8253 8253 133
Width: 566
Flags: W
HStem: -10 228.449<167.41 308.589> 287.067 145.982<212.426 324.41> 556.479 182.514<67.0443 355.702>
VStem: 124.387 227.227<33.2547 175.194> 160 158<634.807 791.008> 184.2 109.6<251 407.201> 336.596 205.774<445.567 534.877>
LayerCount: 2
Fore
SplineSet
184.2 251 m 1xe4
 160 791.0078125 l 1
 318 791.0078125 l 1xe8
 293.8 251 l 1
 184.2 251 l 1xe4
124.38671875 104.224609375 m 0xf0
 124.38671875 173.423218344 169.170344773 218.44921875 237.999023438 218.44921875 c 0
 306.8286318 218.44921875 351.61328125 173.423218344 351.61328125 104.224609375 c 0
 351.61328125 35.0248038609 306.8286318 -10 237.999023438 -10 c 0
 169.170344773 -10 124.38671875 35.0248038609 124.38671875 104.224609375 c 0xf0
212.422851562 284.5 m 1
 203.65625 437.46875 l 1
 203.65625 437.46875 233.468744596 433.048828125 270.8984375 433.048828125 c 0
 315.334351304 433.048828125 336.595703125 454.657526913 336.595703125 494.945507812 c 0
 336.595703125 537.620894718 294.096415409 556.478515625 223.74453125 556.478515625 c 0
 141.077235316 556.478515625 71.123828125 532.958007812 71.123828125 532.958007812 c 1
 20.2412109375 705.811523438 l 1
 20.2412109375 705.811523438 101.0703125 738.9921875 229.89453125 738.9921875 c 0
 417.308338098 738.9921875 542.370117188 658.105911537 542.370117188 496.810742188 c 0xe2
 542.370117188 372.387228509 439.581984805 287.0671875 290.3 287.0671875 c 0
 216.932255923 287.0671875 212.422851562 284.5 212.422851562 284.5 c 1
EndSplineSet
Validated: 5
EndChar

StartChar: lira
Encoding: 8356 8356 134
Width: 553
Flags: W
HStem: 0 182.8<241.319 523> 235 86<18.5 424> 365 86<18.5 424> 565.871 173.591<278.6 460.56>
VStem: 28.4014 233.929<451.772 611.004> 95.3242 199.407<268.899 363.427>
LayerCount: 2
Fore
SplineSet
523 0 m 1xf4
 9 0 l 1
 9 146 l 1
 9 146 95.32421875 217.418123558 95.32421875 320.379882812 c 4xf4
 95.32421875 410.298172267 28.4013671875 433.682086681 28.4013671875 547.185546875 c 0
 28.4013671875 671.3984375 145.041520631 739.461914062 302.80859375 739.461914062 c 0
 460.683516232 739.461914062 511.20703125 699.405273438 511.20703125 699.405273438 c 1
 485.9375 534.274414062 l 1
 485.9375 534.274414062 419.537682066 565.87109375 349.05859375 565.87109375 c 0
 286.484473199 565.87109375 262.330078125 542.714496635 262.330078125 505.524414062 c 0xf8
 262.330078125 456.986328125 294.731445312 426.369240756 294.731445312 351.658203125 c 0
 294.731445312 247.025842015 241.319335938 182.8 241.319335938 182.8 c 1
 523 182.8 l 1
 523 0 l 1xf4
424 235 m 1
 18.5 235 l 1
 18.5 321 l 1
 424 321 l 1
 424 235 l 1
424 365 m 1
 18.5 365 l 1
 18.5 451 l 1
 424 451 l 1
 424 365 l 1
EndSplineSet
Validated: 5
EndChar

StartChar: uni20B5
Encoding: 8373 8373 135
Width: 623
Flags: W
HStem: -9.99805 79.4678<284 465> 655 84.1211<284 465>
VStem: 24.5 226.849<262.235 468.651> 284 181<-105 69.4697 655 829.47>
LayerCount: 2
Fore
SplineSet
24.5 364.561523438 m 0
 24.5 591.206054688 155.395987497 739.12109375 385.888671875 739.12109375 c 0
 537.397841668 739.12109375 599.681640625 672.891601562 599.681640625 672.891601562 c 1
 527.85546875 493.138671875 l 1
 527.85546875 493.138671875 486.744358566 544.659179688 403.388671875 544.659179688 c 4
 296.884050581 544.659179688 251.348632812 472.55771636 251.348632812 364.561523438 c 0
 251.348632812 256.565330515 299.879012832 184.463867188 413.388671875 184.463867188 c 0
 499.768252484 184.463867188 545.518554688 230.595703125 545.518554688 230.595703125 c 1
 602.827148438 44.595703125 l 1
 602.827148438 44.595703125 536.561329272 -9.998046875 385.888671875 -9.998046875 c 0
 155.395987497 -9.998046875 24.5 137.916992188 24.5 364.561523438 c 0
284 -105 m 1
 284 69.4697265625 l 1
 465 69.4697265625 l 1
 465 -105 l 1
 284 -105 l 1
284 655 m 1
 284 829.469726562 l 1
 465 829.469726562 l 1
 465 655 l 1
 284 655 l 1
EndSplineSet
Validated: 5
EndChar

StartChar: uni20B2
Encoding: 8370 8370 136
Width: 739
Flags: W
HStem: -9.99805 79.4678<284 465> 274.45 170.55<345 454.919 650.527 724.5> 274.45 19.1457<454.919 650.527> 655 84.1211<284 465>
VStem: 24.5 226.849<244.533 476.014> 284 181<-105 69.4697 655 829.47>
LayerCount: 2
Fore
SplineSet
284 -105 m 1x9c
 284 69.4697265625 l 1
 465 69.4697265625 l 1
 465 -105 l 1
 284 -105 l 1x9c
284 655 m 1
 284 829.469726562 l 1
 465 829.469726562 l 1
 465 655 l 1
 284 655 l 1
724.5 274.45 m 1xdc
 345 274.45 l 1
 345 445 l 1
 724.5 445 l 1
 724.5 274.45 l 1xdc
24.5 364.561523438 m 0
 24.5 591.206054688 158.59385923 739.12109375 378.888671875 739.12109375 c 0
 542.799330987 739.12109375 610.181640625 672.891601562 610.181640625 672.891601562 c 1
 528.90546875 496.288671875 l 1
 528.90546875 496.288671875 482.658247433 547.809179688 388.888671875 547.809179688 c 0
 292.541070463 547.809179688 251.348632812 474.446624938 251.348632812 364.561523438 c 4
 251.348632812 256.565330515 283.114823977 184.463867188 369.888671875 184.463867188 c 0
 435.695305664 184.463867188 462.03125 207.848157557 462.03125 253 c 0
 462.03125 279.203676325 454.918945312 293.595703125 454.918945312 293.595703125 c 1
 650.52734375 293.595703125 l 1xbc
 650.52734375 293.595703125 662.732421875 253.24972273 662.732421875 211 c 0
 662.732421875 66.2029920559 568.485003072 -9.998046875 369.888671875 -9.998046875 c 0
 149.893190659 -9.998046875 24.5 137.916992188 24.5 364.561523438 c 0
EndSplineSet
Validated: 5
EndChar

StartChar: uni20BA
Encoding: 8378 8378 137
Width: 648
Flags: W
HStem: 0 21G<84.5 300> 711.008 20G<84.5 295.5>
VStem: 84.5 211<182.75 731.008>
LayerCount: 2
Fore
SplineSet
446 360.25 m 1
 19.5 239.75 l 1
 19.5 325.75 l 1
 446 446.25 l 1
 446 360.25 l 1
446 490.25 m 1
 19.5 369.75 l 1
 19.5 455.75 l 1
 446 576.25 l 1
 446 490.25 l 1
295.5 182.75 m 1
 300 182.75 l 2
 441.603260869 182.75 444.75 325.25 444.75 325.25 c 1
 629.25 293.9 l 1
 629.25 293.9 620.269595178 -3.7096714589e-14 300 0 c 2
 84.5 0 l 1
 84.5 731.0078125 l 1
 295.5 731.0078125 l 1
 295.5 182.75 l 1
EndSplineSet
Validated: 5
EndChar

StartChar: fraction
Encoding: 8260 8260 138
Width: 304
Flags: W
HStem: 0 21G<-110.5 51.1278> 711.008 20G<302.872 464.5>
LayerCount: 2
Fore
SplineSet
-110.5 0 m 1
 314.5 731.0078125 l 1
 464.5 731.0078125 l 1
 39.5 0 l 1
 -110.5 0 l 1
EndSplineSet
Validated: 1
EndChar

StartChar: endash
Encoding: 8211 8211 139
Width: 570
Flags: W
HStem: 189.05 180.9<19.5 550.5>
LayerCount: 2
Fore
SplineSet
19.5 189.05 m 1
 19.5 369.95 l 1
 550.5 369.95 l 1
 550.5 189.05 l 1
 19.5 189.05 l 1
EndSplineSet
Validated: 1
EndChar

StartChar: emdash
Encoding: 8212 8212 140
Width: 820
Flags: W
HStem: 189.05 180.9<40.5 779.5>
LayerCount: 2
Fore
SplineSet
40.5 189.05 m 1
 40.5 369.95 l 1
 779.5 369.95 l 1
 779.5 189.05 l 1
 40.5 189.05 l 1
EndSplineSet
Validated: 1
EndChar

StartChar: Euro
Encoding: 8364 8364 141
Width: 683
Flags: W
HStem: -9.99805 194.462<382.209 564.928> 260 86<19.5 475.957> 390 86<19.5 498.879> 544.659 194.462<375.114 544.345>
LayerCount: 2
Fore
SplineSet
475.95703125 260 m 1
 19.5 260 l 1
 19.5 346 l 1
 491.12109375 346 l 1
 475.95703125 260 l 1
498.87890625 390 m 1
 19.5 390 l 1
 19.5 476 l 1
 514.04296875 476 l 1
 498.87890625 390 l 1
84.5 364.561523438 m 0
 84.5 591.206054688 215.395900263 739.12109375 445.888671875 739.12109375 c 0
 597.397460938 739.12109375 659.681640625 672.891601562 659.681640625 672.891601562 c 1
 587.85546875 493.138671875 l 1
 587.85546875 493.138671875 543.440929933 544.659179688 453.388671875 544.659179688 c 0
 353.888860323 544.659179688 311.348632812 472.55771636 311.348632812 364.561523438 c 4
 311.348632812 256.565330515 356.734059211 184.463867188 462.888671875 184.463867188 c 0
 556.132386758 184.463867188 605.518554688 230.595703125 605.518554688 230.595703125 c 1
 662.827148438 44.595703125 l 1
 662.827148438 44.595703125 596.561523438 -9.998046875 445.888671875 -9.998046875 c 0
 215.395900263 -9.998046875 84.5 137.916992188 84.5 364.561523438 c 0
EndSplineSet
Validated: 5
EndChar

StartChar: uni20AD
Encoding: 8365 8365 142
Width: 665
Flags: W
HStem: 0 21G<101.5 312.5 412.772 665.5> 284.5 142<40.5 624.5> 711.008 20G<101.5 312.5 410.472 655.5>
VStem: 101.5 211<0 331 381 731.008> 261.5 51<331 381>
LayerCount: 2
Fore
SplineSet
624.5 284.5 m 1xe0
 40.5 284.5 l 1
 40.5 426.5 l 1
 624.5 426.5 l 1
 624.5 284.5 l 1xe0
422.5 0 m 1
 261.5 331 l 5
 261.5 381 l 5xe8
 419.5 731.0078125 l 1
 655.5 731.0078125 l 1
 443.5 372 l 1
 665.5 0 l 1
 422.5 0 l 1
101.5 0 m 1xf0
 101.5 731.0078125 l 1
 312.5 731.0078125 l 1
 312.5 0 l 1
 101.5 0 l 1xf0
EndSplineSet
Validated: 5
EndChar

StartChar: uni20B9
Encoding: 8377 8377 143
Width: 574
Flags: W
HStem: 0 21G<295.045 515.5> 239.2 170.802<19.5 231.464> 450 86<19.5 554.5> 548.949 182.058<19.5 247.031>
VStem: 264.429 211.849<400.236 602.566>
LayerCount: 2
Fore
SplineSet
144 239.2 m 2
 19.5 239.2 l 1
 19.5 410.0015625 l 1
 166.888671875 410.111914062 l 2
 222.584635795 410.153221196 264.428710938 422.509738595 264.428710938 479.061523438 c 0
 264.428710938 535.797919291 222.687141636 548.808272885 167.888671875 548.845898438 c 2
 19.5 548.949414062 l 1
 19.5 731.0078125 l 1
 183.888671875 731.0078125 l 2
 337.516961484 731.0078125 476.27734375 669.334960938 476.27734375 504.561523438 c 0
 476.27734375 372.925734629 376.688476562 331.276367188 376.688476562 331.276367188 c 1
 376.688476562 331.276367188 425.873619312 311.067884373 465.413964845 173.833398437 c 2
 515.5 0 l 1
 300.5 0 l 1
 255.5 165 l 2
 236.914040545 233.148518002 220.165492959 239.2 144 239.2 c 2
554.5 450 m 1
 19.5 450 l 1
 19.5 536 l 1
 554.5 536 l 1
 554.5 450 l 1
EndSplineSet
Validated: 5
EndChar

StartChar: uni20B4
Encoding: 8372 8372 144
Width: 677
Flags: W
HStem: -10 176.012<266.297 484.202> 255 86<19.5 657.5> 385 86<311.522 657.5> 562.109 177.012<177.499 373.179>
VStem: 49 207.232<178.907 246.75> 384.031 213.362<478.209 550.272>
LayerCount: 2
Fore
SplineSet
657.5 255 m 1
 19.5 255 l 1
 19.5 341 l 1
 657.5 341 l 1
 657.5 255 l 1
657.5 385 m 1
 19.5 385 l 1
 19.5 471 l 1
 657.5 471 l 1
 657.5 385 l 1
321.90913086 263.49921875 m 0
 272.976403221 249.66833636 256.231640625 236.959318188 256.231640625 214.5 c 0
 256.231640625 182.506227579 281.580004821 166.011914062 334.823242188 166.011914062 c 0
 456.943244035 166.011914062 556.546875 213.482421875 556.546875 213.482421875 c 1
 593.703125 42.2294921875 l 1
 593.703125 42.2294921875 496.331054688 -10 342.71484375 -10 c 0
 151.258538273 -10 49 78.0048702755 49 219.35 c 0
 49 340.826068936 105.157745334 419.034784085 311.522460938 457.931054688 c 0
 369.916681827 467.8281421 384.031054688 495.896061828 384.031054688 512.5 c 0
 384.031054688 543.120463164 359.905414718 562.109179688 306.25625 562.109179688 c 0
 201.035455503 562.109179688 129.6484375 519.588671875 129.6484375 519.588671875 c 1
 87.2744140625 688.891601562 l 1
 87.2744140625 688.891601562 162.534232064 739.12109375 317.286132812 739.12109375 c 0
 491.40591683 739.12109375 597.392578125 650.470074956 597.392578125 512.8 c 0
 597.392578125 388.829589923 534.103710937 322.617333985 321.90913086 263.49921875 c 0
EndSplineSet
Validated: 5
EndChar

StartChar: colonmonetary
Encoding: 8353 8353 145
Width: 623
Flags: W
HStem: -9.99805 79.4678<155.396 262.378 323.378 432.878> 544.659 194.462<267.466 425.945> 655 84.1211<256.122 365.622 426.622 536.122>
VStem: 24.5 226.849<260.473 468.651>
LayerCount: 2
Fore
SplineSet
292.614257812 -105 m 1x90
 323.377929688 69.4697265625 l 1
 432.877929688 69.4697265625 l 1
 402.114257812 -105 l 1
 292.614257812 -105 l 1x90
426.622070312 655 m 1xb0
 457.385742188 829.469726562 l 1
 566.885742188 829.469726562 l 1
 536.122070312 655 l 1
 426.622070312 655 l 1xb0
24.5 364.561523438 m 0
 24.5 591.206054688 155.395987497 739.12109375 385.888671875 739.12109375 c 0
 537.397841668 739.12109375 599.681640625 672.891601562 599.681640625 672.891601562 c 1
 527.85546875 493.138671875 l 1
 527.85546875 493.138671875 486.744358566 544.659179688 403.388671875 544.659179688 c 4xd0
 296.884050581 544.659179688 251.348632812 472.55771636 251.348632812 364.561523438 c 0
 251.348632812 256.565330515 296.734302467 184.463867188 402.888671875 184.463867188 c 0
 496.132601238 184.463867188 545.518554688 230.595703125 545.518554688 230.595703125 c 1
 602.827148438 44.595703125 l 1
 602.827148438 44.595703125 536.561329272 -9.998046875 385.888671875 -9.998046875 c 0
 155.395987497 -9.998046875 24.5 137.916992188 24.5 364.561523438 c 0
122.114257812 -105 m 1
 152.877929688 69.4697265625 l 1
 262.377929688 69.4697265625 l 1
 231.614257812 -105 l 1
 122.114257812 -105 l 1
256.122070312 655 m 1xb0
 286.885742188 829.469726562 l 1
 396.385742188 829.469726562 l 1
 365.622070312 655 l 1
 256.122070312 655 l 1xb0
EndSplineSet
Validated: 5
EndChar

StartChar: zero.inferior
Encoding: 8320 8320 148
Width: 456
Flags: W
HStem: -358 129<179.264 276.736> 14 129<179.264 276.736>
VStem: 16 137<-200.555 -15.0982> 303 137<-200.555 -15.0982>
LayerCount: 2
Fore
SplineSet
153 -108 m 0
 153 -181 175 -229 228 -229 c 0
 281 -229 303 -181 303 -108 c 0
 303 -35 281 14 228 14 c 0
 175 14 153 -35 153 -108 c 0
16 -108 m 0
 16 44 89 143 228 143 c 0
 367 143 440 44 440 -108 c 0
 440 -260 367 -358 228 -358 c 0
 89 -358 16 -260 16 -108 c 0
EndSplineSet
Validated: 1
EndChar

StartChar: one.inferior
Encoding: 8321 8321 149
Width: 276
Flags: W
VStem: 106 141<-350 -4>
LayerCount: 2
Fore
SplineSet
247 137 m 1
 247 -350 l 1
 106 -350 l 1
 106 -4 l 1
 28 -47 l 5
 -7 57 l 5
 124 137 l 1
 247 137 l 1
EndSplineSet
Validated: 1
EndChar

StartChar: two.inferior
Encoding: 8322 8322 150
Width: 404
Flags: W
HStem: -350 122<198 392> 18 125<98.0017 231.211>
VStem: 238 149<-62.5145 10.2743>
LayerCount: 2
Fore
SplineSet
238 -26 m 0
 238 1 223 18 178 18 c 0
 118 18 75 -18 75 -18 c 1
 36 101 l 1
 36 101 99 143 191 143 c 0
 313 143 387 92 387 -9 c 0
 387 -104 333 -149 239 -193 c 0
 202 -210 200 -224 198 -228 c 1
 392 -228 l 1
 392 -350 l 1
 32 -350 l 1
 32 -314 l 2
 32 -203 90 -139 199 -76 c 0
 224 -62 238 -43 238 -26 c 0
EndSplineSet
Validated: 1
EndChar

StartChar: three.inferior
Encoding: 8323 8323 151
Width: 396
Flags: W
HStem: -358 123<67.2158 220.37> -157 110<106 215.137> -10 21G<52.9655 59> 17 126<68.8991 215.201>
VStem: 217 153<-40.9364 13.5432> 226 154<-228.225 -165.8>
LayerCount: 2
Fore
SplineSet
150 -47 m 2xf4
 201 -47 217 -36 217 -14 c 0
 217 4 206 17 170 17 c 0
 101 17 59 -10 59 -10 c 5
 24 106 l 5
 24 106 80 143 177 143 c 0
 297 143 370 95 370 5 c 0xf8
 370 -76 296 -100 296 -100 c 1
 296 -100 380 -123 380 -214 c 0
 380 -317 298 -358 175 -358 c 0
 72 -358 10 -323 10 -323 c 1
 46 -202 l 1
 46 -202 93 -235 167 -235 c 0
 208 -235 226 -220 226 -194 c 0
 226 -169 200 -157 150 -157 c 2
 105 -157 l 1
 106 -47 l 1
 150 -47 l 2xf4
EndSplineSet
Validated: 1
EndChar

StartChar: four.inferior
Encoding: 8324 8324 152
Width: 439
Flags: W
HStem: -251 113<159 427>
VStem: 225 138<-350 -52>
LayerCount: 2
Fore
SplineSet
363 137 m 5
 363 -350 l 5
 225 -350 l 5
 225 -52 l 5
 159 -138 l 1
 427 -138 l 1
 427 -251 l 1
 36 -251 l 1
 11 -158 l 1
 226 137 l 5
 363 137 l 5
EndSplineSet
Validated: 5
EndChar

StartChar: five.inferior
Encoding: 8325 8325 153
Width: 396
Flags: W
HStem: -357 124<67.7245 226.752> -134 104<161.782 288> 18 119<169 350>
VStem: 237 143<-221.868 -143.026>
LayerCount: 2
Fore
SplineSet
178 -357 m 0
 68 -357 3 -317 3 -317 c 1
 39 -197 l 1
 39 -197 95 -233 168 -233 c 0
 218 -233 237 -213 237 -181 c 4
 237 -152 218 -134 180 -134 c 0
 138 -134 124 -167 124 -167 c 1
 28 -148 l 1
 60 137 l 1
 350 137 l 1
 350 18 l 1
 169 18 l 1
 160 -53 l 1
 160 -53 180 -30 244 -30 c 0
 332 -30 380 -87 380 -182 c 0
 380 -291 312 -357 178 -357 c 0
EndSplineSet
Validated: 1
EndChar

StartChar: six.inferior
Encoding: 8326 8326 154
Width: 426
Flags: W
HStem: -358 114<164.987 263.4> -141 108<164.725 263.566> 24 119<177.836 351.686>
VStem: 16 141<-234.22 -53.5078> 272 138<-234.387 -149.246>
LayerCount: 2
Fore
SplineSet
157 -192 m 0
 157 -222 174 -244 214 -244 c 0
 255 -244 272 -222 272 -192 c 0
 272 -162 255 -141 214 -141 c 0
 174 -141 157 -162 157 -192 c 0
145 -70 m 1
 145 -70 169 -33 244 -33 c 0
 346 -33 410 -97 410 -191 c 0
 410 -298 339 -358 221 -358 c 0
 93 -358 16 -285 16 -107 c 0
 16 54 100 143 250 143 c 0
 348 143 398 102 398 102 c 1
 356 -8 l 1
 356 -8 318 24 249 24 c 0
 183 24 149 -9 145 -70 c 1
EndSplineSet
Validated: 1
EndChar

StartChar: seven.inferior
Encoding: 8327 8327 155
Width: 402
Flags: W
HStem: 14 123<20 214>
VStem: 97 141<-350 -208.75>
LayerCount: 2
Fore
SplineSet
238 -350 m 5
 97 -350 l 5
 102.754098361 -150 214 14 214 14 c 1
 20 14 l 1
 20 137 l 1
 383 137 l 1
 383 66 l 1
 383 66 239.933333333 -113 238 -350 c 5
EndSplineSet
Validated: 1
EndChar

StartChar: eight.inferior
Encoding: 8328 8328 156
Width: 440
Flags: W
HStem: -358 111<168.446 271.554> -147 104<191 252> -111 47<103 339> 36 107<178.356 265.745>
VStem: 16 140<-233.89 -159.017> 40 132<-36.048 30.2977> 271 132<-36.048 28.2476> 284 140<-233.89 -159.017>
LayerCount: 2
Fore
SplineSet
220 -43 m 0xd6
 252 -43 271 -26 271 -4 c 0
 271 18 252 36 220 36 c 0
 190 36 172 18 172 -4 c 0
 172 -26 191 -43 220 -43 c 0xd6
220 143 m 0
 334 143 403 93 403 12 c 0
 403 -68 339 -111 220 -111 c 0xb6
 103 -111 40 -68 40 12 c 0
 40 93 108 143 220 143 c 0
220 -247 m 4
 257 -247 284 -227 284 -196 c 4
 284 -168 257 -147 220 -147 c 0
 183 -147 156 -168 156 -196 c 4xd9
 156 -227 183 -247 220 -247 c 4
220 -64 m 0xb9
 352 -64 424 -117 424 -212 c 0
 424 -301 344 -358 220 -358 c 0
 96 -358 16 -301 16 -212 c 0
 16 -117 88 -64 220 -64 c 0xb9
EndSplineSet
Validated: 5
EndChar

StartChar: nine.inferior
Encoding: 8329 8329 157
Width: 426
Flags: W
HStem: -358 115<80.7921 243.176> -187 109<159.29 255.558> 25 118<158.781 257.68>
VStem: 16 135<-68.2609 15.335> 266 144<-164.369 14.4958>
LayerCount: 2
Fore
SplineSet
266 -26 m 0
 266 4 249 25 209 25 c 0
 168 25 151 4 151 -26 c 0
 151 -56 168 -78 209 -78 c 0
 249 -78 266 -56 266 -26 c 0
274 -149 m 1
 274 -149 248 -187 168 -187 c 0
 75 -187 16 -121 16 -24 c 0
 16 83 88 143 206 143 c 0
 334 143 410 70 410 -108 c 0
 410 -269 330 -358 184 -358 c 0
 81 -358 28 -317 28 -317 c 1
 57 -207 l 1
 57 -207 100 -243 178 -243 c 4
 240 -243 270 -210 274 -149 c 1
EndSplineSet
Validated: 1
EndChar

StartChar: zero.superior
Encoding: 8304 8304 158
Width: 455
Flags: W
HStem: 342 129<179.625 276.184> 714 129<179.625 273.31>
VStem: 16 137<499.445 684.902> 302 137<499.445 684.902>
LayerCount: 2
Fore
SplineSet
153 592 m 0
 153 519 176 471 228 471 c 0
 280 471 302 519 302 592 c 0
 302 665 280 714 228 714 c 0
 176 714 153 665 153 592 c 0
16 592 m 0
 16 744 90 843 228 843 c 0
 366 843 439 744 439 592 c 0
 439 440 366 342 228 342 c 0
 90 342 16 440 16 592 c 0
EndSplineSet
Validated: 1
EndChar

StartChar: one.superior
Encoding: 185 185 159
Width: 276
Flags: W
VStem: 106 141<350 696>
LayerCount: 2
Fore
SplineSet
247 837 m 1
 247 350 l 1
 106 350 l 1
 106 696 l 1
 28 653 l 5
 -7 757 l 5
 124 837 l 1
 247 837 l 1
EndSplineSet
Validated: 1
EndChar

StartChar: two.superior
Encoding: 178 178 160
Width: 404
Flags: W
HStem: 350 127<198 392> 718 125<95.0299 231.211>
VStem: 238 149<637.287 711.181>
LayerCount: 2
Fore
SplineSet
238 674 m 0
 238 701 223 718 178 718 c 0
 118 718 75 684 75 684 c 1
 36 801 l 1
 36 801 99 843 191 843 c 0
 313 843 387 793 387 693 c 0
 387 600 333 556 239 512 c 0
 202 495 200 481 198 477 c 1
 392 477 l 1
 392 350 l 1
 32 350 l 1
 32 386 l 2
 32 497 90 561 199 624 c 0
 224 638 238 657 238 674 c 0
EndSplineSet
Validated: 1
EndChar

StartChar: three.superior
Encoding: 179 179 161
Width: 396
Flags: W
HStem: 342 123<67.2158 220.37> 543 110<106 215.137> 717 126<68.8991 215.201>
VStem: 217 153<659.064 713.543> 226 154<471.775 534.007>
LayerCount: 2
Fore
SplineSet
150 653 m 2xe8
 201 653 217 664 217 686 c 0
 217 704 206 717 170 717 c 0
 101 717 59 690 59 690 c 5
 24 806 l 5
 24 806 80 843 177 843 c 0
 297 843 370 795 370 705 c 0xf0
 370 624 296 600 296 600 c 1
 296 600 380 576 380 486 c 0
 380 383 298 342 175 342 c 0
 72 342 10 376 10 376 c 1
 46 498 l 1
 46 498 93 465 167 465 c 0
 208 465 226 480 226 506 c 0
 226 531 200 543 150 543 c 2
 105 543 l 1
 106 653 l 1
 150 653 l 2xe8
EndSplineSet
Validated: 1
EndChar

StartChar: four.superior
Encoding: 8308 8308 162
Width: 439
Flags: W
HStem: 449 113<159 427>
VStem: 225 138<350 645>
LayerCount: 2
Fore
SplineSet
363 837 m 5
 363 350 l 5
 225 350 l 5
 225 645 l 5
 159 562 l 1
 427 562 l 1
 427 449 l 1
 36 449 l 1
 11 542 l 1
 226 837 l 5
 363 837 l 5
EndSplineSet
Validated: 5
EndChar

StartChar: five.superior
Encoding: 8309 8309 163
Width: 396
Flags: W
HStem: 343 124<67.7245 226.752> 483 20G<33 39> 566 104<161.782 288> 718 119<169 350>
VStem: 237 143<478.132 556.974>
LayerCount: 2
Fore
SplineSet
178 343 m 0
 68 343 3 383 3 383 c 1
 39 503 l 1
 39 503 95 467 168 467 c 0
 218 467 237 487 237 519 c 0
 237 548 218 566 180 566 c 0
 138 566 124 533 124 533 c 1
 28 552 l 1
 60 837 l 1
 350 837 l 1
 350 718 l 1
 169 718 l 1
 160 647 l 1
 160 647 180 670 244 670 c 0
 332 670 380 613 380 518 c 0
 380 409 312 343 178 343 c 0
EndSplineSet
Validated: 1
EndChar

StartChar: six.superior
Encoding: 8310 8310 164
Width: 426
Flags: W
HStem: 342 114<164.987 263.4> 559 108<164.725 263.566> 724 119<177.836 351.686>
VStem: 16 141<465.78 646.492> 272 138<465.613 550.754>
LayerCount: 2
Fore
SplineSet
157 508 m 0
 157 478 174 456 214 456 c 0
 255 456 272 478 272 508 c 0
 272 538 255 559 214 559 c 0
 174 559 157 538 157 508 c 0
145 630 m 1
 145 630 169 667 244 667 c 0
 346 667 410 603 410 509 c 0
 410 402 339 342 221 342 c 0
 93 342 16 415 16 593 c 0
 16 754 100 843 250 843 c 0
 348 843 398 802 398 802 c 1
 356 692 l 1
 356 692 318 724 249 724 c 0
 183 724 149 691 145 630 c 1
EndSplineSet
Validated: 1
EndChar

StartChar: seven.superior
Encoding: 8311 8311 165
Width: 402
Flags: W
HStem: 714 123<20 214>
VStem: 97 141<350 491.25>
LayerCount: 2
Fore
SplineSet
238 350 m 5
 97 350 l 5
 102.754098361 550 214 714 214 714 c 1
 20 714 l 1
 20 837 l 1
 383 837 l 1
 383 766 l 1
 383 766 239.933333333 587 238 350 c 5
EndSplineSet
Validated: 1
EndChar

StartChar: eight.superior
Encoding: 8312 8312 166
Width: 440
Flags: W
HStem: 342 111<168.446 271.554> 553 104<191 252> 589 47<103 339> 736 107<178.356 265.745>
VStem: 16 140<466.11 540.983> 40 132<663.952 730.298> 271 132<663.952 728.248> 284 140<466.11 540.983>
LayerCount: 2
Fore
SplineSet
220 657 m 0xd6
 252 657 271 674 271 696 c 0
 271 718 252 736 220 736 c 0
 190 736 172 718 172 696 c 0
 172 674 191 657 220 657 c 0xd6
220 843 m 0
 334 843 403 793 403 712 c 0
 403 632 339 589 220 589 c 0xb6
 103 589 40 632 40 712 c 0
 40 793 108 843 220 843 c 0
220 453 m 4
 257 453 284 473 284 504 c 4
 284 532 257 553 220 553 c 0
 183 553 156 532 156 504 c 4xd9
 156 473 183 453 220 453 c 4
220 636 m 0xb9
 352 636 424 583 424 488 c 0
 424 399 344 342 220 342 c 0
 96 342 16 399 16 488 c 0
 16 583 88 636 220 636 c 0xb9
EndSplineSet
Validated: 5
EndChar

StartChar: nine.superior
Encoding: 8313 8313 167
Width: 426
Flags: W
HStem: 342 115<80.7921 243.176> 513 109<159.29 256.599> 725 118<158.781 257.68>
VStem: 16 135<631.739 715.335> 266 144<535.631 714.496>
LayerCount: 2
Fore
SplineSet
266 674 m 0
 266 704 249 725 209 725 c 0
 168 725 151 704 151 674 c 0
 151 644 168 622 209 622 c 0
 249 622 266 644 266 674 c 0
274 550 m 1
 274 550 248 513 168 513 c 0
 75 513 16 579 16 676 c 0
 16 783 88 843 206 843 c 0
 334 843 410 770 410 592 c 0
 410 431 330 342 184 342 c 0
 81 342 28 382 28 382 c 1
 57 493 l 1
 57 493 100 457 178 457 c 4
 240 457 270 489 274 550 c 1
EndSplineSet
Validated: 1
EndChar

StartChar: circumflex
Encoding: 710 710 168
Width: 362
Flags: W
HStem: 516 215.008
LayerCount: 2
Fore
SplineSet
271 516 m 1
 181 586.432617188 l 1
 91 516 l 1
 -20 546 l 1
 90 731.0078125 l 1
 272 731.0078125 l 1
 382 546 l 1
 271 516 l 1
EndSplineSet
Validated: 1
EndChar

StartChar: caron
Encoding: 711 711 169
Width: 362
Flags: W
HStem: 526 215.008
LayerCount: 2
Fore
SplineSet
91 741.0078125 m 1
 181 670.575195312 l 1
 271 741.0078125 l 1
 382 711.0078125 l 1
 272 526 l 1
 90 526 l 1
 -20 711.0078125 l 1
 91 741.0078125 l 1
EndSplineSet
Validated: 1
EndChar

StartChar: breve
Encoding: 728 728 170
Width: 322
VWidth: 999
Flags: W
HStem: 545.637 140.237<80.5887 242.232> 715 20G<44.4616 53.9434 268.877 278.359>
VStem: 5 312.82
LayerCount: 2
Fore
SplineSet
161.41015625 545.636523438 m 0
 51.853515625 545.636523438 5 631.762695312 5 631.762695312 c 1
 53.943359375 735 l 1
 53.943359375 735 77.6962135555 685.874023438 161.41015625 685.874023438 c 0
 245.124098944 685.874023438 268.876953125 735 268.876953125 735 c 1
 317.8203125 631.762695312 l 1
 317.8203125 631.762695312 270.966796875 545.636523438 161.41015625 545.636523438 c 0
EndSplineSet
Validated: 1
EndChar

StartChar: dotaccent
Encoding: 729 729 171
Width: 248
Flags: W
HStem: 551.543 187.449<61.5372 187.462>
VStem: 31.3867 186.227<581.892 708.643>
LayerCount: 2
Fore
SplineSet
31.38671875 645.267578125 m 0
 31.38671875 702.047461819 68.0892149394 738.9921875 124.499023438 738.9921875 c 0
 180.909798 738.9921875 217.61328125 702.047461819 217.61328125 645.267578125 c 0
 217.61328125 588.486668616 180.909798 551.54296875 124.499023438 551.54296875 c 0
 68.0892149396 551.54296875 31.38671875 588.486668616 31.38671875 645.267578125 c 0
EndSplineSet
Validated: 1
EndChar

StartChar: tilde
Encoding: 732 732 172
Width: 371
VWidth: 999
Flags: W
HStem: 537.837 129.737<194.746 317.28> 574.107 128.868<40.7617 176.336>
LayerCount: 2
Fore
SplineSet
366.400390625 600.350097655 m 1x80
 366.400390625 600.350097655 317.151059965 537.837402345 241.225585938 537.837402345 c 0x80
 173.864257812 537.837402345 160.09765625 574.106738282 110.913085938 574.106738282 c 0
 69.226511049 574.106738282 35.21875 548.768652343 35.21875 548.768652343 c 1
 5 661.350097655 l 1
 5 661.350097655 59.379852375 702.975097655 130.17578125 702.975097655 c 0x40
 196.467773438 702.975097655 215.580078125 667.574902343 260.48828125 667.574902343 c 0
 307.568162011 667.574902343 331.65703125 690.487402343 331.65703125 690.487402343 c 1
 366.400390625 600.350097655 l 1x80
EndSplineSet
Validated: 1
EndChar

StartChar: hungarumlaut
Encoding: 733 733 173
Width: 412
Flags: W
HStem: 495 246.008
LayerCount: 2
Fore
SplineSet
307.8 495 m 1
 174.2 515 l 1
 244 741.0078125 l 1
 432 711.0078125 l 1
 307.8 495 l 1
117.8 495 m 1
 -15.8 515 l 1
 54 741.0078125 l 1
 242 711.0078125 l 1
 117.8 495 l 1
EndSplineSet
Validated: 5
EndChar

StartChar: multiply
Encoding: 215 215 174
Width: 450
Flags: W
LayerCount: 2
Fore
SplineSet
428.040039062 445.694335938 m 5
 137.305664062 154.959960938 l 5
 21.9599609375 270.305664062 l 5
 312.694335938 561.040039062 l 5
 428.040039062 445.694335938 l 5
312.694335938 154.959960938 m 5
 21.9599609375 445.694335938 l 5
 137.305664062 561.040039062 l 5
 428.040039062 270.305664062 l 5
 312.694335938 154.959960938 l 5
EndSplineSet
Validated: 5
EndChar

StartChar: divide
Encoding: 247 247 175
Width: 450
Flags: W
HStem: 71.7461 209.804<158.211 291.788> 289.25 137.5<20 430> 434.45 209.804<158.211 291.788>
VStem: 120.648 208.703<109.507 243.788 472.211 606.492>
CounterMasks: 1 e0
LayerCount: 2
Fore
SplineSet
430 289.25 m 5
 20 289.25 l 5
 20 426.75 l 5
 430 426.75 l 5
 430 289.25 l 5
120.6484375 176.647460938 m 4
 120.6484375 240.198628238 161.780547994 281.549804688 224.999023438 281.549804688 c 4
 288.21842337 281.549804688 329.3515625 240.198628238 329.3515625 176.647460938 c 4
 329.3515625 113.096145559 288.21842337 71.74609375 224.999023438 71.74609375 c 4
 161.780547994 71.74609375 120.6484375 113.096145559 120.6484375 176.647460938 c 4
120.6484375 539.352539062 m 4
 120.6484375 602.90263345 161.780547994 644.25390625 224.999023438 644.25390625 c 4
 288.21842337 644.25390625 329.3515625 602.90263345 329.3515625 539.352539062 c 4
 329.3515625 475.800150775 288.21842337 434.450195312 224.999023438 434.450195312 c 4
 161.780547994 434.450195312 120.6484375 475.800150775 120.6484375 539.352539062 c 4
EndSplineSet
Validated: 1
EndChar

StartChar: AE
Encoding: 198 198 176
Width: 1024
Flags: W
HStem: 0 182.75<695 1004.5> 134 163.8<242.5 590> 276.25 177.5<626 944.5> 276.25 21.5498<590 626> 548.258 182.75<695 1004.5>
VStem: 484 72<596.5 731.008> 590 105<297.8 453.75> 590 36<276.25 297.8>
AnchorPoint: "Anchor-0" 592 731 basechar 0
LayerCount: 2
Fore
SplineSet
944.5 276.25 m 1x2e
 590 276.25 l 1x1d
 590 453.75 l 1
 944.5 453.75 l 1
 944.5 276.25 l 1x2e
695 548.2578125 m 1x8e
 695 182.75 l 1
 1004.5 182.75 l 1
 1004.5 0 l 1
 484 0 l 1
 484 731.0078125 l 1
 1004.5 731.0078125 l 1
 1004.5 548.2578125 l 1
 695 548.2578125 l 1x8e
626 134 m 5x4d
 172.5 134 l 5
 242.5 297.799804688 l 5x4d
 626 297.799804688 l 5x1d
 626 134 l 5x4d
556 731.0078125 m 1
 556 596.5 l 1
 248.5 0 l 1
 -5.5 0 l 1x8c
 423 731.0078125 l 1
 556 731.0078125 l 1
EndSplineSet
Validated: 5
EndChar

StartChar: ae
Encoding: 230 230 177
Width: 872
Flags: W
HStem: -9.99805 137.012<165.663 325.233> -9.99805 164.912<570.444 760.12> 198.5 107.05<461.15 654.45> 348.411 162.6<157.333 329.756> 360.834 150.1<557.039 643.748>
VStem: 45.75 199.799<130.423 197.181> 343.729 15.8486<212.184 309.934> 461.15 78.0482<198.5 305.55>
AnchorPoint: "Anchor-0" 417 501.011 basechar 0
LayerCount: 2
Fore
SplineSet
343.728710938 239.061523438 m 1xa7
 434.5 129.5 l 1
 415.701443652 41.5862740711 352.368132676 -9.998046875 231.038671875 -9.998046875 c 0
 100.28829076 -9.998046875 45.75 71 45.75 141 c 0
 45.75 286.71747631 163.243662886 309.797851562 359.728710938 309.93359375 c 1
 359.57734375 212.184179688 l 1
 287.081685752 212.114571563 245.548828125 201.891450633 245.548828125 166 c 4
 245.548828125 142.163820996 259.776832329 127.013671875 283.0390625 127.013671875 c 4
 314.850597283 127.013671875 343.728710938 143.507946484 343.728710938 239.061523438 c 1xa7
491.078710938 219.5 m 1
 343.728710938 165 l 1
 343.728710938 292.060742188 l 2
 343.728710938 331.438641949 310.759531534 348.410742188 266.178710938 348.410742188 c 0
 183.440958252 348.410742188 124.328710938 311.360742188 124.328710938 311.360742188 c 1
 68.7287109375 467.010742188 l 1
 68.7287109375 467.010742188 137.694836736 511.010742188 281.054882813 511.010742188 c 0x37
 397.306259261 511.010742188 491.078710938 426.601844824 491.078710938 299.010742188 c 2
 491.078710938 219.5 l 1
EndSplineSet
Refer: 43 101 N 1 0 0 1 321 0 2
Validated: 5
EndChar

StartChar: Eth
Encoding: 208 208 178
Width: 789
Flags: W
HStem: 0 187.103<327.5 463.604> 283.2 154.6<30 447> 543.9 187.107<327.5 463.935>
VStem: 106.5 221<187.103 543.9> 543.429 221.849<260.438 469.013>
LayerCount: 2
Fore
SplineSet
447 283.200195312 m 5
 30 283.200195312 l 5
 30 437.799804688 l 1
 447 437.799804688 l 1
 447 283.200195312 l 5
EndSplineSet
Refer: 5 68 N 1 0 0 1 62 0 2
Validated: 5
EndChar

StartChar: eth
Encoding: 240 240 179
Width: 588
Flags: W
HStem: -9.99805 179.212<243.585 345.668> 355.334 155.599<247.257 327.045>
VStem: 27.5713 196.849<188.444 331.239> 368.5 200.849<190.05 440> 368.5 62.8486<281.562 321.633>
LayerCount: 2
Fore
SplineSet
147.677734375 608.7578125 m 5xe0
 494.591210938 712.180078125 l 1
 518.770898438 627.567773438 l 1
 171.856445312 524.14453125 l 5
 147.677734375 608.7578125 l 5xe0
368.5 251.561523438 m 0xf0
 368.5 489.229848178 309.100482365 550.736577393 144.93359375 684.048828125 c 1
 331.827148438 771.274414062 l 1
 331.827148438 771.274414062 569.348632812 601 569.348632812 279 c 0xf0
 569.348632812 93.8330078125 465.635884717 -9.998046875 296.959960938 -9.998046875 c 0
 129.502275201 -9.998046875 27.5712890625 94.0830078127 27.5712890625 253.561523438 c 0
 27.5712890625 409.295898438 113.090131998 510.93359375 262 510.93359375 c 0
 361.1007624 510.93359375 431.348632812 423.747070312 431.348632812 281.561523438 c 1xe8
 368.5 273.561523438 l 1
 368.5 321.632515649 343.532250479 355.334179688 296.748632812 355.334179688 c 0
 246.08166099 355.334179688 224.419921875 314.589680797 224.419921875 253.561523438 c 0
 224.419921875 202.982450416 246.145097413 169.213867188 296.959960938 169.213867188 c 0
 348.532956979 169.213867188 368.5 209.911662174 368.5 251.561523438 c 0xf0
EndSplineSet
Validated: 5
EndChar

StartChar: Thorn
Encoding: 222 222 180
Width: 650
Flags: W
HStem: 0 21G<44.5 255.5> 154 170.152<174.5 412.909> 426.849 174.158<175.5 413.115> 711.008 20G<44.5 255.5>
VStem: 44.5 211<0 154 324.152 426.849 601.008 731.008> 175.5 80<154 324.152 426.849 601.008> 424.429 201.849<336.281 413.936>
LayerCount: 2
Fore
SplineSet
44.5 0 m 1xfa
 44.5 731.0078125 l 1
 255.5 731.0078125 l 1
 255.5 0 l 1
 44.5 0 l 1xfa
174.5 154 m 1
 174.5 324.1515625 l 1
 350.388671875 324.261914062 l 2
 392.776681344 324.317351145 424.428710938 333.306337653 424.428710938 374.561523438 c 0
 424.428710938 416.989129149 392.77200109 426.731997926 350.388671875 426.745898438 c 2
 175.5 426.849414062 l 1
 175.5 601.0078125 l 1xf6
 369.388671875 601.0078125 l 2
 504.55048035 601.0078125 626.27734375 539.335495382 626.27734375 374.561523438 c 0
 626.27734375 213.240207598 503.759109269 154 369.388671875 154 c 2
 174.5 154 l 1
EndSplineSet
Validated: 5
EndChar

StartChar: thorn
Encoding: 254 254 181
Width: 602
Flags: W
HStem: -9.99805 160.612<257.492 425.095> 351.134 159.799<272.819 427.004> 731.002 20G<44.5 245.5>
VStem: 44.5 201<-180 751.002> 157.651 87.8486<66.4395 183.562> 182.651 62.8486<283.562 425.747> 382.58 196.849<180.993 323.354>
LayerCount: 2
Fore
SplineSet
44.5 -180 m 1xf2
 44.5 751.001953125 l 1
 245.5 751.001953125 l 1
 245.5 -180 l 1
 44.5 -180 l 1xf2
245.5 213.561523438 m 1
 245.5 182.893703111 260.456548248 150.613867188 295.440039062 150.613867188 c 0
 356.481802946 150.613867188 382.580078125 191.828366691 382.580078125 253.561523438 c 0
 382.580078125 312.071143203 356.515833272 351.134179688 295.551367188 351.134179688 c 0
 260.490335414 351.134179688 245.5 324.08180734 245.5 283.561523438 c 1xf2
 182.651367188 283.561523438 l 1xe6
 182.651367188 425.747070312 250.698526948 510.93359375 355.5 510.93359375 c 0
 497.740234375 510.93359375 579.428710938 409.295898438 579.428710938 253.561523438 c 0
 579.428710938 94.0830078127 493.95703125 -9.998046875 353.540039062 -9.998046875 c 0
 231.771786603 -9.998046875 157.651367188 66.4394531248 157.651367188 183.561523438 c 1xea
 245.5 213.561523438 l 1
EndSplineSet
Validated: 5
EndChar

StartChar: kgreenlandic
Encoding: 312 312 182
Width: 555
Flags: W
HStem: 0 21G<34 235 319.96 576> 200.5 111<150.5 232.5> 481.011 20G<34 235 316.714 566>
VStem: 34 201<0 200.5 311.5 501.011> 150.5 84.5<200.5 311.5>
LayerCount: 2
Fore
SplineSet
232.5 311.5 m 1xe8
 232.5 200.5 l 1
 150.5 200.5 l 1
 150.5 311.5 l 1
 232.5 311.5 l 1xe8
329.650390625 0 m 1
 232.5 200.5 l 1
 232.5 311.5 l 1
 326.650390625 501.010742188 l 1
 566 501.010742188 l 1
 397.5 259.349609375 l 5
 576 0 l 1
 329.650390625 0 l 1
34 0 m 1xf0
 34 501.010742188 l 1
 235 501.010742188 l 1
 235 0 l 1
 34 0 l 1xf0
EndSplineSet
Validated: 5
EndChar

StartChar: Eng
Encoding: 330 330 183
Width: 719
Flags: W
HStem: -189.994 161.5<288.443 479.551> 0 21G<44.5 237.1> 711.008 20G<44.5 264.15 481.9 674.5>
VStem: 44.5 192.6<0 371.505> 481.9 192.6<372.1 731.008>
LayerCount: 2
Fore
SplineSet
44.5 0 m 1
 44.5 731.0078125 l 1
 251.3 731.0078125 l 1
 481.9 372.099609375 l 1
 481.9 731.0078125 l 1
 674.5 731.0078125 l 1
 674.5 -3 l 2
 674.5 -125.529296875 608.844827586 -189.994140625 450.5 -189.994140625 c 0
 340.333762431 -189.994140625 275.5 -169.994140625 275.5 -169.994140625 c 1
 289.5 -13.494140625 l 1
 289.5 -13.494140625 337.214425894 -28.494140625 404 -28.494140625 c 0
 450.859567427 -28.494140625 472.399559224 -20.3318163545 480.375045366 -19.6370725344 c 1
 237.1 371.504882812 l 1
 237.1 0 l 1
 44.5 0 l 1
EndSplineSet
Validated: 1
Substitution2: "'ss06' Style Set 6 lookup 7-1" Eng.ss06
EndChar

StartChar: eng
Encoding: 331 331 184
Width: 595
Flags: W
HStem: -189.994 158.95<185.006 331.368> 0 21G<44.5 245.5> 343.534 167.399<266.148 424.833> 481.011 20G<44.5 245.5>
VStem: 44.5 201<0 501.011> 350.277 201<-12.1168 335.934>
LayerCount: 2
Fore
SplineSet
44.5 0 m 1xdc
 44.5 501.010742188 l 1
 245.5 501.010742188 l 1
 245.5 0 l 1
 44.5 0 l 1xdc
245.5 284 m 1
 170 293.561523438 l 1
 190.742611467 444 239.927878202 510.93359375 362.5 510.93359375 c 0
 487.166135504 510.93359375 551.27734375 444.084682028 551.27734375 304.561523438 c 2
 551.27734375 52.5 l 2
 551.27734375 -93.4535080177 484.303401114 -189.994140625 322.77734375 -189.994140625 c 0
 233.515835337 -189.994140625 171.77734375 -176.094140625 171.77734375 -176.094140625 c 1
 185.77734375 -21.094140625 l 1
 185.77734375 -21.094140625 226.553751221 -31.044140625 283.62734375 -31.044140625 c 0
 330.552194626 -31.044140625 350.27734375 -0.03510448049 350.27734375 71.905859375 c 2
 350.27734375 287.561523438 l 2
 350.27734375 322.905544397 334.989985297 343.534179688 299 343.534179688 c 0xec
 261.522937243 343.534179688 245.5 319.699880216 245.5 284 c 1
EndSplineSet
Validated: 5
EndChar

StartChar: OE
Encoding: 338 338 185
Width: 991
Flags: W
HStem: 0 182.75<682.5 976.5> 0 191.412<306.854 535.713> 276.25 177.5<577.5 916.5> 538.546 192.462<306.495 535.713> 548.258 182.75<682.5 976.5>
VStem: 14 216.849<261.69 467.457> 577.5 105<276.25 453.75>
LayerCount: 2
Fore
SplineSet
542.77734375 191.301757812 m 5x76
 542.77734375 191.301757812 542.77734375 0 532.77734375 0 c 1
 387.888671875 0 l 2
 192.319335938 0 14 97.9169921877 14 364.561523438 c 0
 14 631.206054688 191.16796875 731.0078125 387.888671875 731.0078125 c 2
 532.77734375 731.0078125 l 1
 542.77734375 731.0078125 542.77734375 538.649414062 542.77734375 538.649414062 c 5
 417.888671875 538.545898438 l 6
 310.808594425 538.437339136 230.848632812 506.015867534 230.848632812 364.561523438 c 4
 230.848632812 222.54674936 310.808594425 191.527417006 417.888671875 191.412109375 c 6
 542.77734375 191.301757812 l 5x76
EndSplineSet
Refer: 10 69 N 1 0 0 1 417 0 2
Validated: 5
EndChar

StartChar: oe
Encoding: 339 339 186
Width: 920
Flags: W
HStem: -9.99805 169.762<247.152 377.984 611.884 825.645> 194.5 95.75<509.15 708.75> 340.984 169.949<246.602 378.579 572.923 699.952>
VStem: 28.7 196.849<180.723 323.017> 393.5 193.699<143.333 361.586> 509.15 51.9273<196.449 289.049>
LayerCount: 2
Fore
SplineSet
225.548632812 253.561523438 m 0xf0
 225.548632812 197.314648438 246.017089845 159.763867188 293.888671875 159.763867188 c 0
 343.162695312 159.763867188 364.228710938 197.314648438 364.228710938 253.561523438 c 0
 364.228710938 305.98408203 343.194824219 340.984179688 294 340.984179688 c 0
 246.050292968 340.984179688 225.548632812 305.98408203 225.548632812 253.561523438 c 0xf0
28.7 253.561523438 m 0
 28.7 409.295898438 129.043066407 510.93359375 293.888671875 510.93359375 c 0
 459.977441405 510.93359375 561.07734375 409.295898438 561.07734375 253.561523438 c 0xf4
 561.07734375 94.0830078125 459.977441405 -9.998046875 293.888671875 -9.998046875 c 0
 129.043066407 -9.998046875 28.7 94.0830078125 28.7 253.561523438 c 0
393.5 253.561523438 m 0xf8
 393.5 409.295898438 493.160839844 510.93359375 656.888671875 510.93359375 c 0
 846.527246095 510.93359375 905.965820312 373.372851562 905.965820312 241.1109375 c 0
 905.965820312 212.334960938 901.5 194.5 901.5 194.5 c 1
 509.15 194.5 l 1
 509.15 290.25 l 1xf4
 708.75 290.25 l 1
 708.75 290.25 707.823339843 305.349023438 701.17265625 323.1 c 0
 695.852734377 333.241113282 685.62265625 347.434179688 649 347.434179688 c 0
 605.708398437 347.434179688 587.198632812 313.875488282 587.198632812 263.611523438 c 0
 587.198632812 192.58203125 614.952734375 154.913867188 685.65 154.913867188 c 0
 772.93125 154.913867188 822.668554688 183.045703125 822.668554688 183.045703125 c 1
 855.827148438 16.545703125 l 1
 855.827148438 16.545703125 796.295898438 -9.998046875 692.888671875 -9.998046875 c 0
 486.055957032 -9.998046875 393.5 94.0830078125 393.5 253.561523438 c 0xf8
EndSplineSet
Validated: 5
EndChar

StartChar: longs
Encoding: 383 383 187
Width: 269
Flags: W
HStem: 0 21G<34 235> 613.211 147.8<171.924 369.009>
VStem: 34 201<0 600.165>
AnchorPoint: "Anchor-0" 256 752.002 basechar 0
LayerCount: 2
Fore
SplineSet
235 536.010742188 m 2
 235 0 l 1
 34 0 l 1
 34 549.010742188 l 2
 34 676.612447848 97.8963654036 761.010742188 252 761.010742188 c 0
 328.84765625 761.010742188 382 745.010742188 382 745.010742188 c 1
 368 602.210742188 l 1
 368 602.210742188 334.662109375 613.210742188 288 613.210742188 c 0
 250.685414906 613.210742188 235 589.957381744 235 536.010742188 c 2
EndSplineSet
Validated: 1
EndChar

StartChar: uni018F
Encoding: 399 399 188
Width: 765
Flags: W
HStem: -9.99805 182.262<308.688 457.11> 284.523 150.1<266.908 566.608> 541.509 197.612<192.584 438.381>
VStem: 522.76 45.8486<284.523 434.623>
LayerCount: 2
Back
SplineSet
35 364.561523438 m 0
 35 591.206054688 163.541887394 739.12109375 389.888671875 739.12109375 c 0
 653.541980974 739.12109375 740.108398438 551.971330386 740.108398438 365.891601562 c 0
 740.108398438 303.039520695 732 284 732 284 c 1
 162 284 l 1
 160 424 l 1
 562 424 l 1
 562 424 560.13712938 586.659179688 391 586.659179688 c 0
 261.796380576 586.659179688 205.848632812 497.743164062 205.848632812 364.561523438 c 4
 205.848632812 231.379882812 273.845797251 142.463867188 432.888671875 142.463867188 c 0
 580.720714467 142.463867188 659.018554688 179.595703125 659.018554688 179.595703125 c 1
 682.827148438 32.595703125 l 1
 682.827148438 32.595703125 604.343305548 -9.998046875 425.888671875 -9.998046875 c 0
 176.581210181 -9.998046875 35 137.916992188 35 364.561523438 c 0
EndSplineSet
Fore
SplineSet
745.608398438 364.561523438 m 0
 745.608398438 137.916992187 613.263375231 -9.998046875 380.219726562 -9.998046875 c 0
 108.661780645 -9.998046875 19.5 187.681819584 19.5 384.231445312 c 0
 19.5 404.638287278 21.3083984375 434.623046875 21.3083984375 434.623046875 c 1
 566.608398438 434.623046875 l 1
 568.608398438 284.5234375 l 1
 266.908203125 284.5234375 l 1
 266.908203125 284.5234375 271.849200588 252.708510151 277.82421875 238.458984375 c 0
 291.823544829 205.072682878 314.395078497 172.263671875 386 172.263671875 c 0
 484.096373618 172.263671875 522.759765625 249.24944049 522.759765625 364.561523438 c 0
 522.759765625 470.668807784 467.19160858 541.509179688 337.219726562 541.509179688 c 0
 196.252041869 541.509179688 121.58984375 487.57734375 121.58984375 487.57734375 c 1
 76.78125 679.72734375 l 1
 76.78125 679.72734375 158.472399017 739.12109375 344.219726562 739.12109375 c 0
 600.224052443 739.12109375 745.608398438 591.206054687 745.608398438 364.561523438 c 0
EndSplineSet
Validated: 5
EndChar

StartChar: florin
Encoding: 402 402 190
Width: 398
Flags: W
HStem: -190.011 158.95<-70.5093 56.6347> 336.25 164.761<-7 403> 613.211 147.8<211.924 409.009>
VStem: 74 201<-12.13 600.165>
LayerCount: 2
Fore
SplineSet
-7 501.010742188 m 1
 403 501.010742188 l 1
 403 336.25 l 1
 -7 336.25 l 1
 -7 501.010742188 l 1
74 50.8892578125 m 2
 74 549.010742188 l 2
 74 676.612447848 137.896365404 761.010742188 292 761.010742188 c 0
 368.84765625 761.010742188 422 745.010742188 422 745.010742188 c 1
 408 602.210742188 l 1
 408 602.210742188 374.662109375 613.210742188 328 613.210742188 c 0
 290.685414906 613.210742188 275 589.957381744 275 536.010742188 c 2
 275 52.4892578125 l 2
 275 -93.4704578279 208.02586207 -190.010742188 46.5 -190.010742188 c 0
 -30.3476681593 -190.010742188 -83.5 -176.110742188 -83.5 -176.110742188 c 1
 -69.5 -21.1107421875 l 1
 -69.5 -21.1107421875 -37.4750774677 -31.0607421875 7.35 -31.0607421875 c 0
 54.2751147461 -31.0607421875 74 -6.37700724766 74 50.8892578125 c 2
EndSplineSet
Validated: 5
EndChar

StartChar: uni01B7
Encoding: 439 439 191
Width: 584
Flags: W
HStem: -9.99805 187.188<110.617 312.253> 547.2 183.8<40 262.6>
VStem: 330.127 235.284<195.35 284.866>
AnchorPoint: "Anchor-0" 289 731 basechar 0
LayerCount: 2
Fore
SplineSet
404.849609375 428 m 1
 404.849609375 428 565.411132812 417.495543526 565.411132812 227.470703125 c 0
 565.411132812 54.9826540509 439.323814208 -9.998046875 250 -9.998046875 c 0
 102.934570312 -9.998046875 15.451171875 40.9091796875 15.451171875 40.9091796875 c 1
 60.6744140625 222.212695312 l 1
 60.6744140625 222.212695312 127.569810523 177.189453125 232.5 177.189453125 c 0
 300.034412406 177.189453125 330.126953125 196.097956525 330.126953125 241.400390625 c 0
 330.126953125 280.277645364 300.137566949 303.683981329 242.638671875 303.9375 c 2
 153.5 304.200195312 l 1
 153.5 398 l 1
 262.599609375 547.200195312 l 5
 40 547.2 l 1
 40 731 l 1
 551 731 l 1
 551 625 l 1
 404.849609375 428 l 1
EndSplineSet
Validated: 1
EndChar

StartChar: uni0292
Encoding: 658 658 192
Width: 524
Flags: W
HStem: -189.994 167.637<87.2106 274.018> 327.211 173.8<44 219.8>
VStem: 294.577 210.834<-2.55444 84.7764>
AnchorPoint: "Anchor-0" 260 501.011 basechar 0
LayerCount: 2
Fore
SplineSet
350.9 217.2 m 1
 350.9 217.2 505.411132812 216.928074829 505.411132812 17.6748046875 c 0
 505.411132812 -130.60239263 387.318923162 -189.994140625 210 -189.994140625 c 0
 94.2852768714 -189.994140625 25.451171875 -159.086914062 25.451171875 -159.086914062 c 1
 68.2744140625 8.9666015625 l 1
 68.2744140625 8.9666015625 116.540776302 -22.356640625 192.25 -22.356640625 c 0
 263.035819099 -22.356640625 294.577148438 1.92528594718 294.577148438 45.70390625 c 0
 294.577148438 84.4040447001 259.545431385 103.017582304 192.388671875 103.241210938 c 2
 113.5 103.50390625 l 1
 113.5 190.00390625 l 1
 219.799804688 327.2109375 l 1
 44 327.210742188 l 1
 44 501.010742188 l 1
 494 501.010742188 l 1
 494 405.010742188 l 1
 350.9 217.2 l 1
EndSplineSet
Validated: 1
EndChar

StartChar: Oslash
Encoding: 216 216 193
Width: 797
Flags: W
HStem: -9.99805 189.212<315.001 482.777> 549.909 189.212<315.001 482.777>
VStem: 24.5 217.898<256.05 473.073> 555.379 217.898<256.05 473.073>
AnchorPoint: "Anchor-0" 399 731 basechar 0
AnchorPoint: "Anchor-2" 398 0 basechar 0
AnchorPoint: "Anchor-3" 451 20 basechar 0
LayerCount: 2
Fore
SplineSet
141.5 -91.4697265625 m 5
 536.5 801.403320312 l 1
 645.5 801.403320312 l 1
 250.5 -91.4697265625 l 5
 141.5 -91.4697265625 l 5
EndSplineSet
Refer: 1 79 N 1 0 0 1 0 0 2
Validated: 5
EndChar

StartChar: oslash
Encoding: 248 248 194
Width: 589
Flags: W
HStem: -9.99805 169.762<247.152 341.509> 340.984 169.949<246.602 342.105>
VStem: 28.7 196.849<180.724 323.018> 364.229 196.849<181.398 322.389>
AnchorPoint: "Anchor-0" 294 501.011 basechar 0
AnchorPoint: "Anchor-2" 294 0 basechar 0
AnchorPoint: "Anchor-3" 377 28 basechar 0
LayerCount: 2
Fore
SplineSet
58 -91.4697265625 m 5
 429 581.403320312 l 1
 521 581.403320312 l 1
 150 -91.4697265625 l 5
 58 -91.4697265625 l 5
EndSplineSet
Refer: 29 111 N 1 0 0 1 0 0 2
Validated: 5
EndChar

StartChar: ring
Encoding: 730 730 197
Width: 355
Flags: W
HStem: 480.07 107.646<150.71 204.191> 653.168 107.834<150.377 204.547>
VStem: 24.75 123.953<590.046 652.609> 207.074 123.953<590.129 650.74>
LayerCount: 2
Fore
SplineSet
148.703125 622.396484375 m 0
 148.703125 601.600836957 157.176874403 587.716796875 176.99609375 587.716796875 c 0
 198.065942115 587.716796875 207.07421875 601.600836957 207.07421875 622.396484375 c 0
 207.07421875 640.848711518 198.095605766 653.16796875 177.094726562 653.16796875 c 0
 157.206535473 653.16796875 148.703125 640.848711518 148.703125 622.396484375 c 0
24.75 622.629882812 m 0
 24.75 706.358572334 82.3160278644 761.001953125 176.888671875 761.001953125 c 0
 272.704493022 761.001953125 331.02734375 706.358572334 331.02734375 622.629882812 c 0
 331.02734375 536.367848721 272.704493022 480.0703125 176.888671875 480.0703125 c 0
 82.3160278644 480.0703125 24.75 536.367848721 24.75 622.629882812 c 0
EndSplineSet
Validated: 1
EndChar

StartChar: ogonek
Encoding: 731 731 198
Width: 307
VWidth: 999
Flags: W
HStem: -255 113<159.156 261.677>
VStem: 19.5 136<-137.92 -46.049>
LayerCount: 2
Fore
SplineSet
19.5 -130 m 0
 19.5 -30.5220125786 107.5 39 107.5 39 c 1
 238.5 39 l 1
 238.5 39 155.5 -29.3503184713 155.5 -108 c 0
 155.5 -132.444276148 172.714442661 -142 203 -142 c 0
 241.620592949 -142 259 -128 259 -128 c 1
 277 -232 l 1
 277 -232 244.426287616 -255 179 -255 c 0
 80.7854413532 -255 19.5 -210.528428819 19.5 -130 c 0
EndSplineSet
Validated: 1
EndChar

StartChar: minute
Encoding: 8242 8242 203
Width: 235
Flags: W
HStem: 456 275.008<64.2 128.7>
VStem: -15.8 264.5
LayerCount: 2
Fore
SplineSet
-15.8 456 m 1
 64.2 731.0078125 l 1
 248.7 731.0078125 l 1
 128.7 456 l 1
 -15.8 456 l 1
EndSplineSet
Validated: 1
EndChar

StartChar: bullet
Encoding: 8226 8226 206
Width: 325
Flags: W
HStem: 209 308.449<79.3064 245.919>
VStem: 9 307.227<279.587 446.862>
LayerCount: 2
Fore
SplineSet
9 363.224609375 m 0
 9 456.655687808 69.5508005887 517.44921875 162.612304688 517.44921875 c 0
 255.674649218 517.44921875 316.2265625 456.655687808 316.2265625 363.224609375 c 0
 316.2265625 269.791915381 255.674649218 209 162.612304688 209 c 0
 69.5508005887 209 9 269.791915381 9 363.224609375 c 0
EndSplineSet
Validated: 1
EndChar

StartChar: dagger
Encoding: 8224 8224 207
Width: 530
Flags: W
HStem: 339.011 183<30 500>
LayerCount: 2
Fore
SplineSet
154.5 -171.469726562 m 1
 195 427 l 1
 164.5 759.469726562 l 1
 365.5 759.469726562 l 1
 335 426 l 1
 375.5 -171.469726562 l 1
 154.5 -171.469726562 l 1
30 339.010742188 m 1
 30 522.010742188 l 1
 500 522.010742188 l 1
 500 339.010742188 l 1
 30 339.010742188 l 1
EndSplineSet
Validated: 5
EndChar

StartChar: daggerdbl
Encoding: 8225 8225 208
Width: 530
Flags: W
HStem: 49.0107 183<30 500> 389.011 183<30 500>
VStem: 30 470<49.0107 232.011 389.011 572.011>
LayerCount: 2
Fore
SplineSet
30 49.0107421875 m 1
 30 232.010742188 l 1
 500 232.010742188 l 1
 500 49.0107421875 l 1
 30 49.0107421875 l 1
164.5 -171.469726562 m 1
 195 137 l 1
 164.5 317 l 1
 195 477 l 1
 164.5 759.469726562 l 1
 365.5 759.469726562 l 1
 335 476 l 1
 365.5 318 l 1
 335 136 l 1
 365.5 -171.469726562 l 1
 164.5 -171.469726562 l 1
30 389.010742188 m 1
 30 572.010742188 l 1
 500 572.010742188 l 1
 500 389.010742188 l 1
 30 389.010742188 l 1
EndSplineSet
Validated: 5
EndChar

StartChar: uni2116
Encoding: 8470 8470 209
Width: 1126
Flags: W
HStem: 0 21G<44.5 237.1 455.286 674.5> 228.5 109.5<744.3 1061.7> 378.061 137.526<869.1 945.984> 601.278 137.714<868.703 948.906> 711.008 20G<44.5 264.15 481.9 674.5>
VStem: 44.5 192.6<0 371.505> 481.9 192.6<372.1 731.008> 719.911 143.412<520.372 596.132> 952.677 143.412<520.6 595.929>
LayerCount: 2
Fore
SplineSet
744.3 338 m 1xe780
 1061.7 338 l 1
 1061.7 228.5 l 1
 744.3 228.5 l 1
 744.3 338 l 1xe780
863.3234375 560.844726562 m 0
 863.3234375 533.705914784 876.373865625 515.586914062 906.897460938 515.586914062 c 0
 938.965906968 515.586914062 952.6765625 533.705914784 952.6765625 560.844726562 c 0
 952.6765625 585.090871044 939.002947121 601.278320312 907.020507812 601.278320312 c 0xf780
 876.410903682 601.278320312 863.3234375 585.090871044 863.3234375 560.844726562 c 0
719.911328125 560.620117188 m 0
 719.911328125 668.552734375 790.701690401 738.9921875 907 738.9921875 c 0
 1024.54147188 738.9921875 1096.08867188 668.552734375 1096.08867188 560.620117188 c 0
 1096.08867188 450.154296875 1024.54147188 378.060546875 907 378.060546875 c 0
 790.701690401 378.060546875 719.911328125 450.154296875 719.911328125 560.620117188 c 0
EndSplineSet
Refer: 11 78 N 1 0 0 1 0 0 2
Validated: 1
EndChar

StartChar: uni20BF
Encoding: 8383 8383 210
Width: 640
Flags: W
HStem: -105 174.47<83 264 345 526> 0 173.21<265.75 375.871> 290.456 150.096<179.5 359.601> 557.899 173.108<265.75 354.664> 655 174.47<83 264 345 526>
VStem: 83 181<-105 69.4697 655 829.47> 179.5 86.25<290.456 440.552> 345 181<-105 69.4697 655 829.47> 371.179 226.099<453.691 543.398> 394.179 226.099<189.301 275.51>
LayerCount: 2
Fore
SplineSet
345 -105 m 1xa1
 345 69.4697265625 l 1
 526 69.4697265625 l 1
 526 -105 l 1
 345 -105 l 1xa1
345 655 m 1x29
 345 829.469726562 l 1
 526 829.469726562 l 1
 526 655 l 1
 345 655 l 1x29
83 -105 m 1xa4
 83 69.4697265625 l 1
 264 69.4697265625 l 1
 264 -105 l 1
 83 -105 l 1xa4
83 655 m 1x2c
 83 829.469726562 l 1
 264 829.469726562 l 1
 264 655 l 1
 83 655 l 1x2c
EndSplineSet
Refer: 19 66 N 1 0 0 1 0 0 2
Validated: 5
EndChar

StartChar: uni20A6
Encoding: 8358 8358 211
Width: 874
Flags: W
HStem: 0 21G<148.9 341.5 519.085 732.1> 259 86<19.5 213 661 854.5> 389 86<19.5 213 661 854.5> 711.008 20G<148.9 362.292 539.5 732.1>
VStem: 148.9 192.6<0 259 345 361.005> 148.9 64.1<259 345 389 475> 539.5 192.6<382.6 389 475 731.008> 661 71.1<259 345 389 475>
LayerCount: 2
Fore
SplineSet
854.5 259 m 1xf1
 661 259 l 1
 661 345 l 1
 854.5 345 l 1
 854.5 259 l 1xf1
854.5 389 m 1
 661 389 l 1
 661 475 l 1
 854.5 475 l 1
 854.5 389 l 1
213 259 m 1xf4
 19.5 259 l 1
 19.5 345 l 1
 213 345 l 1
 213 259 l 1xf4
213 389 m 1
 19.5 389 l 1
 19.5 475 l 1
 213 475 l 1
 213 389 l 1
148.9 0 m 1xf9
 148.9 731.0078125 l 1
 351.5 731.0078125 l 1
 539.5 382.599609375 l 1
 539.5 731.0078125 l 1
 732.1 731.0078125 l 1xf6
 732.1 0 l 1
 529.5 0 l 1
 341.5 361.004882812 l 1
 341.5 0 l 1
 148.9 0 l 1xf9
EndSplineSet
Validated: 5
EndChar

StartChar: uni20BD
Encoding: 8381 8381 212
Width: 703
Flags: W
HStem: 0 21G<120.5 336.5> 158.352 86<30 544> 277.852 149.5<30 447.789> 547.899 183.108<336.5 452.364>
VStem: 120.5 216<0 547.899> 462.179 217.099<441.184 536.552>
LayerCount: 2
Fore
SplineSet
544 158.3515625 m 1
 30 158.3515625 l 1
 30 244.3515625 l 1
 544 244.3515625 l 1
 544 158.3515625 l 1
30 277.8515625 m 1
 30 427.3515625 l 1
 385.638671875 427.461914062 l 2
 429.457823833 427.532091765 462.178710938 438.960424423 462.178710938 491.411523438 c 0
 462.178710938 537.253812003 429.457823833 547.738378347 385.638671875 547.795898438 c 2
 336.5 547.899414062 l 5
 336.5 0 l 5
 120.5 0 l 1
 120.5 731.0078125 l 1
 395.388671875 731.0078125 l 2
 578.002929688 731.0078125 679.27734375 660.234575161 679.27734375 491.411523438 c 0
 679.27734375 353.27046412 587.897460938 277.8515625 433.5 277.8515625 c 2
 30 277.8515625 l 1
EndSplineSet
Validated: 5
EndChar

StartChar: dong
Encoding: 8363 8363 213
Width: 645
Flags: W
HStem: 0 86<30 594> 150.002 141.399<160.64 325.973> 448.722 139.212<232.071 334.014> 629.5 81<280 625.5> 731.002 20G<354.5 555.5>
VStem: 19.5713 196.849<312.294 432.651> 354.5 201<355.374 751.002> 354.5 67.8486<387.374 504.496>
LayerCount: 2
Fore
SplineSet
594 0 m 1xfc
 30 0 l 1
 30 86 l 1
 594 86 l 1
 594 0 l 1xfc
625.5 629.5 m 1
 280 629.5 l 1
 280 710.5 l 1
 625.5 710.5 l 1
 625.5 629.5 l 1
555.5 160 m 1xfe
 354.5 160 l 1xfd
 354.5 751.001953125 l 1
 555.5 751.001953125 l 1
 555.5 160 l 1xfe
354.5 385.374023438 m 1xfe
 354.5 416.236805098 336.79915739 448.721679688 286.459960938 448.721679688 c 0
 240.091163611 448.721679688 216.419921875 420.358532918 216.419921875 377.874023438 c 0
 216.419921875 326.020259272 240.056188166 291.401367188 286.348632812 291.401367188 c 0
 336.766206662 291.401367188 354.5 317.012841589 354.5 355.374023438 c 1xfe
 417.348632812 367.374023438 l 1
 417.348632812 237.6953125 354.626166629 150.001953125 234 150.001953125 c 0
 87.2793496786 150.001953125 19.5712890625 246.333335503 19.5712890625 377.874023438 c 0
 19.5712890625 500.945811907 94.0396620102 587.93359375 238.959960938 587.93359375 c 0
 364.180075977 587.93359375 422.348632812 504.49609375 422.348632812 387.374023438 c 1xfd
 354.5 385.374023438 l 1xfe
EndSplineSet
Validated: 5
EndChar

StartChar: uni1E9E
Encoding: 7838 7838 220
Width: 743
Flags: W
HStem: -10 170.924<341.789 489.316> 0 21G<44.5 265.5> 557.208 173.8<300.806 440>
VStem: 44.5 221<0 520.21> 512.2 216.3<182.651 285.082>
LayerCount: 2
Fore
SplineSet
44.5 429.7 m 2x78
 44.5 641.680768873 138.97265625 731.0078125 372.5 731.0078125 c 2
 696.5 731.0078125 l 1
 696.5 641.0078125 l 1
 562.299804688 425.5 l 5
 625.293945312 425.5 728.5 389.142995168 728.5 227.45 c 0
 728.5 67.0671052632 631.530487806 -10 472 -10 c 0
 353.477514696 -10 296 26 296 26 c 1
 329.150390625 188.349609375 l 1
 329.150390625 188.349609375 380.37067234 160.924023438 427.415625 160.924023438 c 0xb8
 479.052308567 160.924023438 512.2 185.770194766 512.2 235.65 c 0
 512.2 286.314432989 478.480851065 309 399 309 c 6
 342 309 l 5
 342 390 l 5
 440 557.208007812 l 1
 387.5 557.208007812 l 2
 287.712505919 557.208007812 265.5 524.651367188 265.5 418.708007812 c 2
 265.5 0 l 1
 44.5 0 l 1
 44.5 429.7 l 2x78
EndSplineSet
Validated: 1
EndChar

StartChar: germandbls
Encoding: 223 223 221
Width: 725
Flags: W
HStem: -9.99805 145.979<335.807 485.761> 0 21G<44.5 245.5> 585.061 175.95<286.624 432.84>
VStem: 44.5 201<0 541.354>
LayerCount: 2
Fore
SplineSet
443.696289062 175.41796875 m 0xb0
 318.619119126 209.814401692 283.854101562 263.601252166 283.854101562 350.9 c 0
 283.854101562 449.313104188 345.173875382 508.883789062 453.099609375 508.883789062 c 0
 458.476110647 508.883789062 462 509 462 509 c 1
 460.227298059 558.291540146 423.62251276 585.060546875 365.299804688 585.060546875 c 0
 282.327439708 585.060546875 245.5 545.364460839 245.5 467.010742188 c 2
 245.5 0 l 1
 44.5 0 l 1x70
 44.5 480.010742188 l 2
 44.5 651.613415948 124.908801508 761.010742188 361 761.010742188 c 0
 622.906610254 761.010742188 675.967773438 642.238006705 675.967773438 464 c 0
 675.967773438 396.862987898 657.1953125 344.494140625 657.1953125 344.494140625 c 1
 657.1953125 344.494140625 605.698200422 366.8046875 529.79296875 366.8046875 c 0
 507.180893795 366.8046875 497.01171875 361.259901093 497.01171875 352.318359375 c 0
 497.01171875 342.498038156 502.42413102 336.245345249 521.13671875 330.88671875 c 0
 674.582741341 286.94517872 701.189453125 240.874438665 701.189453125 147.50234375 c 0
 701.189453125 50.4366533799 623.085961824 -9.998046875 476.856445312 -9.998046875 c 0
 350.557266741 -9.998046875 270.5 30.7625 270.5 30.7625 c 1
 293.314453125 176.161328125 l 1
 293.314453125 176.161328125 364.935015781 135.981445312 452.743164062 135.981445312 c 0
 476.540474909 135.981445312 487.870117188 140.49073319 487.870117188 149.237304688 c 0
 487.870117188 161.237690807 480.292559386 165.353932613 443.696289062 175.41796875 c 0xb0
EndSplineSet
Validated: 524289
EndChar

StartChar: uni2113
Encoding: 8467 8467 222
Width: 619
Flags: W
HStem: -10 165.28<313.009 469.18>
VStem: 72.5 211.229<141.32 494.107> 383.644 189.496<494.902 586.739>
LayerCount: 2
Fore
SplineSet
72.5 269.099609375 m 0
 72.5 592.974880544 175.153846524 761.001953125 368.450390625 761.001953125 c 0
 515.174793149 761.001953125 573.139648438 666.292084204 573.139648438 577.95703125 c 0
 573.139648438 226.840504347 8.5 166 8.5 166 c 1
 -5.5 314.35 l 1
 -5.5 314.35 383.643554688 390.077210154 383.643554688 552.251953125 c 0
 383.643554688 575.26815098 371.944394329 588.872070312 349.450390625 588.872070312 c 0
 303.135519726 588.872070312 283.729492188 465.284995999 283.729492188 284.875 c 0
 283.729492188 200.739037242 298.223828736 155.279882812 371.55 155.279882812 c 0
 450.548896635 155.279882812 505.208007812 195.574804688 505.208007812 195.574804688 c 1
 563 42 l 1
 563 42 502.068063888 -10 367.400390625 -10 c 0
 176.908910867 -10 72.5 81.9005298864 72.5 269.099609375 c 0
EndSplineSet
Validated: 5
EndChar

StartChar: uni20B8
Encoding: 8376 8376 223
Width: 614
Flags: W
HStem: 0 21G<201.5 412.5> 349.25 161.75<19.5 201.5 412.5 594.5> 349.25 131.75<201.5 412.5> 569.25 161.75<19.5 594.5>
VStem: 201.5 211<0 481>
LayerCount: 2
Fore
SplineSet
594.5 569.25 m 1x98
 19.5 569.25 l 1
 19.5 731 l 1
 594.5 731 l 1
 594.5 569.25 l 1x98
594.5 349.25 m 1xd8
 19.5 349.25 l 1
 19.5 511 l 1
 594.5 511 l 1
 594.5 349.25 l 1xd8
201.5 0 m 1
 201.5 481 l 1
 412.5 481 l 1xb8
 412.5 0 l 1
 201.5 0 l 1
EndSplineSet
Validated: 5
EndChar

StartChar: uni20BC
Encoding: 8380 8380 224
Width: 839
Flags: W
HStem: 0 21G<44.5 255.5 314 525 580.277 791.277> 397.544 194.462<208.464 627.313> 711.008 20G<314 525>
VStem: 44.5 211<0 330.172> 314 211<0 731.008> 580.277 211<0 330.172>
LayerCount: 2
Fore
SplineSet
417.888671875 592.005859375 m 0
 696.738950371 592.005859375 791.27734375 455.542625294 791.27734375 246.446289062 c 2
 791.27734375 0 l 1
 580.27734375 0 l 1
 580.27734375 216.446289062 l 2
 580.27734375 325.041821358 557.887932477 397.543945312 417.888671875 397.543945312 c 0
 277.889411273 397.543945312 255.5 325.041821358 255.5 216.446289062 c 2
 255.5 0 l 1
 44.5 0 l 1
 44.5 246.446289062 l 2
 44.5 455.542625294 139.038393379 592.005859375 417.888671875 592.005859375 c 0
314 0 m 1
 314 731.0078125 l 1
 525 731.0078125 l 1
 525 0 l 1
 314 0 l 1
EndSplineSet
Validated: 5
EndChar

StartChar: Ohorn
Encoding: 416 416 225
Width: 797
Flags: W
HStem: -9.99805 189.212<315.001 482.777> 549.909 189.212<315.001 482.777>
VStem: 24.5 217.898<256.05 473.073> 555.379 217.898<256.05 473.073> 572.66 157.76<672.574 813.507>
AnchorPoint: "Anchor-0" 359 731 basechar 0
AnchorPoint: "Anchor-2" 398 0 basechar 0
AnchorPoint: "Anchor-3" 471 20 basechar 0
LayerCount: 2
Fore
SplineSet
542.580078125 825.799804688 m 1xe8
 708.259765625 825.799804688 l 1
 708.259765625 825.799804688 730.419921875 795.200195312 730.419921875 738.9921875 c 0
 730.419921875 645 648.099609375 592.639648438 648.099609375 592.639648438 c 1
 527.66015625 641.360351562 l 1
 527.66015625 641.360351562 572.66015625 688 572.66015625 733.729492188 c 0
 572.66015625 790.55078125 542.580078125 825.799804688 542.580078125 825.799804688 c 1xe8
EndSplineSet
Refer: 1 79 N 1 0 0 1 0 0 2
Validated: 5
EndChar

StartChar: ohorn
Encoding: 417 417 226
Width: 589
Flags: W
HStem: -9.99805 169.762<247.152 341.509> 340.984 169.949<246.602 342.105>
VStem: 28.7 196.849<180.724 323.018> 364.229 196.849<181.398 322.389> 398.66 151.76<462.574 603.507>
AnchorPoint: "Anchor-0" 224 501.011 basechar 0
AnchorPoint: "Anchor-2" 294 0 basechar 0
AnchorPoint: "Anchor-3" 357 28 basechar 0
LayerCount: 2
Fore
SplineSet
368.580078125 615.799804688 m 1xe8
 528.259765625 615.799804688 l 1
 528.259765625 615.799804688 550.419921875 585.200195312 550.419921875 528.9921875 c 0
 550.419921875 435 468.099609375 382.639648438 468.099609375 382.639648438 c 1
 353.66015625 431.360351562 l 1
 353.66015625 431.360351562 398.66015625 478 398.66015625 523.729492188 c 0
 398.66015625 580.55078125 368.580078125 615.799804688 368.580078125 615.799804688 c 1xe8
EndSplineSet
Refer: 29 111 N 1 0 0 1 0 0 2
Validated: 5
EndChar

StartChar: Uhorn
Encoding: 431 431 227
Width: 777
Flags: W
HStem: -9.99805 189.212<294.015 421.762> 661 164.8<638.5 722.642> 711.008 20G<44.5 265.5 450.277 671.277>
VStem: 44.5 221<205.919 731.008> 450.277 221<205.919 731.008> 596.5 161<737.954 815.378>
AnchorPoint: "Anchor-0" 342 731 basechar 0
AnchorPoint: "Anchor-2" 358 0.0117188 basechar 0
AnchorPoint: "Anchor-3" 451 18 basechar 0
LayerCount: 2
Fore
SplineSet
562.580078125 825.799804688 m 1xd4
 728.259765625 825.799804688 l 1
 728.259765625 825.799804688 757.5 800 757.5 752 c 0
 757.5 692 709.5 661 638.5 661 c 1xd4
 523.5 731.0078125 l 1xb4
 557.5 731.0078125 596.5 732.480474404 596.5 770 c 0
 596.5 804 562.580078125 825.799804688 562.580078125 825.799804688 c 1xd4
EndSplineSet
Refer: 6 85 N 1 0 0 1 0 0 2
Validated: 5
EndChar

StartChar: uhorn
Encoding: 432 432 228
Width: 660
Flags: W
HStem: -9.92285 157.399<157.548 306.472> 0 21G<350.277 551.277> 481.011 20G<44.5 245.5 350.277 551.277>
VStem: 44.5 201<159.12 501.011> 350.277 201<197.449 501.011> 479.5 161<509.138 596.83>
AnchorPoint: "Anchor-0" 272 501.011 basechar 0
AnchorPoint: "Anchor-2" 302 0.0117188 basechar 0
AnchorPoint: "Anchor-3" 454 0 basechar 0
LayerCount: 2
Fore
SplineSet
437.259765625 615.799804688 m 1x34
 602.939453125 615.799804688 l 1
 602.939453125 615.799804688 640.5 584.757147576 640.5 527.002929688 c 0
 640.5 463.706226391 592.5 431.002929688 521.5 431.002929688 c 1
 406.5 501.010742188 l 1
 440.5 501.010742188 479.5 502.67223835 479.5 545.002929688 c 0
 479.5 588.140961505 437.259765625 615.799804688 437.259765625 615.799804688 c 1x34
EndSplineSet
Refer: 50 117 N 1 0 0 1 0 0 2
Validated: 5
EndChar

StartChar: integral
Encoding: 8747 8747 229
Width: 448
Flags: W
HStem: -190.011 175.75<-79.9712 64.1482> 593.261 167.75<331.701 479.772>
LayerCount: 2
Fore
SplineSet
74 31.9892578125 m 2
 124 570.010742188 l 2
 135.823371151 684.979719828 187.896365404 761.010742188 342 761.010742188 c 0
 431.261508413 761.010742188 493 745.010742188 493 745.010742188 c 1
 479 582.260742188 l 1
 479 582.260742188 439.536271972 593.260742188 384.3 593.260742188 c 0
 342.549907622 593.260742188 327.401646963 582.757429578 325 557.010742188 c 2
 275 20.9892578125 l 2
 261.901380175 -105.906604899 211.103448276 -190.010742188 57 -190.010742188 c 0
 -32.2615222466 -190.010742188 -94 -174.010742188 -94 -174.010742188 c 1
 -80 -3.2607421875 l 1
 -80 -3.2607421875 -40.5366276668 -14.2607421875 14.7 -14.2607421875 c 0
 56.4503271484 -14.2607421875 70.9590145721 -0.73305206574 74 31.9892578125 c 2
EndSplineSet
Validated: 1
EndChar

StartChar: dotlessi
Encoding: 305 305 231
Width: 269
Flags: W
HStem: 0 21G<34 235> 481.011 20G<34 235>
VStem: 34 201<0 501.011>
AnchorPoint: "Anchor-0" 134 501.011 basechar 0
AnchorPoint: "Anchor-2" 137 0 basechar 0
AnchorPoint: "Anchor-3" 141 0 basechar 0
LayerCount: 2
Fore
SplineSet
34 0 m 1
 34 501.010742188 l 1
 235 501.010742188 l 1
 235 0 l 1
 34 0 l 1
EndSplineSet
Validated: 1
EndChar

StartChar: uni0237
Encoding: 567 567 232
Width: 269
Flags: W
HStem: -190 158.95<-89.5194 16.6347> 481.011 20G<34 235>
VStem: 34 201<-12.1193 501.011>
AnchorPoint: "Anchor-0" 134 501.011 basechar 0
AnchorPoint: "Anchor-2" 17 -179.988 basechar 0
LayerCount: 2
Fore
SplineSet
34 50.9 m 2
 34 501.010742188 l 1
 235 501.010742188 l 1
 235 52.5 l 2
 235 -93.4597156399 168.02586207 -190 6.5 -190 c 0
 -53.5002947551 -190 -95 -176.099609375 -95 -176.099609375 c 5
 -89 -21.1 l 1
 -89 -21.1 -65.5178349421 -31.05 -32.65 -31.05 c 0
 14.2751147461 -31.05 34 -6.36626506016 34 50.9 c 2
EndSplineSet
Validated: 1
EndChar

StartChar: uni20B3
Encoding: 8371 8371 233
Width: 824
Flags: W
HStem: 0 21G<57 294.487 530.916 767> 139 86<19.5 804.5> 269 86<49.5 774.5> 711.008 20G<309.887 544.265>
LayerCount: 2
Fore
SplineSet
538 731.0078125 m 1
 767 0 l 1
 535.5 0 l 1
 428.393554688 467.313476562 l 1
 288.5 0 l 1
 57 0 l 1
 317 731.0078125 l 1
 538 731.0078125 l 1
774.5 269 m 1
 49.5 269 l 1
 49.5 355 l 1
 774.5 355 l 1
 774.5 269 l 1
804.5 139 m 1
 19.5 139 l 1
 19.5 225 l 1
 804.5 225 l 1
 804.5 139 l 1
EndSplineSet
Validated: 5
EndChar

StartChar: hookabovecomb
Encoding: 777 777 234
Width: 0
Flags: W
HStem: 468 112.749<46.9319 139.145> 511.667 21G<191.555 225.061> 627.429 111.564<18.387 137.599>
VStem: 0 295.629
AnchorPoint: "Anchor-0" 103 427 mark 0
LayerCount: 2
Fore
SplineSet
174.645507812 513.153320312 m 1x70
 176.137695312 468 l 1
 45.181640625 468 l 1
 46.9150390625 585.168945312 l 1
 46.9150390625 585.168945312 69.9883865508 580.749023438 98.95703125 580.749023438 c 0xb0
 126.145199912 580.749023438 139.154296875 588.550283414 139.154296875 603.095703125 c 4
 139.154296875 619.971314899 121.442260052 627.428515625 95.4533203125 627.428515625 c 0
 51.4878795239 627.428515625 22.6826171875 608.158007812 22.6826171875 608.158007812 c 1
 0 715.311523438 l 1
 0 715.311523438 44.9507722661 738.9921875 122.153320312 738.9921875 c 0
 223.820635071 738.9921875 295.62890625 702.17996081 295.62890625 612.010742188 c 0
 295.62890625 544.256783515 250.366657177 511.666992188 199.755859375 511.666992188 c 0
 183.353711531 511.666992188 174.645507812 513.153320312 174.645507812 513.153320312 c 1x70
EndSplineSet
Validated: 1
EndChar

StartChar: uni20B1
Encoding: 8369 8369 235
Width: 844
Flags: W
HStem: 0 21G<140.5 356.5> 224 179.102<260 477.143> 339 86<19.5 234 610 824.5> 469 86<19.5 234 610 824.5> 547.899 183.108<356.5 477.347>
VStem: 140.5 93.5<339 425 469 555> 260 96.5<224 403.102> 610 112.277<339 425 469 555>
LayerCount: 2
Fore
SplineSet
824.5 339 m 1xa7
 610 339 l 1
 610 425 l 1
 824.5 425 l 1
 824.5 339 l 1xa7
824.5 469 m 1x97
 610 469 l 1
 610 555 l 1
 824.5 555 l 1
 824.5 469 l 1x97
234 339 m 1xa7
 19.5 339 l 1
 19.5 425 l 1
 234 425 l 1
 234 339 l 1xa7
234 469 m 1x97
 19.5 469 l 1
 19.5 555 l 1
 234 555 l 1
 234 469 l 1x97
260 224 m 1xcf
 260 403.1015625 l 1
 404.188476562 403.211914062 l 6
 459.743952875 403.37070456 501.228515625 416.041359426 501.228515625 474.561523438 c 4
 501.228515625 534.103468455 459.743964347 547.666704098 404.188476562 547.795898438 c 6
 356.5 547.899414062 l 5
 356.5 0 l 5
 140.5 0 l 1
 140.5 731.0078125 l 1
 435.388671875 731.0078125 l 2
 586.334960938 731.0078125 722.27734375 661.165039062 722.27734375 474.561523438 c 0
 722.27734375 291.297851562 585.451171875 224 435.388671875 224 c 2
 260 224 l 1xcf
EndSplineSet
Validated: 5
EndChar

StartChar: uni20A9
Encoding: 8361 8361 236
Width: 1114
Flags: W
HStem: 0 21G<219.272 521.961 602.002 903.893> 259 86<39.5 274.5 839.5 1074.5> 389 86<19.5 274.5 839.5 1094.5> 711.008 20G<104.5 323.133 805.795 1024.5>
LayerCount: 2
Fore
SplineSet
1074.5 259 m 1
 839.5 259 l 1
 839.5 345 l 1
 1074.5 345 l 1
 1074.5 259 l 1
1094.5 389 m 1
 839.5 389 l 1
 839.5 475 l 1
 1094.5 475 l 1
 1094.5 389 l 1
274.5 259 m 1
 39.5 259 l 1
 39.5 345 l 1
 274.5 345 l 1
 274.5 259 l 1
274.5 389 m 1
 19.5 389 l 1
 19.5 475 l 1
 274.5 475 l 1
 274.5 389 l 1
222.5 0 m 1
 104.5 731.0078125 l 1
 320.5 731.0078125 l 1
 386.106445312 232.694335938 l 1
 474.5 671.0078125 l 1
 665 671.0078125 l 1
 741.106445312 232.694335938 l 1
 808.5 731.0078125 l 1
 1024.5 731.0078125 l 1
 900.5 0 l 1
 604 0 l 1
 569.75 342.771484375 l 1
 519 0 l 1
 222.5 0 l 1
EndSplineSet
Validated: 5
EndChar

StartChar: franc
Encoding: 8355 8355 237
Width: 584
Flags: W
HStem: 0 21G<84.5 295.5> 98.5 132<30 384> 291.9 192.2<190.5 494> 548.258 182.75<295.5 554>
VStem: 84.5 211<0 291.9 484.1 548.258> 190.5 105<291.9 484.1>
LayerCount: 2
Fore
SplineSet
384 98.5 m 1xf0
 30 98.5 l 1
 30 230.5 l 1
 384 230.5 l 1
 384 98.5 l 1xf0
494 291.9 m 1
 190.5 291.9 l 1
 190.5 484.1 l 1xf4
 494 484.1 l 1
 494 291.9 l 1
295.5 548.2578125 m 1xf8
 295.5 0 l 1
 84.5 0 l 1
 84.5 731.0078125 l 1
 554 731.0078125 l 1
 554 548.2578125 l 1
 295.5 548.2578125 l 1xf8
EndSplineSet
Validated: 5
EndChar

StartChar: peseta
Encoding: 8359 8359 238
Width: 844
Flags: W
HStem: 0 21G<140.5 351.5> 224 179.102<260 483.991> 429 86<30 814> 547.899 183.108<351.5 484.221>
VStem: 140.5 211<0 224 403.102 547.899> 260 91.5<224 403.102> 506.229 216.049<353.67 597.634>
LayerCount: 2
Fore
SplineSet
814 429 m 1xf2
 629 429 l 1
 585 429 l 1
 265 429 l 1
 209 429 l 1
 30 429 l 1
 30 515 l 1
 211 515 l 1
 267 515 l 1
 583 515 l 1
 627 515 l 1
 814 515 l 1
 814 429 l 1xf2
260 224 m 1xf6
 260 403.1015625 l 1xf6
 409.188671875 403.211914062 l 2
 464.74424735 403.24415333 506.228710938 416.041359426 506.228710938 474.561523438 c 0
 506.228710938 534.103468455 464.744217344 547.713104359 409.188671875 547.795898438 c 2
 351.5 547.899414062 l 1
 351.5 0 l 1
 140.5 0 l 1
 140.5 731.0078125 l 1xfa
 435.388671875 731.0078125 l 2
 586.334960938 731.0078125 722.27734375 661.165039062 722.27734375 474.561523438 c 0
 722.27734375 291.297851562 585.451171875 224 435.388671875 224 c 2
 260 224 l 1xf6
EndSplineSet
Validated: 5
EndChar

StartChar: uni20BE
Encoding: 8382 8382 239
Width: 781
Flags: W
HStem: 0 182.75<459 744> 65.752 116.998<168.699 416.389> 719.121 20G<297.453 521.858>
VStem: 44.5 216.849<273.054 479.248> 309 86<388 812> 439 86<388 812>
LayerCount: 2
Fore
SplineSet
525 812 m 1x3c
 525 388 l 1
 439 388 l 1
 439 812 l 1
 525 812 l 1x3c
395 812 m 1
 395 388 l 1
 309 388 l 1
 309 812 l 1
 395 812 l 1
744 0 m 1xbc
 19.5 0 l 1xbc
 19.5 182.75 l 1x7c
 744 182.75 l 1
 744 0 l 1xbc
416.388671875 65.751953125 m 1x7c
 168.699027091 65.751953125 44.5 195.599976251 44.5 394.561523438 c 0
 44.5 603.05352116 179.017925812 739.12109375 415.888671875 739.12109375 c 0
 627.82822661 739.12109375 775.84349175 596.473940289 767.181640625 410.891601562 c 1
 568.95546875 393.138671875 l 1
 577.699261155 486.412392718 525.162552214 549.909179688 422.888671875 549.909179688 c 0
 309.72900541 549.909179688 261.348632812 483.713171111 261.348632812 384.561523438 c 0
 261.348632812 263.544917511 309.623358349 182.75 459 182.75 c 1xbc
 416.388671875 65.751953125 l 1x7c
EndSplineSet
Validated: 37
EndChar

StartChar: uni030F
Encoding: 783 783 251
Width: 0
Flags: W
HStem: 516 225.008
AnchorPoint: "Anchor-0" 255 480 mark 0
LayerCount: 2
Fore
SplineSet
103.2 516 m 1
 -21 711.0078125 l 1
 167 741.0078125 l 1
 236.8 536 l 1
 103.2 516 l 1
293.2 516 m 1
 169 711.0078125 l 1
 357 741.0078125 l 1
 426.8 536 l 1
 293.2 516 l 1
EndSplineSet
Validated: 5
EndChar

StartChar: uni0326
Encoding: 806 806 254
Width: 0
Flags: W
HStem: -293.5 293.949
VStem: -21 186.227<-154.763 -35.216>
AnchorPoint: "Anchor-2" 82 48 mark 0
LayerCount: 2
Fore
SplineSet
-21 -93.732421875 m 0
 -21 -36.6760870853 14.9591896276 0.44921875 70.2255859375 0.44921875 c 0
 127.779078897 0.44921875 165.2265625 -40.1859805472 165.2265625 -113.732421875 c 0
 165.2265625 -214.401513727 78.11328125 -293.5 78.11328125 -293.5 c 1
 11.61328125 -240 l 1
 11.61328125 -240 46.1708984375 -213.53125 61.61328125 -187 c 1
 11.1474004214 -182.195433301 -21 -146.530934404 -21 -93.732421875 c 0
EndSplineSet
Validated: 1
EndChar

StartChar: uni031B
Encoding: 795 795 258
Width: 0
Flags: W
HStem: 497.848 233.16
VStem: 24 178.76<577.782 718.715>
LayerCount: 2
Fore
SplineSet
-6.080078125 731.0078125 m 1
 180.599609375 731.0078125 l 1
 180.599609375 731.0078125 202.759765625 700.408203124 202.759765625 644.200195312 c 0
 202.759765625 550.208007812 120.439453125 497.84765625 120.439453125 497.84765625 c 1
 -21 546.568359375 l 1
 -21 546.568359375 24 593.208007812 24 638.9375 c 0
 24 695.758789062 -6.080078125 731.0078125 -6.080078125 731.0078125 c 1
EndSplineSet
Validated: 1
EndChar

StartChar: dcaron
Encoding: 271 271 406
Width: 763
Flags: W
HStem: -9.99805 159.8<173.897 328.897> 0 21G<361.5 562.5> 350.321 160.612<256.054 350.02> 731 20G<624.843 798.5> 731.002 20G<361.5 562.5>
VStem: 27.5713 207.349<170.904 327.54> 361.5 62.8486<75.1885 217.374> 361.5 78.3486<317.374 434.496> 361.5 201<217.374 751.002>
LayerCount: 2
Fore
SplineSet
630.5 751 m 25x34
 798.5 751 l 25
 703.5 553 l 25
 574.5 553 l 25
 630.5 751 l 25x34
EndSplineSet
Refer: 44 100 N 1 0 0 1 0 0 2
Validated: 5
EndChar

StartChar: tcaron
Encoding: 357 357 407
Width: 463
Flags: W
HStem: -10 158.75<197.36 372.664> 335.2 165.811<3.5 392.5> 731 20G<334.843 508.5>
VStem: 74 201<159.447 648.911>
LayerCount: 2
Fore
SplineSet
340.5 751 m 25
 508.5 751 l 25
 413.5 553 l 25
 284.5 553 l 25
 340.5 751 l 25
EndSplineSet
Refer: 41 116 N 1 0 0 1 0 0 2
Validated: 5
EndChar

StartChar: dcroat
Encoding: 273 273 409
Width: 622
Flags: W
HStem: -9.99805 159.8<173.897 328.897> 0 21G<361.5 562.5> 350.321 160.612<256.054 350.02> 544.25 132.5<267.5 622.5> 731.002 20G<361.5 562.5>
VStem: 27.5713 207.349<170.904 327.54> 361.5 62.8486<75.1885 217.374> 361.5 78.3486<317.374 434.496> 361.5 201<217.374 751.002>
LayerCount: 2
Fore
SplineSet
622.5 544.25 m 5x3c
 267.5 544.25 l 5
 267.5 676.75 l 5
 622.5 676.75 l 5
 622.5 544.25 l 5x3c
EndSplineSet
Refer: 44 100 N 1 0 0 1 0 0 2
Validated: 5
EndChar

StartChar: Tbar
Encoding: 358 358 410
Width: 614
Flags: W
HStem: 0 21G<196.5 417.5> 219 183<94.5 519.5> 548.25 152.75<196.5 417.5> 548.25 182.75<19.5 196.5 417.5 594.5>
VStem: 196.5 221<0 701>
LayerCount: 2
Fore
SplineSet
519.5 219 m 1xc8
 94.5 219 l 1
 94.5 402 l 1
 519.5 402 l 1
 519.5 219 l 1xc8
EndSplineSet
Refer: 17 84 N 1 0 0 1 0 0 2
Validated: 5
EndChar

StartChar: tbar
Encoding: 359 359 411
Width: 412
Flags: W
HStem: -10 158.75<197.36 372.664> 207.25 102.5<19 363> 335.2 165.811<3.5 392.5>
VStem: 74 201<159.447 648.911>
LayerCount: 2
Fore
SplineSet
363 207.25 m 5
 19 207.25 l 5
 19 309.75 l 5
 363 309.75 l 5
 363 207.25 l 5
EndSplineSet
Refer: 41 116 N 1 0 0 1 0 0 2
Validated: 5
EndChar

StartChar: Hbar
Encoding: 294 294 412
Width: 859
Flags: W
HStem: 0 21G<114.5 335.5 523.5 744.5> 264 188<220.5 623.5> 500.011 143<19.5 839.5> 711.008 20G<114.5 335.5 523.5 744.5>
VStem: 114.5 221<0 264 452 731.008> 220.5 115<264 452> 523.5 100<264 452> 523.5 221<0 264 452 731.008>
LayerCount: 2
Fore
SplineSet
839.5 500.010742188 m 5xf0
 19.5 497 l 5
 19.5 640 l 1
 839.5 643.010742188 l 1
 839.5 500.010742188 l 5xf0
EndSplineSet
Refer: 2 72 N 1 0 0 1 70 0 2
Validated: 5
EndChar

StartChar: hbar
Encoding: 295 295 413
Width: 637
Flags: W
HStem: 0 21G<86.5 287.5 392.277 593.277> 353.534 157.399<331.305 480.229> 544.25 132.5<30 374> 731.002 20G<86.5 287.5>
VStem: 86.5 201<0 751.002> 392.277 201<0 341.891>
LayerCount: 2
Fore
SplineSet
374 544.25 m 5
 30 544.25 l 5
 30 676.75 l 5
 374 676.75 l 5
 374 544.25 l 5
EndSplineSet
Refer: 36 104 N 1 0 0 1 42 0 2
Validated: 5
EndChar

